SplineFontDB: 3.2
FontName: AbileBoldItalic
FullName: Abile Bold Italic:
FamilyName: AbileV
Weight: 
Copyright: Copyright  c  1989 Adobe Systems Incorporated.  All Rights Reserved. Adobe Garamond is a trademark of Adobe Systems Incorporated.
Version: p
ItalicAngle: 0
UnderlinePosition: 0
UnderlineWidth: 0
Ascent: 800
Descent: 200
InvalidEm: 0
sfntRevision: 0x00010000
LayerCount: 2
Layer: 0 0 "Back" 1
Layer: 1 0 "Fore" 0
XUID: [1021 1001 -774976532 13284789]
StyleMap: 0x0000
FSType: 0
OS2Version: 3
OS2_WeightWidthSlopeOnly: 0
OS2_UseTypoMetrics: 0
CreationTime: -2082844800
ModificationTime: 1709997118
PfmFamily: 17
TTFWeight: 700
TTFWidth: 5
LineGap: 0
VLineGap: 0
Panose: 2 0 8 3 0 0 0 0 0 0
OS2TypoAscent: 800
OS2TypoAOffset: 0
OS2TypoDescent: -200
OS2TypoDOffset: 0
OS2TypoLinegap: 90
OS2WinAscent: 947
OS2WinAOffset: 0
OS2WinDescent: 292
OS2WinDOffset: 0
HheadAscent: 947
HheadAOffset: 0
HheadDescent: -500
HheadDOffset: 0
OS2SubXSize: 650
OS2SubYSize: 700
OS2SubXOff: 0
OS2SubYOff: 140
OS2SupXSize: 650
OS2SupYSize: 700
OS2SupXOff: 0
OS2SupYOff: 480
OS2StrikeYSize: 49
OS2StrikeYPos: 258
OS2CapHeight: 524
OS2XHeight: 518
OS2Vendor: 'PfEd'
OS2CodePages: 20000000.00000000
OS2UnicodeRanges: 800000af.5000204a.00000000.00000000
DEI: 91125
LangName: 1033 "" "" "" "FontForge 2.0 : Abile Bold Italic: : 1-5-2021"
LangName: 1024 "Copyright  c  1989 Adobe Systems Incorporated.  All Rights Reserved. Adobe Garamond is a trademark of Adobe Systems Incorporated." "AbileV" "Bold Italic" "Abile Bold Italic" "Abile Bold Italic:" "p"
Encoding: UnicodeBmp
Compacted: 1
UnicodeInterp: none
NameList: AGL For New Fonts
DisplaySize: -48
AntiAlias: 1
FitToEm: 1
WinInfo: 0 15 12
BeginPrivate: 3
BlueValues 25 [-273 -2 396 597 714 731]
BlueScale 10 0.00416667
BlueShift 2 13
EndPrivate
BeginChars: 65537 205

StartChar: .notdef
Encoding: 65536 -1 0
Width: 500
GlyphClass: 1
Flags: W
LayerCount: 2
Fore
SplineSet
40 667 m 1
 460 667 l 1
 460 0 l 1
 40 0 l 1
 40 667 l 1
60 647 m 1
 60 20 l 1
 440 20 l 1
 440 647 l 1
 60 647 l 1
EndSplineSet
EndChar

StartChar: exclam
Encoding: 33 33 3
Width: 402
GlyphClass: 2
Flags: W
LayerCount: 2
Fore
SplineSet
157 367 m 2
 155.666992188 368.333007812 153.33203125 369.000976562 149.999023438 369.000976562 c 0
 105.33203125 371.66796875 80.9990234375 359.66796875 76.9990234375 333.000976562 c 0
 75.666015625 323.000976562 77.3330078125 313.66796875 82 305.000976562 c 0
 88 286.333984375 103 273.000976562 127 265.000976562 c 0
 133 262.333984375 143 259.666992188 157 257 c 1
 157 367 l 2
156.998046875 600.000976562 m 2
 156.998046875 620.66796875 152.828125 633.499023438 144.495117188 638.499023438 c 0
 136.162109375 643.499023438 120.329101562 646.666015625 96.99609375 647.999023438 c 2
 78.99609375 648.999023438 l 2
 76.99609375 652.33203125 75.99609375 656.165039062 75.99609375 660.498046875 c 0
 75.99609375 664.831054688 77.3291015625 667.6640625 79.99609375 668.997070312 c 0
 127.329101562 685.6640625 173.329101562 705.997070312 217.99609375 729.997070312 c 1
 231.99609375 727.330078125 238.99609375 724.330078125 238.99609375 720.997070312 c 2
 230.99609375 623.997070312 l 1
 230.99609375 259.997070312 l 1
 242.99609375 263.997070312 251.99609375 267.330078125 257.99609375 269.997070312 c 1
 257.99609375 269.997070312 l 1
 277.99609375 279.330078125 293.329101562 288.830078125 303.99609375 298.497070312 c 0
 314.663085938 308.1640625 322.663085938 315.331054688 327.99609375 319.998046875 c 0
 334.663085938 325.998046875 342.49609375 327.998046875 351.49609375 325.998046875 c 0
 360.49609375 323.998046875 363.663085938 318.665039062 360.99609375 309.998046875 c 0
 356.329101562 297.331054688 343.99609375 283.6640625 323.99609375 268.997070312 c 0
 303.99609375 254.330078125 280.329101562 240.997070312 252.99609375 228.997070312 c 0
 250.329101562 228.997070312 246.99609375 228.330078125 242.99609375 226.997070312 c 2
 230.99609375 222.997070312 l 1
 230.99609375 110.997070312 l 2
 230.99609375 74.9970703125 232.99609375 52.1640625 236.99609375 42.4970703125 c 0
 240.99609375 32.830078125 251.663085938 26.9970703125 268.99609375 24.9970703125 c 2
 300.99609375 21.9970703125 l 2
 304.99609375 19.9970703125 306.663085938 15.830078125 305.99609375 9.4970703125 c 0
 305.329101562 3.1640625 302.99609375 -1.0029296875 298.99609375 -3.0029296875 c 0
 258.329101562 -1.0029296875 223.329101562 -0.0029296875 193.99609375 -0.0029296875 c 0
 162.663085938 -0.0029296875 127.99609375 -1.0029296875 89.99609375 -3.0029296875 c 0
 85.99609375 -0.3359375 83.6630859375 3.8310546875 82.99609375 9.498046875 c 0
 82.3291015625 15.1650390625 83.99609375 19.33203125 87.99609375 21.9990234375 c 2
 118.99609375 24.9990234375 l 2
 136.99609375 26.9990234375 147.829101562 32.4990234375 151.49609375 41.4990234375 c 0
 155.163085938 50.4990234375 156.99609375 73.666015625 156.99609375 110.999023438 c 2
 156.99609375 217.999023438 l 1
 151.663085938 218.666015625 141.330078125 220.999023438 125.997070312 224.999023438 c 0
 93.330078125 233.666015625 67.6630859375 249.833007812 48.99609375 273.5 c 0
 30.3291015625 297.166992188 23.99609375 321.333984375 29.99609375 346.000976562 c 0
 34.6630859375 364.000976562 45.330078125 378.66796875 61.9970703125 390.000976562 c 0
 79.9970703125 402.000976562 104.6640625 407.333984375 135.997070312 406.000976562 c 2
 142.997070312 406.000976562 l 2
 149.6640625 406.000976562 154.331054688 405.66796875 156.998046875 405.000976562 c 1
 156.998046875 600.000976562 l 2
EndSplineSet
EndChar

StartChar: numbersign
Encoding: 35 35 4
Width: 328
GlyphClass: 2
Flags: W
LayerCount: 2
Fore
SplineSet
136 -270 m 1
 136 -65 l 1
 186 -65 l 1
 186 -270 l 1
 136 -270 l 1
171 407 m 0
 217.666992188 407 247.333007812 400.6640625 260 387.997070312 c 1
 272 364.6640625 278.666992188 338.331054688 280 308.998046875 c 0
 278 305.665039062 274.5 303.33203125 269.5 301.999023438 c 0
 264.5 300.666015625 260 301.999023438 256 305.999023438 c 0
 248 327.999023438 236.166992188 345.499023438 220.5 358.499023438 c 0
 204.833007812 371.499023438 186.666015625 377.999023438 165.999023438 377.999023438 c 0
 146.666015625 377.999023438 131.333007812 372.33203125 120 360.999023438 c 0
 108.666992188 349.666015625 103 334.999023438 103 316.999023438 c 0
 103.666992188 298.999023438 110.833984375 284.499023438 124.500976562 273.499023438 c 0
 138.16796875 262.499023438 159.000976562 249.33203125 187.000976562 233.999023438 c 0
 219.66796875 217.33203125 245.16796875 198.83203125 263.500976562 178.499023438 c 0
 281.833984375 158.166015625 292.000976562 131.999023438 294.000976562 99.9990234375 c 0
 296.000976562 63.9990234375 283.16796875 35.9990234375 255.500976562 15.9990234375 c 0
 227.833984375 -4.0009765625 194.333984375 -14.0009765625 155.000976562 -14.0009765625 c 0
 109.000976562 -14.0009765625 73.0009765625 -4.0009765625 47.0009765625 15.9990234375 c 1
 37.0009765625 36.666015625 31.333984375 70.3330078125 30.0009765625 117 c 0
 33.333984375 120.333007812 37.5009765625 122 42.5009765625 122 c 0
 47.5009765625 122 51.0009765625 120.666992188 53.0009765625 118 c 0
 77.0009765625 49.3330078125 114.000976562 15 164.000976562 15 c 0
 184.000976562 15 200.000976562 20.8330078125 212.000976562 32.5 c 0
 224.000976562 44.1669921875 229.66796875 59.6669921875 229.000976562 79 c 0
 228.333984375 100.333007812 220.166992188 117.833007812 204.5 131.5 c 0
 188.833007812 145.166992188 169.333007812 158 146 170 c 0
 113.333007812 189.333007812 88.3330078125 208 71 226 c 0
 53.6669921875 244 43.6669921875 266.333007812 41 293 c 0
 40.3330078125 329 52 357 76 377 c 0
 100 397 131.666992188 407 171 407 c 0
EndSplineSet
EndChar

StartChar: dollar
Encoding: 36 36 5
Width: 279
GlyphClass: 2
Flags: W
LayerCount: 2
Fore
SplineSet
94 600 m 2
 94 620.666992188 89.8330078125 633.501953125 81.5 638.501953125 c 0
 73.1669921875 643.501953125 57.333984375 646.668945312 34.0009765625 648.001953125 c 2
 16.0009765625 649.001953125 l 2
 14.0009765625 652.334960938 13.0009765625 656.16796875 13.0009765625 660.500976562 c 0
 13.0009765625 664.833984375 14.333984375 667.666992188 17.0009765625 669 c 0
 64.333984375 685.666992188 110.333984375 706 155.000976562 730 c 1
 169.000976562 727.333007812 176.000976562 724.333007812 176.000976562 721 c 2
 168.000976562 624 l 1
 168.000976562 -57 l 2
 168.000976562 -125.666992188 169.000976562 -169.666992188 171.000976562 -189 c 0
 173.000976562 -208.333007812 181.000976562 -220.666015625 195.000976562 -225.999023438 c 0
 217.000976562 -233.33203125 232.000976562 -233.83203125 240.000976562 -227.499023438 c 0
 248.000976562 -221.166015625 252.16796875 -209.833007812 252.500976562 -193.5 c 0
 252.833984375 -177.166992188 253.666992188 -167 255 -163 c 0
 257 -157 262.166992188 -152.833007812 270.5 -150.5 c 0
 278.833007812 -148.166992188 287.166015625 -148.5 295.499023438 -151.5 c 0
 303.83203125 -154.5 309.33203125 -160 311.999023438 -168 c 0
 320.666015625 -192 317.333007812 -211.666992188 302 -227 c 0
 272.666992188 -250.333007812 241.666992188 -263.833007812 209 -267.5 c 0
 176.333007812 -271.166992188 149 -259.666992188 127 -233 c 0
 105 -206.333007812 94 -162.333007812 94 -101 c 2
 94 6 l 1
 94 600 l 2
EndSplineSet
EndChar

StartChar: percent
Encoding: 37 37 6
Width: 583
GlyphClass: 2
Flags: W
LayerCount: 2
Fore
SplineSet
486 12 m 0
 486 59.3330078125 479.500976562 97.1650390625 466.500976562 125.498046875 c 0
 453.500976562 153.831054688 426.66796875 180.331054688 386.000976562 204.998046875 c 0
 386.000976562 208.998046875 387.16796875 213.665039062 389.500976562 218.998046875 c 0
 391.833984375 224.331054688 394.666992188 226.998046875 398 226.998046875 c 0
 490.666992188 191.665039062 537 119.998046875 537 11.998046875 c 0
 537 -97.3349609375 490.666992188 -169.66796875 398 -205.000976562 c 0
 390 -205.000976562 386 -198.66796875 386 -186.000976562 c 1
 427.333007812 -160.000976562 454.333007812 -132.66796875 467 -104.000976562 c 0
 479.666992188 -75.333984375 486 -36.6669921875 486 12 c 0
267.000976562 -130.000976562 m 1
 267.000976562 148.999023438 l 1
 317.000976562 148.999023438 l 1
 317.000976562 -130.000976562 l 1
 267.000976562 -130.000976562 l 1
97.0009765625 11.9990234375 m 0
 97.0009765625 -18.66796875 99.66796875 -45.66796875 105.000976562 -69.0009765625 c 0
 110.333984375 -92.333984375 119.833984375 -113.000976562 133.500976562 -131.000976562 c 0
 147.16796875 -149.000976562 168.334960938 -167.333984375 197.001953125 -186.000976562 c 1
 197.001953125 -198.66796875 193.001953125 -205.000976562 185.001953125 -205.000976562 c 0
 92.3349609375 -169.66796875 46.001953125 -97.3349609375 46.001953125 11.998046875 c 0
 46.001953125 119.998046875 92.3349609375 191.665039062 185.001953125 226.998046875 c 0
 188.334960938 226.998046875 191.16796875 224.331054688 193.500976562 218.998046875 c 0
 195.833984375 213.665039062 197.000976562 208.998046875 197.000976562 204.998046875 c 0
 157.000976562 180.331054688 130.333984375 153.831054688 117.000976562 125.498046875 c 0
 103.66796875 97.1650390625 97.0009765625 59.33203125 97.0009765625 11.9990234375 c 0
EndSplineSet
EndChar

StartChar: ampersand
Encoding: 38 38 7
Width: 479
GlyphClass: 2
Flags: W
LayerCount: 2
Fore
SplineSet
176 -270 m 1
 176 -65 l 1
 226 -65 l 1
 226 -270 l 1
 176 -270 l 1
79 298 m 2
 79 321.333007812 78.0009765625 336.831054688 76.0009765625 344.498046875 c 0
 74.0009765625 352.165039062 70.5009765625 357.498046875 65.5009765625 360.498046875 c 0
 60.5009765625 363.498046875 49.66796875 366.665039062 33.0009765625 369.998046875 c 2
 11.0009765625 372.998046875 l 2
 7.0009765625 374.998046875 5.0009765625 378.998046875 5.0009765625 384.998046875 c 0
 5.0009765625 390.998046875 7.66796875 394.665039062 13.0009765625 395.998046875 c 0
 55.0009765625 393.998046875 89.333984375 392.998046875 116.000976562 392.998046875 c 0
 141.333984375 392.998046875 178.333984375 393.998046875 227.000976562 395.998046875 c 0
 231.000976562 395.331054688 233.000976562 391.998046875 233.000976562 385.998046875 c 0
 233.000976562 379.998046875 231.333984375 375.665039062 228.000976562 372.998046875 c 2
 197.000976562 369.998046875 l 2
 176.333984375 367.998046875 163.666992188 363.331054688 159 355.998046875 c 0
 154.333007812 348.665039062 152 329.33203125 152 297.999023438 c 2
 152 232.999023438 l 2
 152 227.666015625 153.833007812 223.999023438 157.5 221.999023438 c 0
 161.166992188 219.999023438 168.666992188 218.999023438 180 218.999023438 c 0
 198.666992188 218.999023438 211.666992188 223.666015625 219 232.999023438 c 0
 259.666992188 294.33203125 283 328.33203125 289 334.999023438 c 0
 311 360.999023438 331.833007812 378.83203125 351.5 388.499023438 c 0
 371.166992188 398.166015625 395.666992188 402.999023438 425 402.999023438 c 0
 444.333007812 402.999023438 458 401.666015625 466 398.999023438 c 1
 470.666992188 390.999023438 470.666992188 384.666015625 466 379.999023438 c 1
 443.333007812 378.666015625 422.666015625 372.333007812 403.999023438 361 c 0
 384.666015625 349.666992188 369.499023438 336.5 358.499023438 321.5 c 0
 347.499023438 306.5 324.999023438 271.333007812 290.999023438 216 c 0
 286.999023438 210.666992188 286.999023438 206.666992188 290.999023438 204 c 0
 348.999023438 182.666992188 377.999023438 150 377.999023438 106 c 0
 377.999023438 64 360.83203125 35.5 326.499023438 20.5 c 0
 292.166015625 5.5 246.333007812 -2 189 -2 c 0
 128.333007812 -2 72 -0.3330078125 20 3 c 0
 16 5 14 9.3330078125 14 16 c 0
 14 22.6669921875 16 26 20 26 c 2
 56 29 l 2
 66.6669921875 29.6669921875 73.1669921875 34.6669921875 75.5 44 c 0
 77.8330078125 53.3330078125 79 74 79 106 c 2
 79 298 l 2
151.000976562 50.998046875 m 2
 151.000976562 40.3310546875 153.833984375 33.666015625 159.500976562 30.9990234375 c 0
 165.16796875 28.33203125 177.000976562 26.9990234375 195.000976562 26.9990234375 c 0
 228.333984375 26.9990234375 253.666992188 34.666015625 271 49.9990234375 c 0
 288.333007812 65.33203125 297 84.9990234375 297 108.999023438 c 0
 297 139.666015625 289.333007812 160.999023438 274 172.999023438 c 0
 258.666992188 184.999023438 234.333984375 190.999023438 201.000976562 190.999023438 c 0
 177.000976562 190.999023438 162.66796875 190.166015625 158.000976562 188.499023438 c 0
 153.333984375 186.83203125 151.000976562 180.665039062 151.000976562 169.998046875 c 2
 151.000976562 50.998046875 l 2
EndSplineSet
EndChar

StartChar: quotesingle
Encoding: 39 39 8
Width: 423
GlyphClass: 2
Flags: W
LayerCount: 2
Fore
SplineSet
84 154 m 2
 282 154 l 2
 294.666992188 154 302.333984375 155.333007812 305.000976562 158 c 0
 307.66796875 160.666992188 309.000976562 168.666992188 309.000976562 182 c 0
 309.000976562 232.666992188 294.500976562 273.333984375 265.500976562 304.000976562 c 0
 236.500976562 334.66796875 195.66796875 350.000976562 143.000976562 350.000976562 c 0
 107.66796875 350.000976562 77.0009765625 333.66796875 51.0009765625 301.000976562 c 1
 40.333984375 297.66796875 34.333984375 301.66796875 33.0009765625 313.000976562 c 1
 49.0009765625 345.000976562 71.66796875 368.66796875 101.000976562 384.000976562 c 0
 130.333984375 399.333984375 160.000976562 407.000976562 190.000976562 407.000976562 c 0
 252.66796875 407.000976562 301.000976562 384.66796875 335.000976562 340.000976562 c 0
 363.000976562 303.333984375 377.000976562 260.000976562 377.000976562 210.000976562 c 0
 377.000976562 147.333984375 358.16796875 94.1669921875 320.500976562 50.5 c 0
 282.833984375 6.8330078125 234.666992188 -15 176 -15 c 0
 132.666992188 -15 98.5 -2.3330078125 73.5 23 c 0
 48.5 48.3330078125 34 81 30 121 c 0
 28.6669921875 135 28.6669921875 144 30 148 c 0
 31.3330078125 152 49.3330078125 154 84 154 c 2
291 125 m 2
 220.001953125 125.001953125 l 2
 155.334960938 125.001953125 118.66796875 121.334960938 110.000976562 114.001953125 c 0
 106.000976562 111.334960938 104.000976562 99.3349609375 104.000976562 78.001953125 c 0
 104.000976562 61.3349609375 111.16796875 46.66796875 125.500976562 34.0009765625 c 0
 139.833984375 21.333984375 160.333984375 15.0009765625 187.000976562 15.0009765625 c 0
 214.333984375 15.0009765625 239.666992188 27.66796875 263 53.0009765625 c 0
 286.333007812 78.333984375 298 100.666992188 298 120 c 0
 298 123.333007812 295.666992188 125 291 125 c 2
172.001953125 578.001953125 m 2
 253.000976562 542.000976562 l 2
 271.000976562 534.66796875 285.000976562 535.16796875 295.000976562 543.500976562 c 0
 305.000976562 551.833984375 316.66796875 568.000976562 330.000976562 592.000976562 c 0
 332.000976562 596.000976562 335.16796875 597.66796875 339.500976562 597.000976562 c 0
 343.833984375 596.333984375 346.333984375 593.333984375 347.000976562 588.000976562 c 0
 349.000976562 555.333984375 340.66796875 528.333984375 322.000976562 507.000976562 c 0
 310.66796875 494.333984375 296.66796875 487.000976562 280.000976562 485.000976562 c 0
 263.333984375 483.000976562 247.333984375 484.66796875 232.000976562 490.000976562 c 2
 153.000976562 523.000976562 l 2
 125.66796875 535.000976562 97.3349609375 518.66796875 68.001953125 474.000976562 c 0
 66.001953125 470.000976562 62.8349609375 469.000976562 58.501953125 471.000976562 c 0
 54.1689453125 473.000976562 51.6689453125 475.66796875 51.001953125 479.000976562 c 0
 48.3349609375 501.000976562 61.001953125 527.333984375 89.001953125 558.000976562 c 0
 97.001953125 568.66796875 109.168945312 576.334960938 125.501953125 581.001953125 c 0
 141.834960938 585.668945312 157.334960938 584.668945312 172.001953125 578.001953125 c 2
EndSplineSet
EndChar

StartChar: parenright
Encoding: 41 41 9
Width: 433
GlyphClass: 2
Flags: W
LayerCount: 2
Fore
SplineSet
218 607 m 0
 256.666992188 607 286.5 596.83203125 307.5 576.499023438 c 0
 328.5 556.166015625 342 521.333007812 348 472 c 1
 342 466.666992188 335.666992188 466.666992188 329 472 c 1
 321.666992188 501.333007812 309.833984375 522 293.500976562 534 c 0
 277.16796875 546 252.334960938 552 219.001953125 552 c 0
 186.334960938 552 162.66796875 546 148.000976562 534 c 0
 133.333984375 522 119.666992188 501.333007812 107 472 c 0
 101 466.666992188 94.6669921875 466.666992188 88 472 c 1
 104.666992188 562 148 607 218 607 c 0
257 198.999023438 m 0
 283.666992188 158.999023438 304.333007812 123.998046875 319 93.998046875 c 0
 333.666992188 63.998046875 343.333984375 26.998046875 348.000976562 -17.001953125 c 0
 356.000976562 -87.001953125 347.66796875 -145.668945312 323.000976562 -193.001953125 c 0
 298.333984375 -240.334960938 264.666992188 -265.66796875 222 -269.000976562 c 0
 186 -269.66796875 156.166992188 -250.500976562 132.5 -211.500976562 c 0
 108.833007812 -172.500976562 96.3330078125 -122.66796875 95 -62.0009765625 c 0
 95 -26.0009765625 100.666992188 9.666015625 112 44.9990234375 c 0
 123.333007812 80.33203125 143 122.665039062 171 171.998046875 c 0
 176.333007812 181.331054688 179.5 186.831054688 180.5 188.498046875 c 0
 181.5 190.165039062 180 193.33203125 176 197.999023438 c 2
 86 325.999023438 l 2
 70 349.33203125 50 363.665039062 26 368.998046875 c 2
 2 370.998046875 l 2
 -0.6669921875 373.665039062 -1.6669921875 378.33203125 -1 384.999023438 c 0
 -0.3330078125 391.666015625 1.333984375 395.333007812 4.0009765625 396 c 0
 51.333984375 394 83.0009765625 393 99.0009765625 393 c 0
 114.333984375 393 145.333984375 394 192.000976562 396 c 0
 195.333984375 394.666992188 197.333984375 391.166992188 198.000976562 385.5 c 0
 198.66796875 379.833007812 197.000976562 375 193.000976562 371 c 2
 170.000976562 369 l 2
 156.66796875 365.666992188 149.66796875 362.166992188 149.000976562 358.5 c 0
 148.333984375 354.833007812 152.333984375 346.333007812 161.000976562 333 c 2
 209.000976562 264 l 2
 212.333984375 258 216.666992188 252.333007812 222 247 c 1
 226 249.666992188 245.333007812 277.666992188 280 331 c 0
 288.666992188 343 292.333984375 351.666992188 291.000976562 357 c 0
 289.66796875 362.333007812 283.334960938 366.333007812 272.001953125 369 c 2
 252.001953125 371 l 2
 248.668945312 374.333007812 247.668945312 379.166015625 249.001953125 385.499023438 c 0
 250.334960938 391.83203125 252.66796875 395.33203125 256.000976562 395.999023438 c 0
 287.333984375 393.999023438 314.333984375 392.999023438 337.000976562 392.999023438 c 0
 364.333984375 392.999023438 391.333984375 393.999023438 418.000976562 395.999023438 c 0
 422.000976562 393.999023438 424.333984375 390.33203125 425.000976562 384.999023438 c 0
 425.66796875 379.666015625 424.000976562 374.999023438 420.000976562 370.999023438 c 2
 397.000976562 368.999023438 l 1
 374.333984375 362.999023438 358.666992188 356.666015625 350 349.999023438 c 0
 333.333007812 336.666015625 302 298.666015625 256 235.999023438 c 0
 250 227.999023438 247.166992188 222.33203125 247.5 218.999023438 c 0
 247.833007812 215.666015625 251 208.999023438 257 198.999023438 c 0
211.999023438 148.998046875 m 1
 169.33203125 73.6650390625 146.663085938 5.99609375 143.99609375 -54.00390625 c 0
 142.663085938 -93.3369140625 150.330078125 -128.836914062 166.997070312 -160.50390625 c 0
 183.6640625 -192.170898438 203.6640625 -207.00390625 226.997070312 -205.00390625 c 0
 245.6640625 -202.336914062 262.1640625 -190.169921875 276.497070312 -168.502929688 c 0
 290.830078125 -146.8359375 297.997070312 -115.668945312 297.997070312 -75.001953125 c 0
 298.6640625 -30.3349609375 291.831054688 9.1650390625 277.498046875 43.498046875 c 0
 263.165039062 77.8310546875 241.33203125 112.998046875 211.999023438 148.998046875 c 1
EndSplineSet
EndChar

StartChar: asterisk
Encoding: 42 42 10
Width: 453
GlyphClass: 2
Flags: W
LayerCount: 2
Fore
SplineSet
198 -270 m 1
 198 -65 l 1
 248 -65 l 1
 248 -270 l 1
 198 -270 l 1
172 91 m 2
 87.998046875 294.002929688 l 2
 78.6650390625 318.669921875 70.33203125 336.669921875 62.9990234375 348.002929688 c 0
 55.666015625 359.3359375 43.9990234375 366.3359375 27.9990234375 369.002929688 c 2
 -0.0009765625 371.002929688 l 2
 -2.66796875 374.3359375 -3.66796875 379.168945312 -3.0009765625 385.501953125 c 0
 -2.333984375 391.834960938 -0.333984375 395.334960938 2.9990234375 396.001953125 c 0
 36.33203125 394.001953125 70.33203125 393.001953125 104.999023438 393.001953125 c 0
 122.33203125 393.001953125 151.999023438 394.001953125 193.999023438 396.001953125 c 0
 197.999023438 394.001953125 199.999023438 390.001953125 199.999023438 384.001953125 c 0
 199.999023438 378.001953125 198.33203125 373.668945312 194.999023438 371.001953125 c 2
 174.999023438 370.001953125 l 2
 160.33203125 367.334960938 151.83203125 363.66796875 149.499023438 359.000976562 c 0
 147.166015625 354.333984375 148.333007812 344.666992188 153 330 c 0
 173 269.333007812 198 205.666015625 228 138.999023438 c 0
 237.333007812 118.999023438 242.666015625 108.33203125 243.999023438 106.999023438 c 0
 247.999023438 108.999023438 254.33203125 121.666015625 262.999023438 144.999023438 c 0
 270.33203125 162.999023438 280.83203125 189.83203125 294.499023438 225.499023438 c 0
 308.166015625 261.166015625 316.666015625 282.999023438 319.999023438 290.999023438 c 0
 331.999023438 321.666015625 337.999023438 342.333007812 337.999023438 353 c 0
 337.999023438 361 331.999023438 366.333007812 319.999023438 369 c 2
 288.999023438 371 l 2
 286.33203125 374.333007812 285.33203125 378.833007812 285.999023438 384.5 c 0
 286.666015625 390.166992188 288.333007812 394 291 396 c 0
 330.333007812 394 358 393 374 393 c 0
 390 393 416 394 452 396 c 0
 456 394 458 390 458 384 c 0
 458 378 456.666992188 373.666992188 454 371 c 2
 431 370 l 2
 416.333007812 367.333007812 406 362.333007812 400 355 c 0
 394 347.666992188 380 323.333984375 358 282.000976562 c 0
 350.666992188 268.66796875 334 231.000976562 308 169.000976562 c 0
 282 107.000976562 268 73.66796875 266 69.0009765625 c 0
 249.333007812 29.66796875 238.333007812 2.66796875 233 -11.9990234375 c 0
 231 -14.666015625 227.666992188 -15.9990234375 223 -15.9990234375 c 0
 217 -15.9990234375 212.666992188 -14.666015625 210 -11.9990234375 c 0
 202.666992188 13.333984375 190 47.6669921875 172 91 c 2
EndSplineSet
EndChar

StartChar: plus
Encoding: 43 43 11
Width: 501
GlyphClass: 2
Flags: W
LayerCount: 2
Fore
SplineSet
248 407 m 0
 285.333007812 407 319.500976562 398.333007812 350.500976562 381 c 0
 381.500976562 363.666992188 406.000976562 339.333984375 424.000976562 308.000976562 c 0
 442.000976562 276.66796875 451.000976562 241.000976562 451.000976562 201.000976562 c 0
 451.000976562 138.333984375 431.333984375 86.6669921875 392.000976562 46 c 0
 352.66796875 5.3330078125 302.000976562 -15 240.000976562 -15 c 0
 182.000976562 -15 133.333984375 4.3330078125 94.0009765625 43 c 0
 54.66796875 81.6669921875 35.0009765625 131 35.0009765625 191 c 0
 35.0009765625 233 44.5009765625 270.166992188 63.5009765625 302.5 c 0
 82.5009765625 334.833007812 108.16796875 360.333007812 140.500976562 379 c 0
 172.833984375 397.666992188 208.666992188 407 248 407 c 0
369.000976562 223 m 1
 365.000976562 264.333007812 351.333984375 300.5 328.000976562 331.5 c 0
 304.66796875 362.5 274.000976562 378 236.000976562 378 c 0
 204.000976562 378 177.000976562 364.166992188 155.000976562 336.5 c 0
 133.000976562 308.833007812 120.66796875 271 118.000976562 223 c 1
 369.000976562 223 l 1
370.000976562 175 m 1
 116.000976562 175 l 1
 120.000976562 131.666992188 134.16796875 94.1669921875 158.500976562 62.5 c 0
 182.833984375 30.8330078125 213.333984375 15 250.000976562 15 c 0
 288.66796875 15 318.000976562 31 338.000976562 63 c 0
 358.000976562 95 368.66796875 132.333007812 370.000976562 175 c 1
EndSplineSet
EndChar

StartChar: comma
Encoding: 44 44 12
Width: 507
GlyphClass: 2
Flags: W
LayerCount: 2
Fore
SplineSet
270 224 m 0
 277.333007812 210.666992188 304.33203125 165.331054688 350.999023438 87.998046875 c 1
 355.666015625 88.6650390625 358.333007812 90.6650390625 359 93.998046875 c 0
 359.666992188 97.3310546875 360 107.998046875 360 125.998046875 c 2
 360 277.998046875 l 2
 360 315.331054688 358.166992188 338.498046875 354.5 347.498046875 c 0
 350.833007812 356.498046875 340 361.998046875 322 363.998046875 c 2
 300 366.998046875 l 2
 296.666992188 370.998046875 295.166992188 375.831054688 295.5 381.498046875 c 0
 295.833007812 387.165039062 298 390.665039062 302 391.998046875 c 0
 327.333007812 389.998046875 358.666015625 388.998046875 395.999023438 388.998046875 c 0
 428.666015625 388.998046875 458.333007812 389.998046875 485 391.998046875 c 0
 489 391.331054688 491.333007812 387.6640625 492 380.997070312 c 0
 492.666992188 374.330078125 491 369.663085938 487 366.99609375 c 2
 468 363.99609375 l 2
 450 361.99609375 439.166992188 356.49609375 435.5 347.49609375 c 0
 431.833007812 338.49609375 430 315.329101562 430 277.99609375 c 2
 430 104.99609375 l 2
 430 38.99609375 430.666992188 2.6630859375 432 -4.00390625 c 1
 414 -10.6708984375 390.333007812 -12.00390625 361 -8.00390625 c 1
 351 7.99609375 303.333007812 85.3291015625 218 223.99609375 c 0
 191.333007812 269.99609375 171 300.99609375 157 316.99609375 c 0
 154.333007812 316.99609375 153 306.329101562 153 284.99609375 c 2
 153 110.99609375 l 2
 153 84.3291015625 153.666992188 65.8291015625 155 55.49609375 c 0
 156.333007812 45.1630859375 159.5 37.99609375 164.5 33.99609375 c 0
 169.5 29.99609375 178.333007812 26.99609375 191 24.99609375 c 2
 209 21.99609375 l 2
 213 19.99609375 214.666992188 15.8291015625 214 9.49609375 c 0
 213.333007812 3.1630859375 211 -1.00390625 207 -3.00390625 c 0
 179 -1.00390625 148.333007812 -0.00390625 115 -0.00390625 c 0
 83.6669921875 -0.00390625 54 -1.00390625 26 -3.00390625 c 0
 22 -0.3369140625 19.6669921875 3.830078125 19 9.4970703125 c 0
 18.3330078125 15.1640625 20 19.3310546875 24 21.998046875 c 2
 45 24.998046875 l 2
 63 26.998046875 73.8330078125 32.498046875 77.5 41.498046875 c 0
 81.1669921875 50.498046875 83 73.6650390625 83 110.998046875 c 2
 83 283.998046875 l 2
 83 317.998046875 81 338.831054688 77 346.498046875 c 0
 73 354.165039062 62.6669921875 359.665039062 46 362.998046875 c 2
 25 366.998046875 l 2
 21.6669921875 368.998046875 20 372.831054688 20 378.498046875 c 0
 20 384.165039062 22 387.33203125 26 387.999023438 c 0
 86.6669921875 390.666015625 130 397.666015625 156 408.999023438 c 0
 162 407.666015625 164 405.333007812 162 402 c 0
 176.666992188 371.333007812 212.666992188 312 270 224 c 0
EndSplineSet
EndChar

StartChar: hyphen
Encoding: 45 45 13
Width: 210
GlyphClass: 2
Flags: W
LayerCount: 2
Fore
SplineSet
181 181 m 1
 10 181 l 1
 10 229 l 1
 181 229 l 1
 181 181 l 1
EndSplineSet
EndChar

StartChar: period
Encoding: 46 46 14
Width: 673
GlyphClass: 2
Flags: W
LayerCount: 2
Fore
SplineSet
89 329 m 1
 88.9931640625 322.004882812 l 1
 88.9931640625 336.004882812 87.9931640625 344.337890625 85.9931640625 347.004882812 c 0
 83.9931640625 349.671875 77.9931640625 351.004882812 67.9931640625 351.004882812 c 2
 39.9931640625 351.004882812 l 2
 36.66015625 353.004882812 34.8271484375 356.171875 34.494140625 360.504882812 c 0
 34.1611328125 364.837890625 34.994140625 368.670898438 36.994140625 372.00390625 c 0
 66.994140625 381.336914062 88.3271484375 391.669921875 100.994140625 403.002929688 c 0
 121.661132812 421.669921875 135.661132812 462.669921875 142.994140625 526.002929688 c 1
 152.994140625 530.002929688 159.994140625 528.3359375 163.994140625 521.002929688 c 1
 163.994140625 412.002929688 l 2
 163.994140625 402.669921875 164.827148438 397.169921875 166.494140625 395.502929688 c 0
 168.161132812 393.8359375 173.328125 393.002929688 181.995117188 393.002929688 c 2
 272.995117188 393.002929688 l 1
 279.662109375 389.002929688 282.662109375 381.669921875 281.995117188 371.002929688 c 0
 281.328125 360.3359375 278.661132812 353.668945312 273.994140625 351.001953125 c 2
 180.994140625 351.001953125 l 2
 174.327148438 351.001953125 169.994140625 350.668945312 167.994140625 350.001953125 c 0
 165.994140625 349.334960938 164.661132812 347.66796875 163.994140625 345.000976562 c 0
 163.327148438 342.333984375 162.994140625 337.333984375 162.994140625 330.000976562 c 2
 162.994140625 169.000976562 l 2
 162.994140625 132.333984375 166.827148438 104.833984375 174.494140625 86.5009765625 c 0
 182.161132812 68.16796875 202.661132812 52.66796875 235.994140625 40.0009765625 c 0
 257.327148438 32.66796875 283.494140625 27.16796875 314.494140625 23.5009765625 c 0
 345.494140625 19.833984375 372.661132812 18.6669921875 395.994140625 20 c 1
 369.994140625 44 357.327148438 70.6669921875 357.994140625 100 c 0
 359.994140625 131.333007812 370.161132812 157.333007812 388.494140625 178 c 0
 406.827148438 198.666992188 432.327148438 217.333984375 464.994140625 234.000976562 c 0
 490.327148438 248.000976562 509.994140625 260.833984375 523.994140625 272.500976562 c 0
 537.994140625 284.16796875 544.994140625 299.000976562 544.994140625 317.000976562 c 0
 546.327148438 335.000976562 541.327148438 349.66796875 529.994140625 361.000976562 c 0
 518.661132812 372.333984375 503.328125 378.000976562 483.995117188 378.000976562 c 0
 448.662109375 378.000976562 415.329101562 354.000976562 383.99609375 306.000976562 c 0
 381.329101562 302.000976562 377.162109375 300.66796875 371.495117188 302.000976562 c 0
 365.828125 303.333984375 361.995117188 305.666992188 359.995117188 309 c 0
 364.662109375 321 370.329101562 336.666992188 376.99609375 356 c 0
 383.663085938 375.333007812 387.330078125 386 387.997070312 388 c 0
 400.6640625 400.666992188 430.331054688 407 476.998046875 407 c 0
 500.998046875 407 523.498046875 402.5 544.498046875 393.5 c 0
 565.498046875 384.5 581.498046875 371.333007812 592.498046875 354 c 0
 603.498046875 336.666992188 608.665039062 316.333984375 607.998046875 293.000976562 c 0
 607.331054688 267.000976562 598.331054688 244.66796875 580.998046875 226.000976562 c 0
 563.665039062 207.333984375 538.33203125 188.666992188 504.999023438 170 c 0
 479.666015625 156.666992188 459.999023438 143.5 445.999023438 130.5 c 0
 431.999023438 117.5 424.666015625 101 423.999023438 81 c 0
 423.33203125 60.3330078125 429.33203125 45 441.999023438 35 c 0
 454.666015625 25 470.333007812 20 489 20 c 0
 514.333007812 20 536.333007812 28.3330078125 555 45 c 0
 573.666992188 61.6669921875 595.333984375 86.6669921875 620.000976562 120 c 0
 623.333984375 122.666992188 627.333984375 123.666992188 632.000976562 123 c 0
 636.66796875 122.333007812 640.000976562 120.333007812 642.000976562 117 c 0
 640.000976562 103 635.66796875 85.5 629.000976562 64.5 c 0
 622.333984375 43.5 615.666992188 28 609 18 c 1
 585 1.3330078125 543 -9 483 -13 c 0
 418.333007812 -17 359.666015625 -17 306.999023438 -13 c 0
 298.33203125 -12.3330078125 291.33203125 -12 285.999023438 -12 c 0
 280.666015625 -12 263.333007812 -9.6669921875 234 -5 c 0
 186.666992188 3.6669921875 150.666992188 19.5 126 42.5 c 0
 101.333007812 65.5 89 100 89 146 c 2
 89 329 l 1
EndSplineSet
EndChar

StartChar: slash
Encoding: 47 47 15
Width: 309
GlyphClass: 2
Flags: W
LayerCount: 2
Fore
SplineSet
267 685 m 1
 59 -254 l 1
 1 -254 l 1
 209 685 l 1
 267 685 l 1
EndSplineSet
EndChar

StartChar: zero
Encoding: 48 48 16
Width: 621
GlyphClass: 2
Flags: W
LayerCount: 2
Fore
SplineSet
45 326 m 0
 45 378.666992188 54.66796875 428.333984375 74.0009765625 475.000976562 c 0
 93.333984375 521.66796875 119.333984375 559.66796875 152.000976562 589.000976562 c 0
 213.333984375 645.66796875 290.000976562 674.000976562 382.000976562 674.000976562 c 0
 436.000976562 674.000976562 486.000976562 666.000976562 532.000976562 650.000976562 c 0
 545.333984375 647.333984375 553.333984375 646.333984375 556.000976562 647.000976562 c 1
 558.000976562 601.66796875 562.000976562 552.66796875 568.000976562 500.000976562 c 0
 566.000976562 496.66796875 562.500976562 494.66796875 557.500976562 494.000976562 c 0
 552.500976562 493.333984375 548.333984375 494.666992188 545.000976562 498 c 0
 526.333984375 595.333007812 468.333984375 644 371.000976562 644 c 0
 301.66796875 644 244.16796875 618 198.500976562 566 c 0
 152.833984375 514 130.000976562 438.666992188 130.000976562 340 c 0
 130.000976562 238 154.000976562 158.333007812 202.000976562 101 c 0
 250.000976562 43.6669921875 310.333984375 15 383.000976562 15 c 0
 431.66796875 15 470.334960938 29.3330078125 499.001953125 58 c 0
 527.668945312 86.6669921875 548.001953125 120 560.001953125 158 c 0
 562.668945312 160.666992188 566.668945312 161.666992188 572.001953125 161 c 0
 577.334960938 160.333007812 581.001953125 157.666015625 583.001953125 152.999023438 c 0
 579.668945312 127.666015625 573.501953125 100.833007812 564.501953125 72.5 c 0
 555.501953125 44.1669921875 548.001953125 25.6669921875 542.001953125 17 c 1
 532.668945312 15 522.668945312 11.6669921875 512.001953125 7 c 0
 475.334960938 -8.3330078125 430.66796875 -16 378.000976562 -16 c 0
 293.333984375 -16 222.666992188 6 166 50 c 0
 85.3330078125 116.666992188 45 208.666992188 45 326 c 0
EndSplineSet
EndChar

StartChar: one
Encoding: 49 49 17
Width: 483
GlyphClass: 2
Flags: W
LayerCount: 2
Fore
SplineSet
247 -270 m 1
 247 -65 l 1
 297 -65 l 1
 297 -270 l 1
 247 -270 l 1
375 298 m 2
 374.999023438 106.000976562 l 2
 374.999023438 74.0009765625 376.166015625 53.333984375 378.499023438 44.0009765625 c 0
 380.83203125 34.66796875 387.33203125 29.66796875 397.999023438 29.0009765625 c 2
 433.999023438 26.0009765625 l 2
 437.999023438 26.0009765625 439.999023438 22.5009765625 439.999023438 15.5009765625 c 0
 439.999023438 8.5009765625 437.999023438 4.333984375 433.999023438 3.0009765625 c 0
 382.666015625 -0.33203125 326.333007812 -1.9990234375 265 -1.9990234375 c 0
 207.666992188 -1.9990234375 161.833984375 5.5009765625 127.500976562 20.5009765625 c 0
 93.16796875 35.5009765625 76.0009765625 64.0009765625 76.0009765625 106.000976562 c 0
 76.0009765625 150.000976562 105.000976562 182.66796875 163.000976562 204.000976562 c 0
 167.000976562 206.66796875 167.000976562 210.66796875 163.000976562 216.000976562 c 0
 132.333984375 268.000976562 110.500976562 302.500976562 97.5009765625 319.500976562 c 0
 84.5009765625 336.500976562 68.66796875 350.333984375 50.0009765625 361.000976562 c 0
 31.333984375 372.333984375 10.6669921875 378.666992188 -12 380 c 1
 -16.6669921875 384.666992188 -16.6669921875 391 -12 399 c 1
 -4 401.666992188 9.6669921875 403 29 403 c 0
 58.3330078125 403 83.166015625 398 103.499023438 388 c 0
 123.83203125 378 144.33203125 360.333007812 164.999023438 335 c 0
 176.33203125 322.333007812 188.165039062 306.5 200.498046875 287.5 c 0
 212.831054688 268.5 224.331054688 250.333007812 234.998046875 233 c 0
 242.331054688 223.666992188 255.331054688 219 273.998046875 219 c 0
 286.665039062 219 294.498046875 220 297.498046875 222 c 0
 300.498046875 224 301.998046875 227.666992188 301.998046875 233 c 2
 301.998046875 298 l 2
 301.998046875 329.333007812 299.665039062 348.666015625 294.998046875 355.999023438 c 0
 290.331054688 363.33203125 277.6640625 367.999023438 256.997070312 369.999023438 c 2
 225.997070312 372.999023438 l 2
 222.6640625 376.33203125 221.331054688 380.83203125 221.998046875 386.499023438 c 0
 222.665039062 392.166015625 224.33203125 395.333007812 226.999023438 396 c 0
 276.33203125 394 313.33203125 393 337.999023438 393 c 0
 364.666015625 393 398.999023438 394 440.999023438 396 c 0
 446.33203125 394.666992188 449.33203125 391 449.999023438 385 c 0
 450.666015625 379 448.333007812 375 443 373 c 2
 421 370 l 2
 404.333007812 366.666992188 393.5 363.5 388.5 360.5 c 0
 383.5 357.5 380 352.166992188 378 344.5 c 0
 376 336.833007812 375 321.333007812 375 298 c 2
302.999023438 51.0009765625 m 2
 302.998046875 168.999023438 l 2
 302.998046875 179.666015625 300.665039062 185.833007812 295.998046875 187.5 c 0
 291.331054688 189.166992188 276.998046875 190 252.998046875 190 c 0
 220.998046875 190 196.998046875 184 180.998046875 172 c 0
 164.998046875 160 156.998046875 138.666992188 156.998046875 108 c 0
 156.998046875 84 165.831054688 64.5 183.498046875 49.5 c 0
 201.165039062 34.5 226.33203125 27 258.999023438 27 c 0
 276.999023438 27 288.83203125 28.3330078125 294.499023438 31 c 0
 300.166015625 33.6669921875 302.999023438 40.333984375 302.999023438 51.0009765625 c 2
EndSplineSet
EndChar

StartChar: two
Encoding: 50 50 18
Width: 780
GlyphClass: 2
Flags: W
LayerCount: 2
Fore
SplineSet
396 -97 m 0
 420.666992188 -97 441.330078125 -105.000976562 457.997070312 -121.000976562 c 0
 474.6640625 -137.000976562 482.997070312 -158.000976562 482.997070312 -184.000976562 c 0
 482.997070312 -208.000976562 474.330078125 -228.333984375 456.997070312 -245.000976562 c 0
 439.6640625 -261.66796875 419.331054688 -270.000976562 395.998046875 -270.000976562 c 0
 372.665039062 -270.000976562 352.33203125 -261.333984375 334.999023438 -244.000976562 c 0
 317.666015625 -226.66796875 308.999023438 -206.66796875 308.999023438 -184.000976562 c 0
 308.999023438 -159.333984375 317.33203125 -138.666992188 333.999023438 -122 c 0
 350.666015625 -105.333007812 371.333007812 -97 396 -97 c 0
395.99609375 -125.000976562 m 0
 379.329101562 -125.000976562 365.329101562 -130.66796875 353.99609375 -142.000976562 c 0
 342.663085938 -153.333984375 336.99609375 -167.333984375 336.99609375 -184.000976562 c 0
 336.99609375 -199.333984375 342.99609375 -213.000976562 354.99609375 -225.000976562 c 0
 366.99609375 -237.000976562 380.663085938 -243.000976562 395.99609375 -243.000976562 c 0
 411.329101562 -243.000976562 424.99609375 -237.333984375 436.99609375 -226.000976562 c 0
 448.99609375 -214.66796875 454.99609375 -200.66796875 454.99609375 -184.000976562 c 0
 454.99609375 -166.000976562 449.329101562 -151.66796875 437.99609375 -141.000976562 c 0
 426.663085938 -130.333984375 412.663085938 -125.000976562 395.99609375 -125.000976562 c 0
534.99609375 348.999023438 m 0
 521.663085938 338.33203125 507.990234375 312.334960938 493.990234375 271.001953125 c 0
 491.323242188 269.001953125 487.15625 268.334960938 481.489257812 269.001953125 c 0
 475.822265625 269.668945312 470.989257812 271.668945312 466.989257812 275.001953125 c 1
 478.989257812 313.001953125 490.322265625 365.001953125 500.989257812 431.001953125 c 1
 507.65625 433.668945312 514.323242188 433.668945312 520.990234375 431.001953125 c 1
 522.990234375 413.001953125 527.657226562 402.168945312 534.990234375 398.501953125 c 0
 542.323242188 394.834960938 560.65625 393.001953125 589.989257812 393.001953125 c 2
 650.989257812 393.001953125 l 2
 681.65625 393.001953125 701.989257812 394.001953125 711.989257812 396.001953125 c 0
 715.989257812 394.001953125 717.65625 390.668945312 716.989257812 386.001953125 c 0
 696.322265625 357.334960938 671.655273438 319.334960938 642.98828125 272.001953125 c 2
 519.98828125 69.001953125 l 2
 509.98828125 51.6689453125 505.98828125 40.6689453125 507.98828125 36.001953125 c 0
 509.98828125 31.3349609375 520.321289062 29.001953125 538.98828125 29.001953125 c 2
 572.98828125 29.001953125 l 2
 598.321289062 29.001953125 618.321289062 30.6689453125 632.98828125 34.001953125 c 0
 647.655273438 37.3349609375 661.322265625 46.001953125 673.989257812 60.001953125 c 0
 691.322265625 77.3349609375 703.989257812 96.66796875 711.989257812 118.000976562 c 0
 716.65625 120.66796875 721.323242188 121.16796875 725.990234375 119.500976562 c 0
 730.657226562 117.833984375 733.32421875 115.000976562 733.991210938 111.000976562 c 0
 734.658203125 97.0009765625 732.491210938 80.833984375 727.491210938 62.5009765625 c 0
 722.491210938 44.16796875 717.658203125 24.66796875 712.991210938 4.0009765625 c 0
 708.32421875 -16.666015625 705.991210938 -36.9990234375 705.991210938 -56.9990234375 c 0
 704.658203125 -160.999023438 716.991210938 -217.33203125 742.991210938 -225.999023438 c 0
 765.658203125 -233.33203125 780.825195312 -233.999023438 788.4921875 -227.999023438 c 0
 796.159179688 -221.999023438 800.326171875 -210.666015625 800.993164062 -193.999023438 c 0
 801.66015625 -177.33203125 802.66015625 -166.999023438 803.993164062 -162.999023438 c 0
 805.993164062 -156.999023438 811.16015625 -152.83203125 819.493164062 -150.499023438 c 0
 827.826171875 -148.166015625 836.159179688 -148.499023438 844.4921875 -151.499023438 c 0
 852.825195312 -154.499023438 858.325195312 -159.999023438 860.9921875 -167.999023438 c 0
 869.659179688 -191.999023438 866.326171875 -211.666015625 850.993164062 -226.999023438 c 0
 808.993164062 -266.33203125 764.993164062 -277.33203125 718.993164062 -259.999023438 c 0
 672.993164062 -242.666015625 649.993164062 -189.666015625 649.993164062 -100.999023438 c 2
 650.993164062 0.0009765625 l 1
 505.993164062 0.0009765625 l 2
 481.326171875 0.0009765625 459.659179688 -1.33203125 440.9921875 -3.9990234375 c 0
 437.659179688 -4.666015625 424.4921875 -6.8330078125 401.4921875 -10.5 c 0
 378.4921875 -14.1669921875 365.659179688 -16 362.9921875 -16 c 0
 355.659179688 -16 351.9921875 -13.3330078125 351.9921875 -8 c 2
 351.9921875 9 l 2
 351.9921875 21.6669921875 351.325195312 29 349.9921875 31 c 2
 345.9921875 31 l 1
 318.659179688 13.6669921875 296.659179688 1.6669921875 279.9921875 -5 c 0
 263.325195312 -11.6669921875 243.325195312 -15 219.9921875 -15 c 0
 165.325195312 -15 120.825195312 3.8330078125 86.4921875 41.5 c 0
 52.1591796875 79.1669921875 34.9921875 124.333984375 34.9921875 177.000976562 c 0
 34.9921875 245.66796875 57.9921875 301.16796875 103.9921875 343.500976562 c 0
 149.9921875 385.833984375 207.659179688 407.000976562 276.9921875 407.000976562 c 0
 304.9921875 407.000976562 327.325195312 404.000976562 343.9921875 398.000976562 c 0
 347.9921875 398.000976562 349.9921875 402.66796875 349.9921875 412.000976562 c 2
 349.9921875 600.000976562 l 2
 349.9921875 620.66796875 345.659179688 633.334960938 336.9921875 638.001953125 c 0
 328.325195312 642.668945312 311.9921875 645.668945312 287.9921875 647.001953125 c 2
 269.9921875 649.001953125 l 2
 267.9921875 652.334960938 266.9921875 656.16796875 266.9921875 660.500976562 c 0
 266.9921875 664.833984375 268.325195312 667.666992188 270.9921875 669 c 0
 316.325195312 684.333007812 362.9921875 704.666015625 410.9921875 729.999023438 c 1
 424.9921875 727.33203125 431.9921875 724.33203125 431.9921875 720.999023438 c 2
 422.9921875 645.999023438 l 1
 422.9921875 124.999023438 l 2
 422.9921875 80.33203125 424.325195312 53.83203125 426.9921875 45.4990234375 c 0
 429.659179688 37.166015625 435.326171875 38.9990234375 443.993164062 50.9990234375 c 0
 456.66015625 72.9990234375 464.827148438 87.666015625 468.494140625 94.9990234375 c 0
 472.161132812 102.33203125 476.828125 111.33203125 482.495117188 121.999023438 c 0
 488.162109375 132.666015625 493.329101562 142.333007812 497.99609375 151 c 2
 600.99609375 333 l 2
 608.329101562 346.333007812 610.99609375 355 608.99609375 359 c 0
 606.99609375 363 601.329101562 364.333007812 591.99609375 363 c 0
 563.99609375 362.333007812 544.99609375 357.666015625 534.99609375 348.999023438 c 0
351.990234375 99.001953125 m 2
 351.98828125 295.001953125 l 2
 351.98828125 308.334960938 347.655273438 321.334960938 338.98828125 334.001953125 c 0
 318.98828125 362.001953125 290.98828125 376.001953125 254.98828125 376.001953125 c 0
 211.655273438 376.001953125 177.822265625 359.834960938 153.489257812 327.501953125 c 0
 129.15625 295.168945312 116.989257812 256.001953125 116.989257812 210.001953125 c 0
 116.989257812 162.001953125 130.322265625 120.668945312 156.989257812 86.001953125 c 0
 183.65625 51.3349609375 219.989257812 34.001953125 265.989257812 34.001953125 c 0
 298.65625 34.001953125 324.323242188 43.3349609375 342.990234375 62.001953125 c 0
 348.990234375 68.001953125 351.990234375 80.3349609375 351.990234375 99.001953125 c 2
EndSplineSet
EndChar

StartChar: three
Encoding: 51 51 19
Width: 447
GlyphClass: 2
Flags: W
LayerCount: 2
Fore
SplineSet
186 578 m 2
 266.999023438 541.999023438 l 2
 284.999023438 534.666015625 298.999023438 535.166015625 308.999023438 543.499023438 c 0
 318.999023438 551.83203125 330.666015625 567.999023438 343.999023438 591.999023438 c 0
 345.999023438 595.999023438 349.166015625 597.666015625 353.499023438 596.999023438 c 0
 357.83203125 596.33203125 360.33203125 593.33203125 360.999023438 587.999023438 c 0
 362.999023438 555.33203125 354.666015625 528.33203125 335.999023438 506.999023438 c 0
 324.666015625 494.33203125 310.666015625 486.999023438 293.999023438 484.999023438 c 0
 277.33203125 482.999023438 261.33203125 484.666015625 245.999023438 489.999023438 c 2
 166.999023438 522.999023438 l 2
 139.666015625 534.999023438 111.333007812 518.666015625 82 473.999023438 c 0
 80 469.999023438 76.8330078125 468.999023438 72.5 470.999023438 c 0
 68.1669921875 472.999023438 65.6669921875 475.666015625 65 478.999023438 c 0
 62.3330078125 500.999023438 75 527.33203125 103 557.999023438 c 0
 111 568.666015625 123.166992188 576.333007812 139.5 581 c 0
 155.833007812 585.666992188 171.333007812 584.666992188 186 578 c 2
340.999023438 297.999023438 m 2
 340.999023438 94.99609375 l 2
 340.999023438 71.6630859375 341.83203125 55.99609375 343.499023438 47.99609375 c 0
 345.166015625 39.99609375 348.666015625 34.1630859375 353.999023438 30.49609375 c 0
 359.33203125 26.8291015625 368.665039062 23.99609375 381.998046875 21.99609375 c 2
 402.998046875 18.99609375 l 2
 406.331054688 18.3291015625 407.998046875 14.99609375 407.998046875 8.99609375 c 0
 407.998046875 2.99609375 405.998046875 -1.00390625 401.998046875 -3.00390625 c 0
 352.665039062 -1.6708984375 319.665039062 -1.00390625 302.998046875 -1.00390625 c 2
 143.998046875 -1.00390625 l 2
 95.3310546875 -1.00390625 64.998046875 -1.6708984375 52.998046875 -3.00390625 c 1
 50.3310546875 28.99609375 46.998046875 59.6630859375 42.998046875 88.99609375 c 0
 44.998046875 92.99609375 48.998046875 94.99609375 54.998046875 94.99609375 c 0
 60.998046875 94.99609375 65.3310546875 93.6630859375 67.998046875 90.99609375 c 0
 71.3310546875 77.6630859375 76.998046875 63.6630859375 84.998046875 48.99609375 c 0
 95.6650390625 34.99609375 123.33203125 27.99609375 167.999023438 27.99609375 c 2
 232.999023438 27.99609375 l 2
 249.666015625 27.99609375 259.499023438 29.3291015625 262.499023438 31.99609375 c 0
 265.499023438 34.6630859375 266.999023438 42.99609375 266.999023438 56.99609375 c 2
 266.999023438 152.99609375 l 2
 266.999023438 161.663085938 266.166015625 166.99609375 264.499023438 168.99609375 c 0
 262.83203125 170.99609375 257.665039062 171.99609375 248.998046875 171.99609375 c 2
 202.998046875 171.99609375 l 2
 178.331054688 171.99609375 162.6640625 169.829101562 155.997070312 165.49609375 c 0
 149.330078125 161.163085938 143.663085938 151.663085938 138.99609375 136.99609375 c 2
 134.99609375 121.99609375 l 2
 132.99609375 118.663085938 128.99609375 117.330078125 122.99609375 117.997070312 c 0
 116.99609375 118.6640625 112.663085938 120.331054688 109.99609375 122.998046875 c 0
 111.329101562 140.331054688 111.99609375 161.331054688 111.99609375 185.998046875 c 0
 111.99609375 211.998046875 111.329101562 233.665039062 109.99609375 250.998046875 c 0
 112.663085938 255.665039062 116.99609375 258.33203125 122.99609375 258.999023438 c 0
 128.99609375 259.666015625 132.99609375 257.666015625 134.99609375 252.999023438 c 2
 138.99609375 239.999023438 l 2
 142.99609375 224.666015625 148.829101562 214.999023438 156.49609375 210.999023438 c 0
 164.163085938 206.999023438 179.663085938 204.999023438 202.99609375 204.999023438 c 2
 248.99609375 204.999023438 l 2
 257.663085938 204.999023438 262.830078125 205.999023438 264.497070312 207.999023438 c 0
 266.1640625 209.999023438 266.997070312 215.666015625 266.997070312 224.999023438 c 2
 266.997070312 285.999023438 l 2
 266.997070312 321.999023438 263.6640625 343.666015625 256.997070312 350.999023438 c 0
 248.997070312 359.666015625 221.6640625 363.999023438 174.997070312 363.999023438 c 0
 138.330078125 363.999023438 111.330078125 359.999023438 93.9970703125 351.999023438 c 0
 76.6640625 343.999023438 61.6640625 322.999023438 48.9970703125 288.999023438 c 0
 44.9970703125 286.33203125 40.330078125 285.665039062 34.9970703125 286.998046875 c 0
 29.6640625 288.331054688 25.9970703125 290.6640625 23.9970703125 293.997070312 c 0
 29.9970703125 339.330078125 39.6640625 372.997070312 52.9970703125 394.997070312 c 1
 114.330078125 392.997070312 169.330078125 391.997070312 217.997070312 391.997070312 c 2
 302.997070312 391.997070312 l 2
 325.6640625 391.997070312 364.331054688 392.997070312 418.998046875 394.997070312 c 0
 422.331054688 394.330078125 424.331054688 390.997070312 424.998046875 384.997070312 c 0
 425.665039062 378.997070312 424.33203125 374.6640625 420.999023438 371.997070312 c 2
 386.999023438 368.997070312 l 2
 372.999023438 367.6640625 362.83203125 365.331054688 356.499023438 361.998046875 c 0
 350.166015625 358.665039062 345.999023438 352.83203125 343.999023438 344.499023438 c 0
 341.999023438 336.166015625 340.999023438 320.666015625 340.999023438 297.999023438 c 2
EndSplineSet
EndChar

StartChar: four
Encoding: 52 52 20
Width: 409
GlyphClass: 2
Flags: W
LayerCount: 2
Fore
SplineSet
158 26 m 0
 167.333007812 23.3330078125 179.001953125 22.666015625 193.001953125 23.9990234375 c 0
 217.001953125 25.9990234375 236.668945312 34.166015625 252.001953125 48.4990234375 c 0
 267.334960938 62.83203125 275.001953125 80.33203125 275.001953125 100.999023438 c 0
 274.334960938 120.33203125 268.001953125 138.499023438 256.001953125 155.499023438 c 0
 244.001953125 172.499023438 231.334960938 180.999023438 218.001953125 180.999023438 c 0
 211.334960938 181.666015625 204.334960938 180.666015625 197.001953125 177.999023438 c 0
 189.668945312 175.33203125 179.3359375 173.999023438 166.002929688 173.999023438 c 0
 155.3359375 173.999023438 148.168945312 178.83203125 144.501953125 188.499023438 c 0
 140.834960938 198.166015625 143.16796875 206.833007812 151.500976562 214.5 c 0
 159.833984375 222.166992188 172.666992188 224 190 220 c 0
 222.666992188 218 246.5 224.666992188 261.5 240 c 0
 276.5 255.333007812 282.333007812 275.333007812 279 300 c 0
 273 328.666992188 258.833007812 349.333984375 236.5 362.000976562 c 0
 214.166992188 374.66796875 188.666992188 379.334960938 160 376.001953125 c 0
 148 375.334960938 136 370.16796875 124 360.500976562 c 0
 112 350.833984375 105.666992188 342.666992188 105 336 c 0
 101.666992188 314 89.333984375 303 68.0009765625 303 c 0
 59.333984375 303 53.0009765625 306 49.0009765625 312 c 0
 45.0009765625 318 43.0009765625 324.666992188 43.0009765625 332 c 0
 43.0009765625 344.666992188 52.66796875 357.666992188 72.0009765625 371 c 0
 91.333984375 384.333007812 110.666992188 393.666015625 130 398.999023438 c 0
 146 404.33203125 167.333007812 407.33203125 194 407.999023438 c 0
 220.666992188 408.666015625 247.333984375 402.999023438 274.000976562 390.999023438 c 0
 296.66796875 377.666015625 312.66796875 364.999023438 322.000976562 352.999023438 c 0
 331.333984375 340.999023438 337.333984375 323.999023438 340.000976562 301.999023438 c 0
 344.000976562 279.33203125 335.16796875 258.999023438 313.500976562 240.999023438 c 0
 291.833984375 222.999023438 266.000976562 211.33203125 236.000976562 205.999023438 c 1
 314.000976562 192.666015625 354.000976562 154.999023438 356.000976562 92.9990234375 c 0
 357.333984375 63.666015625 345.166992188 39.4990234375 319.5 20.4990234375 c 0
 293.833007812 1.4990234375 260.333007812 -9.66796875 219 -13.0009765625 c 0
 177.666992188 -15.66796875 147.333984375 -13.66796875 128.000976562 -7.0009765625 c 0
 70.0009765625 11.666015625 40.0009765625 32.3330078125 38.0009765625 55 c 0
 36.66796875 61 38.16796875 67.8330078125 42.5009765625 75.5 c 0
 46.833984375 83.1669921875 53.0009765625 87 61.0009765625 87 c 0
 78.333984375 89 91.333984375 80 100.000976562 60 c 0
 101.333984375 52 107.666992188 44.8330078125 119 38.5 c 0
 130.333007812 32.1669921875 143.333007812 28 158 26 c 0
171.001953125 578 m 2
 252.000976562 541.999023438 l 2
 270.000976562 534.666015625 284.000976562 535.166015625 294.000976562 543.499023438 c 0
 304.000976562 551.83203125 315.66796875 567.999023438 329.000976562 591.999023438 c 0
 331.000976562 595.999023438 334.16796875 597.666015625 338.500976562 596.999023438 c 0
 342.833984375 596.33203125 345.333984375 593.33203125 346.000976562 587.999023438 c 0
 348.000976562 555.33203125 339.66796875 528.33203125 321.000976562 506.999023438 c 0
 309.66796875 494.33203125 295.66796875 486.999023438 279.000976562 484.999023438 c 0
 262.333984375 482.999023438 246.333984375 484.666015625 231.000976562 489.999023438 c 2
 152.000976562 522.999023438 l 2
 124.66796875 534.999023438 96.3349609375 518.666015625 67.001953125 473.999023438 c 0
 65.001953125 469.999023438 61.8349609375 468.999023438 57.501953125 470.999023438 c 0
 53.1689453125 472.999023438 50.6689453125 475.666015625 50.001953125 478.999023438 c 0
 47.3349609375 500.999023438 60.001953125 527.33203125 88.001953125 557.999023438 c 0
 96.001953125 568.666015625 108.168945312 576.333007812 124.501953125 581 c 0
 140.834960938 585.666992188 156.334960938 584.666992188 171.001953125 578 c 2
EndSplineSet
EndChar

StartChar: seven
Encoding: 55 55 21
Width: 357
GlyphClass: 2
Flags: W
LayerCount: 2
Fore
SplineSet
190 398 m 1
 199.998046875 269.000976562 l 1
 324.998046875 331.000976562 l 2
 329.665039062 331.000976562 333.33203125 328.66796875 335.999023438 324.000976562 c 0
 338.666015625 319.333984375 338.999023438 314.666992188 336.999023438 310 c 2
 221.999023438 230 l 1
 335.999023438 152 l 2
 337.999023438 148.666992188 337.83203125 144.666992188 335.499023438 140 c 0
 333.166015625 135.333007812 329.333007812 132.333007812 324 131 c 2
 200 195 l 1
 190 66 l 2
 187.333007812 63.3330078125 183.333007812 62 178 62 c 0
 172.666992188 62 168.666992188 63.3330078125 166 66 c 2
 155 195 l 1
 31 131 l 2
 27 132.333007812 23.6669921875 135 21 139 c 0
 18.3330078125 143 17.666015625 147.333007812 18.9990234375 152 c 2
 132.999023438 230 l 1
 17.9990234375 310 l 1
 16.666015625 316 17.3330078125 321 20 325 c 0
 22.6669921875 329 26 331 30 331 c 2
 155 269 l 1
 166 398 l 1
 173.333007812 405.333007812 181.333007812 405.333007812 190 398 c 1
EndSplineSet
EndChar

StartChar: eight
Encoding: 56 56 22
Width: 392
GlyphClass: 2
Flags: W
LayerCount: 2
Fore
SplineSet
203 642 m 1
 203 495 l 1
 234 484 l 2
 304.666992188 456.666992188 341.666992188 422.333984375 345 381.000976562 c 0
 349 351.000976562 338.333007812 326.000976562 313 306.000976562 c 0
 287.666992188 286.000976562 253.333984375 274.000976562 210.000976562 270.000976562 c 1
 203.000976562 270.000976562 l 1
 203.000976562 206.000976562 l 1
 187.66796875 202.66796875 176.000976562 202.66796875 168.000976562 206.000976562 c 1
 168.000976562 269.000976562 l 1
 165.000976562 269.000976562 l 2
 145.000976562 271.000976562 128.16796875 274.000976562 114.500976562 278.000976562 c 0
 100.833984375 282.000976562 90.833984375 285.500976562 84.5009765625 288.500976562 c 0
 78.16796875 291.500976562 71.66796875 294.66796875 65.0009765625 298.000976562 c 0
 48.333984375 311.333984375 38.333984375 337.666992188 35.0009765625 377 c 0
 36.333984375 379 38.6669921875 380.333007812 42 381 c 0
 45.3330078125 381.666992188 48.666015625 380.666992188 51.9990234375 378 c 0
 78.666015625 326.666992188 116.333007812 300 165 298 c 2
 168 298 l 1
 168 459 l 1
 138 469 l 2
 76 492.333007812 43 524.333007812 39 565 c 0
 37 582.333007812 41 598.333007812 51 613 c 0
 61 627.666992188 76.3330078125 639.833984375 97 649.500976562 c 0
 117.666992188 659.16796875 140.333984375 665.334960938 165.000976562 668.001953125 c 2
 168.000976562 668.001953125 l 1
 168.000976562 721.001953125 l 1
 186.000976562 727.668945312 197.66796875 727.668945312 203.000976562 721.001953125 c 1
 203.000976562 668.001953125 l 1
 210.000976562 668.001953125 l 2
 228.000976562 666.001953125 244.16796875 662.834960938 258.500976562 658.501953125 c 0
 272.833984375 654.168945312 282.666992188 651.668945312 288 651.001953125 c 0
 291.333007812 647.001953125 296 636.668945312 302 620.001953125 c 0
 308 603.334960938 311.333007812 591.001953125 312 583.001953125 c 0
 312 582.334960938 310.166992188 581.66796875 306.5 581.000976562 c 0
 302.833007812 580.333984375 299 580.666992188 295 582 c 0
 281.666992188 602 270 617 260 627 c 0
 250 637 232.333007812 642 207 642 c 2
 203 642 l 1
168 639 m 1
 141.333007812 635.666992188 121.499023438 628.166992188 108.499023438 616.5 c 0
 95.4990234375 604.833007812 89.666015625 592.333007812 90.9990234375 579 c 0
 93.666015625 551.666992188 119.333007812 528 168 508 c 1
 168 639 l 1
202.999023438 299 m 1
 263.666015625 306.333007812 292.333007812 327 289 361 c 0
 286.333007812 391 257.666015625 418.666992188 202.999023438 444 c 1
 202.999023438 299 l 1
EndSplineSet
EndChar

StartChar: nine
Encoding: 57 57 23
Width: 564
GlyphClass: 2
Flags: W
LayerCount: 2
Fore
SplineSet
368 366 m 1
 394.666992188 346.666992188 415.999023438 323.166992188 431.999023438 295.5 c 0
 447.999023438 267.833007812 457.33203125 236.333007812 459.999023438 201 c 0
 464.666015625 139.666992188 446.666015625 88.333984375 405.999023438 47.0009765625 c 0
 365.33203125 5.66796875 313.33203125 -14.9990234375 249.999023438 -14.9990234375 c 0
 188.666015625 -13.666015625 138.499023438 7.1669921875 99.4990234375 47.5 c 0
 60.4990234375 87.8330078125 41.9990234375 139.333007812 43.9990234375 202 c 0
 46.666015625 276 70.3330078125 328.666992188 115 360 c 0
 159.666992188 391.333007812 214 406 278 404 c 2
 513 404 l 1
 518 350 l 1
 368 366 l 1
374.999023438 178 m 0
 377.666015625 228.666992188 368.665039062 273.999023438 347.998046875 313.999023438 c 0
 327.331054688 353.999023438 295.331054688 374.999023438 251.998046875 376.999023438 c 0
 218.665039062 378.999023438 190.83203125 365.166015625 168.499023438 335.499023438 c 0
 146.166015625 305.83203125 133.999023438 263.999023438 131.999023438 209.999023438 c 0
 130.666015625 159.33203125 140.666015625 114.83203125 161.999023438 76.4990234375 c 0
 183.33203125 38.166015625 214.33203125 17.9990234375 254.999023438 15.9990234375 c 0
 295.666015625 13.9990234375 325.499023438 29.33203125 344.499023438 61.9990234375 c 0
 363.499023438 94.666015625 373.666015625 133.333007812 374.999023438 178 c 0
248.998046875 577.999023438 m 2
 329.997070312 541.998046875 l 2
 347.997070312 534.665039062 361.997070312 535.165039062 371.997070312 543.498046875 c 0
 381.997070312 551.831054688 393.6640625 567.998046875 406.997070312 591.998046875 c 0
 408.997070312 595.998046875 412.1640625 597.665039062 416.497070312 596.998046875 c 0
 420.830078125 596.331054688 423.330078125 593.331054688 423.997070312 587.998046875 c 0
 425.997070312 555.331054688 417.6640625 528.331054688 398.997070312 506.998046875 c 0
 387.6640625 494.331054688 373.6640625 486.998046875 356.997070312 484.998046875 c 0
 340.330078125 482.998046875 324.330078125 484.665039062 308.997070312 489.998046875 c 2
 229.997070312 522.998046875 l 2
 202.6640625 534.998046875 174.331054688 518.665039062 144.998046875 473.998046875 c 0
 142.998046875 469.998046875 139.831054688 468.998046875 135.498046875 470.998046875 c 0
 131.165039062 472.998046875 128.665039062 475.665039062 127.998046875 478.998046875 c 0
 125.331054688 500.998046875 137.998046875 527.331054688 165.998046875 557.998046875 c 0
 173.998046875 568.665039062 186.165039062 576.33203125 202.498046875 580.999023438 c 0
 218.831054688 585.666015625 234.331054688 584.666015625 248.998046875 577.999023438 c 2
EndSplineSet
EndChar

StartChar: colon
Encoding: 58 58 24
Width: 180
GlyphClass: 2
Flags: W
LayerCount: 2
Fore
SplineSet
89 252 m 1
 2 393 l 1
 173 393 l 1
 89 252 l 1
89 140 m 1
 173 -1 l 1
 2 -1 l 1
 89 140 l 1
EndSplineSet
EndChar

StartChar: semicolon
Encoding: 59 59 25
Width: 180
GlyphClass: 2
Flags: W
LayerCount: 2
Fore
SplineSet
88 251 m 1
 1 393 l 1
 172 393 l 1
 88 251 l 1
EndSplineSet
EndChar

StartChar: equal
Encoding: 61 61 26
Width: 621
GlyphClass: 2
Flags: W
LayerCount: 2
Fore
SplineSet
45 326 m 0
 45 378.666992188 54.66796875 428.333984375 74.0009765625 475.000976562 c 0
 93.333984375 521.66796875 119.333984375 559.66796875 152.000976562 589.000976562 c 0
 213.333984375 645.66796875 290.000976562 674.000976562 382.000976562 674.000976562 c 0
 436.000976562 674.000976562 486.000976562 666.000976562 532.000976562 650.000976562 c 0
 545.333984375 647.333984375 553.333984375 646.333984375 556.000976562 647.000976562 c 1
 558.000976562 601.66796875 562.000976562 552.66796875 568.000976562 500.000976562 c 0
 566.000976562 496.66796875 562.500976562 494.66796875 557.500976562 494.000976562 c 0
 552.500976562 493.333984375 548.333984375 494.666992188 545.000976562 498 c 0
 526.333984375 595.333007812 468.333984375 644 371.000976562 644 c 0
 301.66796875 644 244.16796875 618 198.500976562 566 c 0
 152.833984375 514 130.000976562 438.666992188 130.000976562 340 c 0
 130.000976562 238 154.000976562 158.333007812 202.000976562 101 c 0
 250.000976562 43.6669921875 310.333984375 15 383.000976562 15 c 0
 431.66796875 15 470.334960938 29.3330078125 499.001953125 58 c 0
 527.668945312 86.6669921875 548.001953125 120 560.001953125 158 c 0
 562.668945312 160.666992188 566.668945312 161.666992188 572.001953125 161 c 0
 577.334960938 160.333007812 581.001953125 157.666015625 583.001953125 152.999023438 c 0
 579.668945312 127.666015625 573.501953125 100.833007812 564.501953125 72.5 c 0
 555.501953125 44.1669921875 548.001953125 25.6669921875 542.001953125 17 c 1
 532.668945312 15 522.668945312 11.6669921875 512.001953125 7 c 0
 475.334960938 -8.3330078125 430.66796875 -16 378.000976562 -16 c 0
 293.333984375 -16 222.666992188 6 166 50 c 0
 85.3330078125 116.666992188 45 208.666992188 45 326 c 0
372.000976562 -60 m 1
 502.000976562 -276 l 1
 238.000976562 -276 l 1
 372.000976562 -60 l 1
371.000976562 -134 m 1
 298.000976562 -243 l 1
 442.000976562 -243 l 1
 371.000976562 -134 l 1
EndSplineSet
EndChar

StartChar: question
Encoding: 63 63 27
Width: 508
GlyphClass: 2
Flags: W
LayerCount: 2
Fore
SplineSet
250 -270 m 1
 250 -65 l 1
 300 -65 l 1
 300 -270 l 1
 250 -270 l 1
270 224 m 0
 277.333007812 210.666992188 304.33203125 165.331054688 350.999023438 87.998046875 c 1
 355.666015625 88.6650390625 358.333007812 90.6650390625 359 93.998046875 c 0
 359.666992188 97.3310546875 360 107.998046875 360 125.998046875 c 2
 360 277.998046875 l 2
 360 315.331054688 358.166992188 338.498046875 354.5 347.498046875 c 0
 350.833007812 356.498046875 340 361.998046875 322 363.998046875 c 2
 300 366.998046875 l 2
 296.666992188 370.998046875 295.166992188 375.831054688 295.5 381.498046875 c 0
 295.833007812 387.165039062 298 390.665039062 302 391.998046875 c 0
 327.333007812 389.998046875 358.666015625 388.998046875 395.999023438 388.998046875 c 0
 428.666015625 388.998046875 458.333007812 389.998046875 485 391.998046875 c 0
 489 391.331054688 491.333007812 387.6640625 492 380.997070312 c 0
 492.666992188 374.330078125 491 369.663085938 487 366.99609375 c 2
 468 363.99609375 l 2
 450 361.99609375 439.166992188 356.49609375 435.5 347.49609375 c 0
 431.833007812 338.49609375 430 315.329101562 430 277.99609375 c 2
 430 104.99609375 l 2
 430 38.99609375 430.666992188 2.6630859375 432 -4.00390625 c 1
 414 -10.6708984375 390.333007812 -12.00390625 361 -8.00390625 c 1
 351 7.99609375 303.333007812 85.3291015625 218 223.99609375 c 0
 191.333007812 269.99609375 171 300.99609375 157 316.99609375 c 0
 154.333007812 316.99609375 153 306.329101562 153 284.99609375 c 2
 153 110.99609375 l 2
 153 84.3291015625 153.666992188 65.8291015625 155 55.49609375 c 0
 156.333007812 45.1630859375 159.5 37.99609375 164.5 33.99609375 c 0
 169.5 29.99609375 178.333007812 26.99609375 191 24.99609375 c 2
 209 21.99609375 l 2
 213 19.99609375 214.666992188 15.8291015625 214 9.49609375 c 0
 213.333007812 3.1630859375 211 -1.00390625 207 -3.00390625 c 0
 179 -1.00390625 148.333007812 -0.00390625 115 -0.00390625 c 0
 83.6669921875 -0.00390625 54 -1.00390625 26 -3.00390625 c 0
 22 -0.3369140625 19.6669921875 3.830078125 19 9.4970703125 c 0
 18.3330078125 15.1640625 20 19.3310546875 24 21.998046875 c 2
 45 24.998046875 l 2
 63 26.998046875 73.8330078125 32.498046875 77.5 41.498046875 c 0
 81.1669921875 50.498046875 83 73.6650390625 83 110.998046875 c 2
 83 283.998046875 l 2
 83 317.998046875 81 338.831054688 77 346.498046875 c 0
 73 354.165039062 62.6669921875 359.665039062 46 362.998046875 c 2
 25 366.998046875 l 2
 21.6669921875 368.998046875 20 372.831054688 20 378.498046875 c 0
 20 384.165039062 22 387.33203125 26 387.999023438 c 0
 86.6669921875 390.666015625 130 397.666015625 156 408.999023438 c 0
 162 407.666015625 164 405.333007812 162 402 c 0
 176.666992188 371.333007812 212.666992188 312 270 224 c 0
EndSplineSet
EndChar

StartChar: at
Encoding: 64 64 28
Width: 318
GlyphClass: 2
Flags: W
LayerCount: 2
Fore
SplineSet
262 270 m 1
 107 -156 l 1
 49 -156 l 1
 204 268 l 1
 49 690 l 1
 107 690 l 1
 262 270 l 1
EndSplineSet
EndChar

StartChar: A
Encoding: 65 65 29
Width: 441
GlyphClass: 2
Flags: W
LayerCount: 2
Fore
SplineSet
200 578 m 2
 280.999023438 541.999023438 l 2
 298.999023438 534.666015625 312.999023438 535.166015625 322.999023438 543.499023438 c 0
 332.999023438 551.83203125 344.666015625 567.999023438 357.999023438 591.999023438 c 0
 359.999023438 595.999023438 363.166015625 597.666015625 367.499023438 596.999023438 c 0
 371.83203125 596.33203125 374.33203125 593.33203125 374.999023438 587.999023438 c 0
 376.999023438 555.33203125 368.666015625 528.33203125 349.999023438 506.999023438 c 0
 338.666015625 494.33203125 324.666015625 486.999023438 307.999023438 484.999023438 c 0
 291.33203125 482.999023438 275.33203125 484.666015625 259.999023438 489.999023438 c 2
 180.999023438 522.999023438 l 2
 153.666015625 534.999023438 125.333007812 518.666015625 96 473.999023438 c 0
 94 469.999023438 90.8330078125 468.999023438 86.5 470.999023438 c 0
 82.1669921875 472.999023438 79.6669921875 475.666015625 79 478.999023438 c 0
 76.3330078125 500.999023438 89 527.33203125 117 557.999023438 c 0
 125 568.666015625 137.166992188 576.333007812 153.5 581 c 0
 169.833007812 585.666992188 185.333007812 584.666992188 200 578 c 2
317.999023438 299.999023438 m 0
 319.999023438 314.666015625 314.665039062 328.668945312 301.998046875 342.001953125 c 0
 289.331054688 355.334960938 269.998046875 362.001953125 243.998046875 362.001953125 c 0
 224.665039062 362.001953125 201.998046875 352.001953125 175.998046875 332.001953125 c 0
 169.331054688 327.334960938 164.831054688 322.66796875 162.498046875 318.000976562 c 0
 160.165039062 313.333984375 158.998046875 303.666992188 158.998046875 289 c 2
 158.998046875 216 l 2
 158.998046875 213.333007812 159.331054688 211.166015625 159.998046875 209.499023438 c 0
 160.665039062 207.83203125 162.165039062 206.83203125 164.498046875 206.499023438 c 0
 166.831054688 206.166015625 168.6640625 205.666015625 169.997070312 204.999023438 c 0
 178.6640625 205.666015625 195.331054688 209.999023438 219.998046875 217.999023438 c 0
 280.665039062 241.999023438 313.33203125 269.33203125 317.999023438 299.999023438 c 0
87.998046875 106.001953125 m 2
 88 291.00390625 l 2
 88 328.336914062 84.1669921875 352.00390625 76.5 362.00390625 c 0
 68.8330078125 372.00390625 55.3330078125 371.336914062 36 360.00390625 c 0
 30.6669921875 356.670898438 27.6669921875 357.670898438 27 363.00390625 c 0
 26.3330078125 368.336914062 28.8330078125 375.00390625 34.5 383.00390625 c 0
 40.1669921875 391.00390625 48.333984375 396.670898438 59.0009765625 400.00390625 c 0
 84.333984375 409.336914062 103.333984375 410.336914062 116.000976562 403.00390625 c 0
 128.66796875 395.670898438 140.334960938 384.670898438 151.001953125 370.00390625 c 0
 156.334960938 363.336914062 162.001953125 360.00390625 168.001953125 360.00390625 c 0
 173.334960938 360.00390625 184.66796875 367.336914062 202.000976562 382.00390625 c 0
 224.000976562 398.670898438 251.333984375 407.00390625 284.000976562 407.00390625 c 0
 316.000976562 407.00390625 341.66796875 399.336914062 361.000976562 384.00390625 c 0
 385.66796875 362.00390625 397.000976562 338.336914062 395.000976562 313.00390625 c 0
 392.333984375 289.00390625 382.166992188 268.670898438 364.5 252.00390625 c 0
 346.833007812 235.336914062 323.166015625 220.836914062 293.499023438 208.50390625 c 0
 263.83203125 196.170898438 226.665039062 185.00390625 181.998046875 175.00390625 c 0
 169.998046875 173.00390625 162.665039062 170.50390625 159.998046875 167.50390625 c 0
 157.331054688 164.50390625 155.998046875 156.336914062 155.998046875 143.00390625 c 2
 155.998046875 108.00390625 l 2
 155.998046875 74.6708984375 160.998046875 52.1708984375 170.998046875 40.50390625 c 0
 180.998046875 28.8369140625 202.665039062 22.669921875 235.998046875 22.0029296875 c 0
 264.665039062 22.0029296875 286.498046875 29.5029296875 301.498046875 44.5029296875 c 0
 316.498046875 59.5029296875 323.331054688 75.669921875 321.998046875 93.0029296875 c 0
 321.998046875 97.0029296875 320.665039062 102.502929688 317.998046875 109.502929688 c 0
 315.331054688 116.502929688 315.331054688 121.3359375 317.998046875 124.002929688 c 0
 335.998046875 136.669921875 355.331054688 143.002929688 375.998046875 143.002929688 c 0
 385.331054688 143.002929688 389.998046875 138.002929688 389.998046875 128.002929688 c 0
 389.998046875 109.3359375 382.498046875 88.5029296875 367.498046875 65.5029296875 c 0
 352.498046875 42.5029296875 330.331054688 23.0029296875 300.998046875 7.0029296875 c 0
 271.665039062 -8.9970703125 237.998046875 -15.9970703125 199.998046875 -13.9970703125 c 0
 161.998046875 -11.9970703125 134.165039062 -1.830078125 116.498046875 16.5029296875 c 0
 98.8310546875 34.8359375 89.3310546875 64.6689453125 87.998046875 106.001953125 c 2
EndSplineSet
EndChar

StartChar: B
Encoding: 66 66 30
Width: 501
GlyphClass: 2
Flags: W
LayerCount: 2
Fore
SplineSet
150 363 m 2
 117.333007812 363 95.333984375 358.333007812 84.0009765625 349 c 0
 70.66796875 338.333007812 57.0009765625 312.333007812 43.0009765625 271 c 0
 40.333984375 269 36.1669921875 268.333007812 30.5 269 c 0
 24.8330078125 269.666992188 20 271.666992188 16 275 c 1
 28 313 39.3330078125 365 50 431 c 1
 56.6669921875 433.666992188 63.333984375 433.666992188 70.0009765625 431 c 1
 72.0009765625 413 76.833984375 402.166992188 84.5009765625 398.5 c 0
 92.16796875 394.833007812 112.000976562 393 144.000976562 393 c 2
 286.000976562 393 l 2
 316.66796875 393 337.000976562 394 347.000976562 396 c 0
 351.000976562 394 352.66796875 390.666992188 352.000976562 386 c 0
 331.333984375 357.333007812 306.666992188 319.333007812 278 272 c 2
 157 69 l 2
 147 51.6669921875 143 40.6669921875 145 36 c 0
 147 31.3330078125 157.333007812 29 176 29 c 2
 210 29 l 1
 222 29 l 1
 225.333007812 35 229.5 42 234.5 50 c 0
 239.5 58 244.666992188 66.6669921875 250 76 c 0
 255.333007812 84 262.833007812 95.8330078125 272.5 111.5 c 0
 282.166992188 127.166992188 292 140.666992188 302 152 c 0
 312 163.333007812 322 171 332 175 c 0
 356.666992188 185 379 186.833007812 399 180.5 c 0
 419 174.166992188 433.333007812 161 442 141 c 0
 446 135 448 122.833007812 448 104.5 c 0
 448 86.1669921875 445.666992188 73.333984375 441 66.0009765625 c 0
 427.666992188 44.66796875 411 28.0009765625 391 16.0009765625 c 0
 373.666992188 5.333984375 357.333984375 0.0009765625 342.000976562 0.0009765625 c 2
 255.000976562 0.0009765625 l 1
 237.000976562 -25.9990234375 212.66796875 -62.666015625 182.000976562 -109.999023438 c 0
 179.333984375 -113.999023438 174.333984375 -117.499023438 167.000976562 -120.499023438 c 0
 159.66796875 -123.499023438 152.66796875 -123.666015625 146.000976562 -120.999023438 c 0
 144.000976562 -119.666015625 146.333984375 -111.499023438 153.000976562 -96.4990234375 c 0
 159.66796875 -81.4990234375 169.16796875 -63.666015625 181.500976562 -42.9990234375 c 0
 193.833984375 -22.33203125 202.000976562 -7.9990234375 206.000976562 0.0009765625 c 1
 143.000976562 0.0009765625 l 2
 85.0009765625 0.0009765625 50.0009765625 -0.9990234375 38.0009765625 -2.9990234375 c 0
 34.0009765625 -0.9990234375 32.0009765625 2.333984375 32.0009765625 7.0009765625 c 0
 52.66796875 31.0009765625 84.66796875 79.66796875 128.000976562 153.000976562 c 2
 234.000976562 333.000976562 l 2
 241.333984375 346.333984375 244.166992188 354.666992188 242.5 358 c 0
 240.833007812 361.333007812 235 363 225 363 c 2
 150 363 l 2
403.000976562 112 m 0
 401.66796875 122 397.334960938 128.999023438 390.001953125 132.999023438 c 0
 378.001953125 139.666015625 364.668945312 140.333007812 350.001953125 135 c 0
 334.001953125 127.666992188 307.334960938 92.333984375 270.001953125 29.0009765625 c 1
 283.001953125 29.0009765625 l 1
 332.001953125 29.0009765625 l 2
 334.668945312 29.0009765625 337.501953125 29.66796875 340.501953125 31.0009765625 c 0
 343.501953125 32.333984375 347.001953125 33.6669921875 351.001953125 35 c 0
 369.668945312 41 383.668945312 51.3330078125 393.001953125 66 c 0
 402.334960938 80.6669921875 405.66796875 96 403.000976562 112 c 0
EndSplineSet
EndChar

StartChar: C
Encoding: 67 67 31
Width: 607
GlyphClass: 2
Flags: W
LayerCount: 2
Fore
SplineSet
90 321 m 1
 89.998046875 322 l 2
 89.998046875 336 88.998046875 344.333007812 86.998046875 347 c 0
 84.998046875 349.666992188 78.998046875 351 68.998046875 351 c 2
 40.998046875 351 l 2
 37.6650390625 353 35.83203125 356.166992188 35.4990234375 360.5 c 0
 35.166015625 364.833007812 35.9990234375 368.666015625 37.9990234375 371.999023438 c 0
 67.9990234375 381.33203125 89.33203125 391.665039062 101.999023438 402.998046875 c 0
 122.666015625 421.665039062 136.666015625 462.665039062 143.999023438 525.998046875 c 1
 153.999023438 529.998046875 160.999023438 528.331054688 164.999023438 520.998046875 c 1
 164.999023438 411.998046875 l 2
 164.999023438 402.665039062 165.83203125 397.165039062 167.499023438 395.498046875 c 0
 169.166015625 393.831054688 174.333007812 392.998046875 183 392.998046875 c 2
 274 392.998046875 l 1
 280.666992188 388.998046875 283.666992188 381.665039062 283 370.998046875 c 0
 282.333007812 360.331054688 279.666015625 353.6640625 274.999023438 350.997070312 c 2
 181.999023438 350.997070312 l 2
 173.33203125 350.997070312 168.165039062 349.830078125 166.498046875 347.497070312 c 0
 164.831054688 345.1640625 163.998046875 338.6640625 163.998046875 327.997070312 c 2
 163.998046875 168.997070312 l 2
 163.998046875 116.330078125 177.665039062 78.830078125 204.998046875 56.4970703125 c 0
 232.331054688 34.1640625 265.498046875 27.6640625 304.498046875 36.9970703125 c 0
 343.498046875 46.330078125 377.331054688 66.9970703125 405.998046875 98.9970703125 c 1
 397.998046875 132.997070312 390.331054688 171.6640625 382.998046875 214.997070312 c 1
 381.998046875 214.997070312 l 1
 375.998046875 215.997070312 l 2
 343.998046875 221.330078125 315.665039062 204.997070312 290.998046875 166.997070312 c 0
 288.998046875 163.6640625 285.998046875 162.6640625 281.998046875 163.997070312 c 0
 277.998046875 165.330078125 275.331054688 167.663085938 273.998046875 170.99609375 c 0
 272.665039062 183.663085938 276.33203125 197.49609375 284.999023438 212.49609375 c 0
 293.666015625 227.49609375 302.666015625 239.329101562 311.999023438 247.99609375 c 0
 325.33203125 265.99609375 345.33203125 274.329101562 371.999023438 272.99609375 c 2
 372.999023438 272.99609375 l 1
 372.999023438 274.99609375 372.83203125 277.49609375 372.499023438 280.49609375 c 0
 372.166015625 283.49609375 371.666015625 285.663085938 370.999023438 286.99609375 c 0
 360.33203125 350.329101562 353.665039062 416.329101562 350.998046875 484.99609375 c 0
 346.331054688 561.663085938 353.331054688 618.830078125 371.998046875 656.497070312 c 0
 390.665039062 694.1640625 418.665039062 712.997070312 455.998046875 712.997070312 c 0
 483.998046875 713.6640625 506.665039062 705.1640625 523.998046875 687.497070312 c 0
 541.331054688 669.830078125 548.998046875 647.997070312 546.998046875 621.997070312 c 0
 546.998046875 608.6640625 543.498046875 597.831054688 536.498046875 589.498046875 c 0
 529.498046875 581.165039062 521.665039062 578.33203125 512.998046875 580.999023438 c 0
 498.331054688 584.33203125 489.331054688 589.665039062 485.998046875 596.998046875 c 0
 482.665039062 604.331054688 481.33203125 614.498046875 481.999023438 627.498046875 c 0
 482.666015625 640.498046875 480.666015625 650.165039062 475.999023438 656.498046875 c 0
 471.33203125 662.831054688 460.999023438 665.998046875 444.999023438 665.998046875 c 0
 428.33203125 666.665039062 417.165039062 655.665039062 411.498046875 632.998046875 c 0
 405.831054688 610.331054688 403.998046875 591.331054688 405.998046875 575.998046875 c 0
 407.331054688 545.998046875 411.331054688 511.498046875 417.998046875 472.498046875 c 0
 424.665039062 433.498046875 433.83203125 388.498046875 445.499023438 337.498046875 c 0
 457.166015625 286.498046875 464.666015625 253.331054688 467.999023438 237.998046875 c 1
 475.999023438 234.998046875 l 2
 493.999023438 227.665039062 507.999023438 228.33203125 517.999023438 236.999023438 c 0
 527.999023438 245.666015625 539.666015625 261.999023438 552.999023438 285.999023438 c 0
 555.666015625 289.999023438 558.999023438 291.33203125 562.999023438 289.999023438 c 0
 566.999023438 288.666015625 569.33203125 285.666015625 569.999023438 280.999023438 c 0
 571.999023438 247.666015625 563.666015625 220.999023438 544.999023438 200.999023438 c 0
 526.999023438 179.666015625 504.999023438 172.666015625 478.999023438 179.999023438 c 1
 486.33203125 136.666015625 491.83203125 101.999023438 495.499023438 75.9990234375 c 0
 499.166015625 49.9990234375 501.499023438 30.9990234375 502.499023438 18.9990234375 c 0
 503.499023438 6.9990234375 505.33203125 -11.66796875 507.999023438 -37.0009765625 c 0
 511.999023438 -108.333984375 507.33203125 -164.833984375 493.999023438 -206.500976562 c 0
 480.666015625 -248.16796875 450.333007812 -270.334960938 403 -273.001953125 c 0
 386.333007812 -273.668945312 370.833007812 -270.168945312 356.5 -262.501953125 c 0
 342.166992188 -254.834960938 331.333984375 -243.66796875 324.000976562 -229.000976562 c 0
 316.66796875 -214.333984375 313.334960938 -199.000976562 314.001953125 -183.000976562 c 0
 317.334960938 -157.66796875 328.001953125 -144.000976562 346.001953125 -142.000976562 c 0
 362.668945312 -140.000976562 373.668945312 -143.000976562 379.001953125 -151.000976562 c 0
 384.334960938 -159.000976562 386.66796875 -170.000976562 386.000976562 -184.000976562 c 0
 385.333984375 -198.000976562 386.166992188 -208.16796875 388.5 -214.500976562 c 0
 390.833007812 -220.833984375 398.333007812 -224.333984375 411 -225.000976562 c 0
 429 -227.000976562 440.666992188 -216.66796875 446 -194.000976562 c 0
 451.333007812 -171.333984375 453 -152.666992188 451 -138 c 0
 448.333007812 -102.666992188 437.333007812 -41 418 47 c 1
 394 25 371.166992188 9.5 349.5 0.5 c 0
 327.833007812 -8.5 303 -13.6669921875 275 -15 c 0
 151.666992188 -17 90 38.3330078125 90 151 c 2
 90 321 l 1
EndSplineSet
EndChar

StartChar: D
Encoding: 68 68 32
Width: 504
GlyphClass: 2
Flags: W
LayerCount: 2
Fore
SplineSet
121 204 m 0
 121 156 131.666015625 112.666992188 152.999023438 74 c 0
 174.33203125 35.3330078125 205.33203125 16 245.999023438 16 c 0
 288.666015625 16 319.833007812 34.5 339.5 71.5 c 0
 359.166992188 108.5 369 153.333007812 369 206 c 0
 369 263.333007812 361.333007812 306.333007812 346 335 c 0
 331.333007812 363 299.333007812 377 250 377 c 0
 212 377 181 360.833007812 157 328.5 c 0
 133 296.166992188 121 254.666992188 121 204 c 0
234.999023438 588 m 1
 103.999023438 520.998046875 l 1
 89.9990234375 526.998046875 85.33203125 537.665039062 89.9990234375 552.998046875 c 1
 205.999023438 613.998046875 l 1
 149.999023438 661.998046875 103.666015625 687.331054688 66.9990234375 689.998046875 c 1
 60.33203125 699.331054688 61.33203125 706.998046875 69.9990234375 712.998046875 c 1
 123.33203125 710.331054688 184.33203125 685.331054688 252.999023438 637.998046875 c 1
 265.999023438 645.998046875 l 1
 377.999023438 702.998046875 l 2
 384.666015625 702.331054688 389.666015625 698.6640625 392.999023438 691.997070312 c 0
 396.33203125 685.330078125 396.665039062 678.330078125 393.998046875 670.997070312 c 1
 289.998046875 616.997070312 l 1
 284.998046875 614.997070312 l 1
 290.331054688 610.997070312 304.998046875 597.997070312 328.998046875 575.997070312 c 1
 351.665039062 548.6640625 365.998046875 530.331054688 371.998046875 520.998046875 c 1
 382.998046875 520.998046875 l 2
 402.998046875 520.998046875 416.331054688 523.998046875 422.998046875 529.998046875 c 0
 429.665039062 535.998046875 441.665039062 550.998046875 458.998046875 574.998046875 c 0
 459.665039062 577.665039062 462.33203125 579.33203125 466.999023438 579.999023438 c 0
 471.666015625 580.666015625 474.666015625 579.333007812 475.999023438 576 c 0
 473.999023438 550.666992188 468.33203125 531 458.999023438 517 c 0
 447.666015625 498.333007812 425.333007812 487.666015625 392 484.999023438 c 1
 429.333007812 414.33203125 448.333007812 337.33203125 449 253.999023438 c 0
 449 198.666015625 440.833007812 150.833007812 424.5 110.5 c 0
 408.166992188 70.1669921875 383.833984375 39.1669921875 351.500976562 17.5 c 0
 319.16796875 -4.1669921875 280.000976562 -15 234.000976562 -15 c 0
 176.66796875 -15 129.16796875 3.5 91.5009765625 40.5 c 0
 53.833984375 77.5 35.0009765625 127 35.0009765625 189 c 0
 35.0009765625 249 56.66796875 300.333007812 100.000976562 343 c 0
 143.333984375 385.666992188 194.666992188 407 254 407 c 0
 293.333007812 407 325.666015625 400 350.999023438 386 c 1
 345.666015625 422.666992188 335.999023438 455.666992188 321.999023438 485 c 1
 291.999023438 485 l 2
 273.999023438 485 259.999023438 482.333007812 249.999023438 477 c 0
 239.999023438 471.666992188 225.666015625 462.333984375 206.999023438 449.000976562 c 0
 206.33203125 447.000976562 202.999023438 446.000976562 196.999023438 446.000976562 c 0
 190.999023438 446.000976562 188.33203125 447.000976562 188.999023438 449.000976562 c 0
 196.33203125 469.000976562 206.33203125 483.66796875 218.999023438 493.000976562 c 0
 242.33203125 514.333984375 268.33203125 524.666992188 296.999023438 524 c 2
 297.999023438 524 l 1
 295.33203125 528 292.83203125 531.5 290.499023438 534.5 c 2
 279.999023438 548 l 2
 271.999023438 558.666992188 256.999023438 572 234.999023438 588 c 1
EndSplineSet
EndChar

StartChar: E
Encoding: 69 69 33
Width: 414
GlyphClass: 2
Flags: W
LayerCount: 2
Fore
SplineSet
326 237 m 2
 127.998046875 237.002929688 l 2
 114.665039062 237.002929688 106.83203125 235.669921875 104.499023438 233.002929688 c 0
 102.166015625 230.3359375 100.999023438 222.668945312 100.999023438 210.001953125 c 0
 100.999023438 159.334960938 115.499023438 118.66796875 144.499023438 88.0009765625 c 0
 173.499023438 57.333984375 214.33203125 42.0009765625 266.999023438 42.0009765625 c 0
 302.999023438 42.0009765625 333.666015625 58.0009765625 358.999023438 90.0009765625 c 1
 369.666015625 93.333984375 375.666015625 89.6669921875 376.999023438 79 c 1
 362.999023438 49 340.499023438 25.8330078125 309.499023438 9.5 c 0
 278.499023438 -6.8330078125 248.666015625 -15 219.999023438 -15 c 0
 157.999023438 -15 109.666015625 7 74.9990234375 51 c 0
 46.9990234375 87.6669921875 32.9990234375 131.333984375 32.9990234375 182.000976562 c 0
 32.9990234375 245.333984375 51.83203125 298.666992188 89.4990234375 342 c 0
 127.166015625 385.333007812 175.333007812 407 234 407 c 0
 279.333007812 407 314 394.666992188 338 370 c 0
 362 345.333007812 376 312.333007812 380 271 c 0
 380.666992188 257.666992188 380.666992188 249 380 245 c 0
 378.666992188 239.666992188 360.666992188 237 326 237 c 2
118.998046875 268.002929688 m 2
 189.998046875 268.001953125 l 2
 255.331054688 268.001953125 291.998046875 271.001953125 299.998046875 277.001953125 c 0
 303.998046875 279.668945312 305.998046875 292.001953125 305.998046875 314.001953125 c 0
 305.998046875 330.668945312 298.831054688 345.3359375 284.498046875 358.002929688 c 0
 270.165039062 370.669921875 249.665039062 377.002929688 222.998046875 377.002929688 c 0
 195.665039062 377.002929688 170.665039062 364.502929688 147.998046875 339.502929688 c 0
 125.331054688 314.502929688 113.331054688 292.002929688 111.998046875 272.002929688 c 0
 111.998046875 269.3359375 114.331054688 268.002929688 118.998046875 268.002929688 c 2
212.998046875 -96.998046875 m 0
 237.665039062 -96.998046875 258.328125 -104.999023438 274.995117188 -120.999023438 c 0
 291.662109375 -136.999023438 299.995117188 -157.999023438 299.995117188 -183.999023438 c 0
 299.995117188 -207.999023438 291.328125 -228.33203125 273.995117188 -244.999023438 c 0
 256.662109375 -261.666015625 236.329101562 -269.999023438 212.99609375 -269.999023438 c 0
 189.663085938 -269.999023438 169.330078125 -261.33203125 151.997070312 -243.999023438 c 0
 134.6640625 -226.666015625 125.997070312 -206.666015625 125.997070312 -183.999023438 c 0
 125.997070312 -159.33203125 134.330078125 -138.665039062 150.997070312 -121.998046875 c 0
 167.6640625 -105.331054688 188.331054688 -96.998046875 212.998046875 -96.998046875 c 0
212.994140625 -124.999023438 m 0
 196.327148438 -124.999023438 182.327148438 -130.666015625 170.994140625 -141.999023438 c 0
 159.661132812 -153.33203125 153.994140625 -167.33203125 153.994140625 -183.999023438 c 0
 153.994140625 -199.33203125 159.994140625 -212.999023438 171.994140625 -224.999023438 c 0
 183.994140625 -236.999023438 197.661132812 -242.999023438 212.994140625 -242.999023438 c 0
 228.327148438 -242.999023438 241.994140625 -237.33203125 253.994140625 -225.999023438 c 0
 265.994140625 -214.666015625 271.994140625 -200.666015625 271.994140625 -183.999023438 c 0
 271.994140625 -165.999023438 266.327148438 -151.666015625 254.994140625 -140.999023438 c 0
 243.661132812 -130.33203125 229.661132812 -124.999023438 212.994140625 -124.999023438 c 0
EndSplineSet
EndChar

StartChar: G
Encoding: 71 71 34
Width: 522
GlyphClass: 2
Flags: W
LayerCount: 2
Fore
SplineSet
369 61 m 2
 369.002929688 81.998046875 l 2
 369.002929688 103.331054688 367.002929688 116.831054688 363.002929688 122.498046875 c 0
 359.002929688 128.165039062 346.3359375 132.33203125 325.002929688 134.999023438 c 2
 286.002929688 140.999023438 l 2
 282.669921875 144.33203125 281.002929688 148.499023438 281.002929688 153.499023438 c 0
 281.002929688 158.499023438 283.002929688 161.999023438 287.002929688 163.999023438 c 0
 334.3359375 161.999023438 373.3359375 160.999023438 404.002929688 160.999023438 c 0
 434.002929688 160.999023438 464.3359375 161.999023438 495.002929688 163.999023438 c 0
 498.3359375 161.999023438 500.3359375 158.33203125 501.002929688 152.999023438 c 0
 501.669921875 147.666015625 500.669921875 143.666015625 498.002929688 140.999023438 c 2
 472.002929688 137.999023438 l 2
 459.3359375 134.666015625 451.3359375 130.166015625 448.002929688 124.499023438 c 0
 444.669921875 118.83203125 443.002929688 106.665039062 443.002929688 87.998046875 c 2
 443.002929688 62.998046875 l 2
 443.002929688 39.6650390625 448.3359375 25.6650390625 459.002929688 20.998046875 c 0
 465.002929688 16.3310546875 464.669921875 11.998046875 458.002929688 7.998046875 c 0
 455.3359375 7.998046875 436.002929688 4.6650390625 400.002929688 -2.001953125 c 0
 391.3359375 -3.3349609375 377.168945312 -5.8349609375 357.501953125 -9.501953125 c 0
 337.834960938 -13.1689453125 319.66796875 -15.001953125 303.000976562 -15.001953125 c 0
 212.333984375 -15.001953125 142.666992188 7.998046875 94 53.998046875 c 0
 54 91.3310546875 34 136.998046875 34 190.998046875 c 0
 34 247.665039062 54.3330078125 295.33203125 95 333.999023438 c 0
 147 382.666015625 220.333007812 406.999023438 315 406.999023438 c 0
 337 406.999023438 380.333007812 400.33203125 445 386.999023438 c 1
 447 348.999023438 450 315.33203125 454 285.999023438 c 0
 452 281.33203125 448.166992188 278.999023438 442.5 278.999023438 c 0
 436.833007812 278.999023438 432.333007812 280.999023438 429 284.999023438 c 0
 417.666992188 318.33203125 401 342.165039062 379 356.498046875 c 0
 357 370.831054688 327.666992188 377.998046875 291 377.998046875 c 0
 239 377.998046875 197.5 362.165039062 166.5 330.498046875 c 0
 135.5 298.831054688 120 255.998046875 120 201.998046875 c 0
 120 146.665039062 137.5 101.83203125 172.5 67.4990234375 c 0
 207.5 33.166015625 253.666992188 15.9990234375 311 15.9990234375 c 0
 337 15.9990234375 353.166992188 18.83203125 359.5 24.4990234375 c 0
 365.833007812 30.166015625 369 42.3330078125 369 61 c 2
EndSplineSet
EndChar

StartChar: H
Encoding: 72 72 35
Width: 411
GlyphClass: 2
Flags: W
LayerCount: 2
Fore
SplineSet
201 145 m 1
 121.005859375 144.998046875 l 1
 121.005859375 188.998046875 l 1
 201.005859375 188.998046875 l 1
 201.005859375 251.998046875 l 1
 88.3388671875 270.665039062 30.671875 319.998046875 28.0048828125 399.998046875 c 0
 27.337890625 445.998046875 42.6708984375 493.998046875 74.00390625 543.998046875 c 0
 107.336914062 591.331054688 145.669921875 620.998046875 189.002929688 632.998046875 c 0
 232.3359375 644.998046875 268.002929688 646.331054688 296.002929688 636.998046875 c 0
 333.3359375 626.331054688 347.668945312 602.331054688 339.001953125 564.998046875 c 0
 337.001953125 556.998046875 332.334960938 550.498046875 325.001953125 545.498046875 c 0
 317.668945312 540.498046875 310.001953125 539.331054688 302.001953125 541.998046875 c 0
 230.668945312 568.665039062 176.8359375 572.83203125 140.502929688 554.499023438 c 0
 104.169921875 536.166015625 81.0029296875 496.999023438 71.0029296875 436.999023438 c 1
 69.0029296875 392.999023438 86.0029296875 362.499023438 122.002929688 345.499023438 c 0
 158.002929688 328.499023438 209.002929688 319.999023438 275.002929688 319.999023438 c 1
 275.002929688 188.999023438 l 1
 355.002929688 188.999023438 l 1
 355.002929688 144.999023438 l 1
 275.002929688 144.999023438 l 1
 275.002929688 122.999023438 l 2
 275.002929688 82.33203125 278.002929688 56.33203125 284.002929688 44.9990234375 c 0
 290.002929688 33.666015625 307.3359375 26.9990234375 336.002929688 24.9990234375 c 2
 372.002929688 22.9990234375 l 2
 374.669921875 20.9990234375 375.669921875 16.83203125 375.002929688 10.4990234375 c 0
 374.3359375 4.166015625 372.668945312 -0.0009765625 370.001953125 -2.0009765625 c 0
 312.001953125 -0.0009765625 267.334960938 0.9990234375 236.001953125 0.9990234375 c 0
 205.334960938 0.9990234375 162.334960938 -0.0009765625 107.001953125 -2.0009765625 c 0
 103.668945312 -0.0009765625 101.668945312 4.166015625 101.001953125 10.4990234375 c 0
 100.334960938 16.83203125 101.66796875 20.9990234375 105.000976562 22.9990234375 c 2
 141.000976562 24.9990234375 l 2
 160.333984375 25.666015625 174.166992188 28.8330078125 182.5 34.5 c 0
 190.833007812 40.1669921875 196 49 198 61 c 0
 200 73 201 93.6669921875 201 123 c 2
 201 145 l 1
EndSplineSet
EndChar

StartChar: I
Encoding: 73 73 36
Width: 298
GlyphClass: 2
Flags: W
LayerCount: 2
Fore
SplineSet
122 578 m 2
 202.999023438 541.999023438 l 2
 220.999023438 534.666015625 234.999023438 535.166015625 244.999023438 543.499023438 c 0
 254.999023438 551.83203125 266.666015625 567.999023438 279.999023438 591.999023438 c 0
 281.999023438 595.999023438 285.166015625 597.666015625 289.499023438 596.999023438 c 0
 293.83203125 596.33203125 296.33203125 593.33203125 296.999023438 587.999023438 c 0
 298.999023438 555.33203125 290.666015625 528.33203125 271.999023438 506.999023438 c 0
 260.666015625 494.33203125 246.666015625 486.999023438 229.999023438 484.999023438 c 0
 213.33203125 482.999023438 197.33203125 484.666015625 181.999023438 489.999023438 c 2
 102.999023438 522.999023438 l 2
 75.666015625 534.999023438 47.3330078125 518.666015625 18 473.999023438 c 0
 16 469.999023438 12.8330078125 468.999023438 8.5 470.999023438 c 0
 4.1669921875 472.999023438 1.6669921875 475.666015625 1 478.999023438 c 0
 -1.6669921875 500.999023438 11 527.33203125 39 557.999023438 c 0
 47 568.666015625 59.1669921875 576.333007812 75.5 581 c 0
 91.8330078125 585.666992188 107.333007812 584.666992188 122 578 c 2
109.999023438 93.9990234375 m 2
 109.999023438 296.999023438 l 2
 109.999023438 320.33203125 108.999023438 336.165039062 106.999023438 344.498046875 c 0
 104.999023438 352.831054688 101.166015625 358.6640625 95.4990234375 361.997070312 c 0
 89.83203125 365.330078125 79.33203125 367.997070312 63.9990234375 369.997070312 c 2
 35.9990234375 372.997070312 l 2
 32.666015625 374.997070312 31.3330078125 378.997070312 32 384.997070312 c 0
 32.6669921875 390.997070312 34.6669921875 394.330078125 38 394.997070312 c 0
 102 393.6640625 138.333007812 392.997070312 147 392.997070312 c 0
 155.666992188 392.997070312 192 393.6640625 256 394.997070312 c 0
 260 394.330078125 262 390.997070312 262 384.997070312 c 0
 262 378.997070312 260.666992188 374.997070312 258 372.997070312 c 2
 229 369.997070312 l 2
 213.666992188 367.997070312 203.166992188 365.330078125 197.5 361.997070312 c 0
 191.833007812 358.6640625 188.166015625 352.831054688 186.499023438 344.498046875 c 0
 184.83203125 336.165039062 183.999023438 320.33203125 183.999023438 296.999023438 c 2
 183.999023438 93.9990234375 l 2
 183.999023438 63.9990234375 186.33203125 45.33203125 190.999023438 37.9990234375 c 0
 195.666015625 30.666015625 208.333007812 25.666015625 229 22.9990234375 c 2
 258 19.9990234375 l 2
 260.666992188 17.9990234375 262 14.166015625 262 8.4990234375 c 0
 262 2.83203125 260 -1.0009765625 256 -3.0009765625 c 0
 209.333007812 -1.0009765625 173 -0.0009765625 147 -0.0009765625 c 0
 122.333007812 -0.0009765625 86 -1.0009765625 38 -3.0009765625 c 0
 34.6669921875 -1.0009765625 32.6669921875 2.83203125 32 8.4990234375 c 0
 31.3330078125 14.166015625 32.666015625 17.9990234375 35.9990234375 19.9990234375 c 2
 63.9990234375 22.9990234375 l 2
 85.33203125 26.33203125 98.33203125 31.4990234375 102.999023438 38.4990234375 c 0
 107.666015625 45.4990234375 109.999023438 63.9990234375 109.999023438 93.9990234375 c 2
EndSplineSet
EndChar

StartChar: J
Encoding: 74 74 37
Width: 295
GlyphClass: 2
Flags: W
LayerCount: 2
Fore
SplineSet
110 578 m 2
 190.999023438 541.999023438 l 2
 208.999023438 534.666015625 222.999023438 535.166015625 232.999023438 543.499023438 c 0
 242.999023438 551.83203125 254.666015625 567.999023438 267.999023438 591.999023438 c 0
 269.999023438 595.999023438 273.166015625 597.666015625 277.499023438 596.999023438 c 0
 281.83203125 596.33203125 284.33203125 593.33203125 284.999023438 587.999023438 c 0
 286.999023438 555.33203125 278.666015625 528.33203125 259.999023438 506.999023438 c 0
 248.666015625 494.33203125 234.666015625 486.999023438 217.999023438 484.999023438 c 0
 201.33203125 482.999023438 185.33203125 484.666015625 169.999023438 489.999023438 c 2
 90.9990234375 522.999023438 l 2
 63.666015625 534.999023438 35.3330078125 518.666015625 6 473.999023438 c 0
 4 469.999023438 0.8330078125 468.999023438 -3.5 470.999023438 c 0
 -7.8330078125 472.999023438 -10.3330078125 475.666015625 -11 478.999023438 c 0
 -13.6669921875 500.999023438 -1 527.33203125 27 557.999023438 c 0
 35 568.666015625 47.1669921875 576.333007812 63.5 581 c 0
 79.8330078125 585.666992188 95.3330078125 584.666992188 110 578 c 2
189.999023438 355.999023438 m 1
 189.997070312 -108.006835938 l 2
 189.997070312 -159.33984375 177.830078125 -199.172851562 153.497070312 -227.505859375 c 0
 129.1640625 -255.838867188 100.1640625 -269.838867188 66.4970703125 -269.505859375 c 0
 32.830078125 -269.172851562 3.9970703125 -257.005859375 -20.0029296875 -233.005859375 c 0
 -35.3359375 -220.338867188 -38.6689453125 -201.338867188 -30.001953125 -176.005859375 c 0
 -24.6689453125 -163.338867188 -14.501953125 -156.671875 0.498046875 -156.004882812 c 0
 15.498046875 -155.337890625 24.3310546875 -160.337890625 26.998046875 -171.004882812 c 0
 28.3310546875 -185.671875 29.498046875 -198.671875 30.498046875 -210.004882812 c 0
 31.498046875 -221.337890625 35.998046875 -230.004882812 43.998046875 -236.004882812 c 0
 51.998046875 -242.004882812 67.3310546875 -241.337890625 89.998046875 -234.004882812 c 0
 100.665039062 -231.337890625 107.83203125 -223.670898438 111.499023438 -211.00390625 c 0
 115.166015625 -198.336914062 116.999023438 -178.169921875 116.999023438 -150.502929688 c 0
 116.999023438 -122.8359375 116.666015625 -94.6689453125 115.999023438 -66.001953125 c 2
 115.999023438 286.998046875 l 2
 115.999023438 311.665039062 113.499023438 327.665039062 108.499023438 334.998046875 c 0
 103.499023438 342.331054688 89.9990234375 348.6640625 67.9990234375 353.997070312 c 2
 58.9990234375 355.997070312 l 2
 56.9990234375 357.997070312 55.9990234375 360.830078125 55.9990234375 364.497070312 c 0
 55.9990234375 368.1640625 57.33203125 370.6640625 59.9990234375 371.997070312 c 0
 113.999023438 380.6640625 154.33203125 400.331054688 180.999023438 430.998046875 c 1
 188.999023438 429.665039062 192.999023438 427.33203125 192.999023438 423.999023438 c 2
 189.999023438 355.999023438 l 1
EndSplineSet
EndChar

StartChar: K
Encoding: 75 75 38
Width: 423
GlyphClass: 2
Flags: W
LayerCount: 2
Fore
SplineSet
132 -14 m 0
 98 -14 68.3330078125 -8.3330078125 43 3 c 1
 33 13 28 26.3330078125 28 43 c 0
 28 51.6669921875 30.3330078125 60 35 68 c 0
 39.6669921875 76 44.6669921875 80 50 80 c 0
 56 80 60.6669921875 77.3330078125 64 72 c 0
 93.3330078125 37.3330078125 126.666015625 20 163.999023438 20 c 0
 201.999023438 20 234.499023438 34.3330078125 261.499023438 63 c 0
 288.499023438 91.6669921875 301.999023438 131 301.999023438 181 c 0
 301.999023438 224.333007812 287.666015625 263.5 258.999023438 298.5 c 0
 230.33203125 333.5 190.999023438 351 140.999023438 351 c 0
 92.9990234375 351 55.9990234375 331 29.9990234375 291 c 1
 19.33203125 289.666992188 13.33203125 294.666992188 11.9990234375 306 c 1
 27.33203125 340 50.83203125 365.5 82.4990234375 382.5 c 0
 114.166015625 399.5 146.333007812 408 179 408 c 0
 234.333007812 408 280 390.666992188 316 356 c 0
 354.666992188 318.666992188 374 269.666992188 374 209 c 0
 374 149 353.166992188 96.8330078125 311.5 52.5 c 0
 269.833007812 8.1669921875 210 -14 132 -14 c 0
191 -223 m 0
 174.333007812 -223 160.999023438 -217.5 150.999023438 -206.5 c 0
 140.999023438 -195.5 135.999023438 -181.666992188 135.999023438 -165 c 0
 135.999023438 -147 141.499023438 -133.166992188 152.499023438 -123.5 c 0
 163.499023438 -113.833007812 177.33203125 -109 193.999023438 -109 c 0
 210.666015625 -109 224.333007812 -114.333007812 235 -125 c 0
 245.666992188 -135.666992188 251 -148.333984375 251 -163.000976562 c 0
 251 -180.333984375 245 -194.666992188 233 -206 c 0
 221 -217.333007812 207 -223 191 -223 c 0
EndSplineSet
EndChar

StartChar: L
Encoding: 76 76 39
Width: 360
GlyphClass: 2
Flags: W
LayerCount: 2
Fore
SplineSet
153 -270 m 1
 153 -65 l 1
 203 -65 l 1
 203 -270 l 1
 153 -270 l 1
213 361 m 1
 212.999023438 245.999023438 l 1
 226.999023438 239.999023438 l 2
 244.999023438 232.666015625 258.999023438 233.166015625 268.999023438 241.499023438 c 0
 278.999023438 249.83203125 290.666015625 265.999023438 303.999023438 289.999023438 c 0
 306.666015625 293.33203125 309.999023438 296.165039062 313.999023438 298.498046875 c 0
 317.999023438 300.831054688 320.33203125 299.998046875 320.999023438 295.998046875 c 0
 323.666015625 269.998046875 315.333007812 246.665039062 296 225.998046875 c 0
 274.666992188 201.331054688 247 194.998046875 213 206.998046875 c 1
 213 110.998046875 l 2
 213 74.998046875 215 52.1650390625 219 42.498046875 c 0
 223 32.8310546875 233.666992188 26.998046875 251 24.998046875 c 2
 283 21.998046875 l 2
 287 19.998046875 288.666992188 15.8310546875 288 9.498046875 c 0
 287.333007812 3.1650390625 285 -1.001953125 281 -3.001953125 c 0
 240.333007812 -1.001953125 205.333007812 -0.001953125 176 -0.001953125 c 0
 144.666992188 -0.001953125 110 -1.001953125 72 -3.001953125 c 0
 68 -0.3349609375 65.6669921875 3.83203125 65 9.4990234375 c 0
 64.3330078125 15.166015625 66 19.3330078125 70 22 c 2
 101 25 l 2
 119 27 129.833007812 32.5 133.5 41.5 c 0
 137.166992188 50.5 139 73.6669921875 139 111 c 2
 139 230 l 1
 127 234 l 2
 99.6669921875 245.333007812 71.333984375 229 42.0009765625 185 c 0
 40.66796875 181.666992188 37.5009765625 180.333984375 32.5009765625 181.000976562 c 0
 27.5009765625 181.66796875 25.0009765625 183.66796875 25.0009765625 187.000976562 c 0
 25.66796875 201.66796875 35.66796875 221.000976562 55.0009765625 245.000976562 c 0
 63.0009765625 255.000976562 75.16796875 263.000976562 91.5009765625 269.000976562 c 0
 107.833984375 275.000976562 123.666992188 275.333984375 139 270.000976562 c 1
 139 384.000976562 l 1
 127 388.000976562 l 2
 97.6669921875 397.333984375 69.333984375 381.000976562 42.0009765625 339.000976562 c 0
 40.66796875 335.66796875 37.5009765625 334.334960938 32.5009765625 335.001953125 c 0
 27.5009765625 335.668945312 25.0009765625 337.668945312 25.0009765625 341.001953125 c 0
 25.66796875 355.668945312 35.66796875 375.001953125 55.0009765625 399.001953125 c 0
 63.0009765625 409.001953125 75.16796875 417.001953125 91.5009765625 423.001953125 c 0
 107.833984375 429.001953125 123.666992188 429.334960938 139 424.001953125 c 1
 139 601.001953125 l 2
 139 621.668945312 134.666992188 634.3359375 126 639.002929688 c 0
 117.333007812 643.669921875 101.666015625 646.669921875 78.9990234375 648.002929688 c 2
 60.9990234375 649.002929688 l 2
 58.9990234375 652.3359375 57.9990234375 656.168945312 57.9990234375 660.501953125 c 0
 57.9990234375 664.834960938 59.33203125 667.66796875 61.9990234375 669.000976562 c 0
 109.33203125 685.66796875 155.33203125 706.000976562 199.999023438 730.000976562 c 1
 213.999023438 727.333984375 220.999023438 724.333984375 220.999023438 721.000976562 c 2
 212.999023438 624.000976562 l 1
 212.999023438 400.000976562 l 1
 226.999023438 394.000976562 l 2
 244.999023438 386.66796875 258.999023438 387.16796875 268.999023438 395.500976562 c 0
 278.999023438 403.833984375 290.666015625 420.000976562 303.999023438 444.000976562 c 0
 306.666015625 447.333984375 309.999023438 450.166992188 313.999023438 452.5 c 0
 317.999023438 454.833007812 320.33203125 454 320.999023438 450 c 0
 323.666015625 424 315.333007812 400.666992188 296 380 c 0
 274.666992188 355.333007812 247 349 213 361 c 1
EndSplineSet
EndChar

StartChar: M
Encoding: 77 77 40
Width: 802
GlyphClass: 2
Flags: W
LayerCount: 2
Fore
SplineSet
619 26 m 2
 619 33.3330078125 615.333007812 37.0078125 608 37.0078125 c 1
 560 3.0078125 515.666992188 -13.9921875 475 -13.9921875 c 0
 451.666992188 -13.9921875 432 -9.4921875 416 -0.4921875 c 0
 400 8.5078125 384.333007812 23.3408203125 369 44.0078125 c 1
 362.333007812 46.0078125 354 43.6748046875 344 37.0078125 c 0
 295.333007812 3.0078125 250 -13.9921875 208 -13.9921875 c 0
 170 -13.9921875 140.666992188 -2.3251953125 120 21.0078125 c 0
 99.3330078125 44.3408203125 89 73.673828125 89 109.006835938 c 2
 89 282.006835938 l 2
 89 319.33984375 87.1669921875 342.506835938 83.5 351.506835938 c 0
 79.8330078125 360.506835938 69 366.006835938 51 368.006835938 c 2
 19 371.006835938 l 2
 15.6669921875 375.006835938 14.1669921875 379.83984375 14.5 385.506835938 c 0
 14.8330078125 391.173828125 17 394.673828125 21 396.006835938 c 0
 62.3330078125 394.006835938 97.3330078125 393.006835938 126 393.006835938 c 0
 156 393.006835938 189 394.006835938 225 396.006835938 c 0
 229 395.33984375 231.333007812 391.672851562 232 385.005859375 c 0
 232.666992188 378.338867188 231 373.671875 227 371.004882812 c 2
 201 368.004882812 l 2
 183 366.004882812 172.166992188 360.504882812 168.5 351.504882812 c 0
 164.833007812 342.504882812 163 319.337890625 163 282.004882812 c 2
 163 137.004882812 l 2
 163 68.337890625 194 34.0048828125 256 34.0048828125 c 0
 293.333007812 34.0048828125 321 45.671875 339 69.0048828125 c 0
 349 81.671875 354 101.338867188 354 128.005859375 c 2
 354 282.005859375 l 2
 354 319.338867188 352.166992188 342.505859375 348.5 351.505859375 c 0
 344.833007812 360.505859375 334 366.005859375 316 368.005859375 c 2
 287 371.005859375 l 2
 283.666992188 375.005859375 282.166992188 379.838867188 282.5 385.505859375 c 0
 282.833007812 391.172851562 285 394.672851562 289 396.005859375 c 0
 327 394.005859375 361 393.005859375 391 393.005859375 c 0
 421 393.005859375 454 394.005859375 490 396.005859375 c 0
 494 395.338867188 496.333007812 391.671875 497 385.004882812 c 0
 497.666992188 378.337890625 496 373.670898438 492 371.00390625 c 2
 466 368.00390625 l 2
 448 366.00390625 437.166992188 360.50390625 433.5 351.50390625 c 0
 429.833007812 342.50390625 428 319.336914062 428 282.00390625 c 2
 428 137.00390625 l 2
 428 68.3369140625 458.666992188 34.00390625 520 34.00390625 c 0
 556 34.00390625 584 46.00390625 604 70.00390625 c 0
 614 82.00390625 619 100.670898438 619 126.00390625 c 2
 619 282.00390625 l 2
 619 319.336914062 617.166992188 342.50390625 613.5 351.50390625 c 0
 609.833007812 360.50390625 599 366.00390625 581 368.00390625 c 2
 555 371.00390625 l 2
 551.666992188 375.00390625 550.166992188 379.836914062 550.5 385.50390625 c 0
 550.833007812 391.170898438 553 394.670898438 557 396.00390625 c 0
 592.333007812 394.00390625 625.333007812 393.00390625 656 393.00390625 c 0
 687.333007812 393.00390625 722.333007812 394.00390625 761 396.00390625 c 0
 765 395.336914062 767.333007812 391.669921875 768 385.002929688 c 0
 768.666992188 378.3359375 767 373.668945312 763 371.001953125 c 2
 731 368.001953125 l 2
 713 366.001953125 702.166992188 360.501953125 698.5 351.501953125 c 0
 694.833007812 342.501953125 693 319.334960938 693 282.001953125 c 2
 693 106.001953125 l 2
 693 82.001953125 695 66.501953125 699 59.501953125 c 0
 703 52.501953125 716.666992188 45.6689453125 740 39.001953125 c 2
 749 37.001953125 l 2
 751 35.001953125 752 32.001953125 752 28.001953125 c 0
 752 24.001953125 750.666992188 21.6689453125 748 21.001953125 c 0
 694 12.3349609375 653.666992188 -7.33203125 627 -37.9990234375 c 1
 621.666992188 -36.666015625 619 -34.3330078125 619 -31 c 2
 619 26 l 2
EndSplineSet
EndChar

StartChar: N
Encoding: 78 78 41
Width: 540
GlyphClass: 2
Flags: W
LayerCount: 2
Fore
SplineSet
183 356 m 0
 209.666992188 372.666992188 233.665039062 385.329101562 254.998046875 393.99609375 c 0
 276.331054688 402.663085938 298.998046875 406.99609375 322.998046875 406.99609375 c 0
 362.331054688 406.99609375 391.6640625 395.663085938 410.997070312 372.99609375 c 0
 430.330078125 350.329101562 439.997070312 320.662109375 439.997070312 283.995117188 c 2
 439.997070312 -57.0048828125 l 2
 439.997070312 -125.671875 440.997070312 -169.671875 442.997070312 -189.004882812 c 0
 444.997070312 -208.337890625 452.6640625 -220.670898438 465.997070312 -226.00390625 c 0
 488.6640625 -233.336914062 503.831054688 -234.00390625 511.498046875 -228.00390625 c 0
 519.165039062 -222.00390625 523.33203125 -210.670898438 523.999023438 -194.00390625 c 0
 524.666015625 -177.336914062 525.666015625 -167.00390625 526.999023438 -163.00390625 c 0
 528.999023438 -157.00390625 534.166015625 -152.836914062 542.499023438 -150.50390625 c 0
 550.83203125 -148.170898438 559.165039062 -148.50390625 567.498046875 -151.50390625 c 0
 575.831054688 -154.50390625 581.331054688 -160.00390625 583.998046875 -168.00390625 c 0
 592.665039062 -192.00390625 589.33203125 -211.670898438 573.999023438 -227.00390625 c 0
 547.999023438 -250.336914062 518.499023438 -263.836914062 485.499023438 -267.50390625 c 0
 452.499023438 -271.170898438 424.33203125 -259.50390625 400.999023438 -232.50390625 c 0
 377.666015625 -205.50390625 365.999023438 -161.670898438 365.999023438 -101.00390625 c 2
 365.999023438 5.99609375 l 1
 365.999023438 259.99609375 l 2
 365.999023438 325.99609375 334.666015625 358.99609375 271.999023438 358.99609375 c 0
 232.666015625 358.99609375 204.333007812 347.329101562 187 323.99609375 c 0
 177 311.99609375 172 292.329101562 172 264.99609375 c 2
 172 110.99609375 l 2
 172 84.3291015625 172.666992188 65.8291015625 174 55.49609375 c 0
 175.333007812 45.1630859375 178.5 37.99609375 183.5 33.99609375 c 0
 188.5 29.99609375 197.333007812 26.99609375 210 24.99609375 c 2
 236 21.99609375 l 2
 240 19.99609375 241.666992188 15.8291015625 241 9.49609375 c 0
 240.333007812 3.1630859375 238 -1.00390625 234 -3.00390625 c 0
 199.333007812 -1.00390625 166.333007812 -0.00390625 135 -0.00390625 c 0
 103 -0.00390625 69 -1.00390625 33 -3.00390625 c 0
 29 -0.3369140625 26.6669921875 3.830078125 26 9.4970703125 c 0
 25.3330078125 15.1640625 27 19.3310546875 31 21.998046875 c 2
 60 24.998046875 l 2
 78 26.998046875 88.8330078125 32.498046875 92.5 41.498046875 c 0
 96.1669921875 50.498046875 98 73.6650390625 98 110.998046875 c 2
 98 286.998046875 l 2
 98 312.998046875 95.6669921875 329.331054688 91 335.998046875 c 0
 86.3330078125 342.665039062 73 348.665039062 51 353.998046875 c 2
 42 355.998046875 l 2
 40 357.998046875 39 360.831054688 39 364.498046875 c 0
 39 368.165039062 40.3330078125 370.665039062 43 371.998046875 c 0
 97 380.665039062 137.333007812 400.33203125 164 430.999023438 c 1
 169.333007812 429.666015625 172 427.333007812 172 424 c 2
 172 367 l 2
 172 359.666992188 175.666992188 356 183 356 c 0
EndSplineSet
EndChar

StartChar: O
Encoding: 79 79 42
Width: 423
GlyphClass: 2
Flags: W
LayerCount: 2
Fore
SplineSet
84 154 m 2
 282 154 l 2
 294.666992188 154 302.333984375 155.333007812 305.000976562 158 c 0
 307.66796875 160.666992188 309.000976562 168.666992188 309.000976562 182 c 0
 309.000976562 232.666992188 294.500976562 273.333984375 265.500976562 304.000976562 c 0
 236.500976562 334.66796875 195.66796875 350.000976562 143.000976562 350.000976562 c 0
 107.66796875 350.000976562 77.0009765625 333.66796875 51.0009765625 301.000976562 c 1
 40.333984375 297.66796875 34.333984375 301.66796875 33.0009765625 313.000976562 c 1
 49.0009765625 345.000976562 71.66796875 368.66796875 101.000976562 384.000976562 c 0
 130.333984375 399.333984375 160.000976562 407.000976562 190.000976562 407.000976562 c 0
 252.66796875 407.000976562 301.000976562 384.66796875 335.000976562 340.000976562 c 0
 363.000976562 303.333984375 377.000976562 260.000976562 377.000976562 210.000976562 c 0
 377.000976562 147.333984375 358.16796875 94.1669921875 320.500976562 50.5 c 0
 282.833984375 6.8330078125 234.666992188 -15 176 -15 c 0
 132.666992188 -15 98.5 -2.3330078125 73.5 23 c 0
 48.5 48.3330078125 34 81 30 121 c 0
 28.6669921875 135 28.6669921875 144 30 148 c 0
 31.3330078125 152 49.3330078125 154 84 154 c 2
291 125 m 2
 220.001953125 125.001953125 l 2
 155.334960938 125.001953125 118.66796875 121.334960938 110.000976562 114.001953125 c 0
 106.000976562 111.334960938 104.000976562 99.3349609375 104.000976562 78.001953125 c 0
 104.000976562 61.3349609375 111.16796875 46.66796875 125.500976562 34.0009765625 c 0
 139.833984375 21.333984375 160.333984375 15.0009765625 187.000976562 15.0009765625 c 0
 214.333984375 15.0009765625 239.666992188 27.66796875 263 53.0009765625 c 0
 286.333007812 78.333984375 298 100.666992188 298 120 c 0
 298 123.333007812 295.666992188 125 291 125 c 2
195.001953125 -96.998046875 m 0
 219.668945312 -96.998046875 240.33203125 -104.999023438 256.999023438 -120.999023438 c 0
 273.666015625 -136.999023438 281.999023438 -157.999023438 281.999023438 -183.999023438 c 0
 281.999023438 -207.999023438 273.33203125 -228.33203125 255.999023438 -244.999023438 c 0
 238.666015625 -261.666015625 218.333007812 -269.999023438 195 -269.999023438 c 0
 171.666992188 -269.999023438 151.333984375 -261.33203125 134.000976562 -243.999023438 c 0
 116.66796875 -226.666015625 108.000976562 -206.666015625 108.000976562 -183.999023438 c 0
 108.000976562 -159.33203125 116.333984375 -138.665039062 133.000976562 -121.998046875 c 0
 149.66796875 -105.331054688 170.334960938 -96.998046875 195.001953125 -96.998046875 c 0
194.998046875 -124.999023438 m 0
 178.331054688 -124.999023438 164.331054688 -130.666015625 152.998046875 -141.999023438 c 0
 141.665039062 -153.33203125 135.998046875 -167.33203125 135.998046875 -183.999023438 c 0
 135.998046875 -199.33203125 141.998046875 -212.999023438 153.998046875 -224.999023438 c 0
 165.998046875 -236.999023438 179.665039062 -242.999023438 194.998046875 -242.999023438 c 0
 210.331054688 -242.999023438 223.998046875 -237.33203125 235.998046875 -225.999023438 c 0
 247.998046875 -214.666015625 253.998046875 -200.666015625 253.998046875 -183.999023438 c 0
 253.998046875 -165.999023438 248.331054688 -151.666015625 236.998046875 -140.999023438 c 0
 225.665039062 -130.33203125 211.665039062 -124.999023438 194.998046875 -124.999023438 c 0
EndSplineSet
EndChar

StartChar: P
Encoding: 80 80 43
Width: 459
GlyphClass: 2
Flags: W
LayerCount: 2
Fore
SplineSet
271 39 m 1
 286.333007812 29.6669921875 293.166015625 21.6650390625 291.499023438 14.998046875 c 0
 289.83203125 8.3310546875 279.83203125 0.6640625 261.499023438 -8.0029296875 c 0
 243.166015625 -16.669921875 230.333007812 -23.0029296875 223 -27.0029296875 c 0
 209.666992188 -33.669921875 197.5 -48.0029296875 186.5 -70.0029296875 c 0
 175.5 -92.0029296875 170 -114.3359375 170 -137.002929688 c 0
 170 -163.002929688 177.833007812 -184.169921875 193.5 -200.502929688 c 0
 209.166992188 -216.8359375 228.666992188 -225.002929688 252 -225.002929688 c 0
 281.333007812 -225.002929688 304.5 -218.502929688 321.5 -205.502929688 c 0
 338.5 -192.502929688 351 -170.002929688 359 -138.002929688 c 0
 364.333007812 -123.3359375 371.833007812 -114.668945312 381.5 -112.001953125 c 0
 391.166992188 -109.334960938 399.166992188 -112.001953125 405.5 -120.001953125 c 0
 411.833007812 -128.001953125 413.666015625 -138.668945312 410.999023438 -152.001953125 c 0
 389.666015625 -193.334960938 368.499023438 -223.16796875 347.499023438 -241.500976562 c 0
 326.499023438 -259.833984375 294.33203125 -269.000976562 250.999023438 -269.000976562 c 0
 199.666015625 -269.000976562 159.666015625 -258.833984375 130.999023438 -238.500976562 c 0
 102.33203125 -218.16796875 87.9990234375 -190.000976562 87.9990234375 -154.000976562 c 0
 87.9990234375 -97.333984375 123.666015625 -50.333984375 194.999023438 -13.0009765625 c 1
 199.666015625 -4.333984375 195.666015625 0.666015625 182.999023438 1.9990234375 c 0
 140.999023438 10.666015625 106.33203125 28.166015625 78.9990234375 54.4990234375 c 0
 51.666015625 80.83203125 37.9990234375 116.33203125 37.9990234375 160.999023438 c 0
 37.9990234375 198.999023438 46.33203125 235.166015625 62.9990234375 269.499023438 c 0
 79.666015625 303.83203125 102.999023438 332.33203125 132.999023438 354.999023438 c 0
 164.33203125 381.666015625 201.33203125 397.833007812 243.999023438 403.5 c 0
 286.666015625 409.166992188 324.333007812 406.666992188 357 396 c 0
 379.666992188 389.333007812 395.666992188 381.333007812 405 372 c 0
 414.333007812 362.666992188 419.333007812 349.333984375 420 332.000976562 c 0
 420.666992188 322.000976562 417.166992188 313.16796875 409.5 305.500976562 c 0
 401.833007812 297.833984375 392.333007812 294.000976562 381 294.000976562 c 0
 361.666992188 294.000976562 345.666992188 302.66796875 333 320.000976562 c 0
 313 349.333984375 290.333007812 364.000976562 265 364.000976562 c 0
 229 364.000976562 196.5 349.333984375 167.5 320.000976562 c 0
 138.5 290.66796875 124 249.66796875 124 197.000976562 c 0
 124 94.333984375 173 41.6669921875 271 39 c 1
EndSplineSet
EndChar

StartChar: Q
Encoding: 81 81 44
Width: 328
GlyphClass: 2
Flags: W
LayerCount: 2
Fore
SplineSet
160 407 m 0
 200 407 231.833984375 396.669921875 255.500976562 376.002929688 c 0
 279.16796875 355.3359375 289.000976562 327.668945312 285.000976562 293.001953125 c 0
 283.000976562 267.001953125 272.833984375 244.668945312 254.500976562 226.001953125 c 0
 236.16796875 207.334960938 209.66796875 188.66796875 175.000976562 170.000976562 c 0
 150.333984375 156.66796875 130.500976562 143.16796875 115.500976562 129.500976562 c 0
 100.500976562 115.833984375 92.0009765625 99.0009765625 90.0009765625 79.0009765625 c 0
 89.333984375 58.333984375 94.6669921875 42.5009765625 106 31.5009765625 c 0
 117.333007812 20.5009765625 132.666015625 15.0009765625 151.999023438 15.0009765625 c 0
 177.999023438 15.0009765625 200.166015625 23.16796875 218.499023438 39.5009765625 c 0
 236.83203125 55.833984375 259.999023438 82.0009765625 287.999023438 118.000976562 c 0
 290.666015625 120.66796875 294.499023438 122.000976562 299.499023438 122.000976562 c 0
 304.499023438 122.000976562 307.999023438 120.333984375 309.999023438 117.000976562 c 0
 300.666015625 73.0009765625 287.999023438 39.333984375 271.999023438 16.0009765625 c 1
 241.33203125 -4.666015625 203.33203125 -14.9990234375 157.999023438 -14.9990234375 c 0
 118.666015625 -14.9990234375 85.8330078125 -4.9990234375 59.5 15.0009765625 c 0
 33.1669921875 35.0009765625 21.333984375 63.333984375 24.0009765625 100.000976562 c 0
 27.333984375 131.333984375 39.0009765625 157.166992188 59.0009765625 177.5 c 0
 79.0009765625 197.833007812 105.66796875 216.666015625 139.000976562 233.999023438 c 0
 163.66796875 247.33203125 183.500976562 259.999023438 198.500976562 271.999023438 c 0
 213.500976562 283.999023438 222.000976562 298.999023438 224.000976562 316.999023438 c 0
 226.000976562 334.33203125 221.833984375 348.83203125 211.500976562 360.499023438 c 0
 201.16796875 372.166015625 186.000976562 377.999023438 166.000976562 377.999023438 c 0
 130.66796875 377.999023438 95.66796875 353.999023438 61.0009765625 305.999023438 c 0
 58.333984375 301.999023438 54.1669921875 300.666015625 48.5 301.999023438 c 0
 42.8330078125 303.33203125 39 305.665039062 37 308.998046875 c 0
 41.6669921875 319.665039062 48.1669921875 334.83203125 56.5 354.499023438 c 0
 64.8330078125 374.166015625 69.666015625 385.333007812 70.9990234375 388 c 0
 83.666015625 400.666992188 113.333007812 407 160 407 c 0
EndSplineSet
EndChar

StartChar: S
Encoding: 83 83 45
Width: 368
GlyphClass: 2
Flags: W
LayerCount: 2
Fore
SplineSet
125 276 m 1
 125 280 124.66796875 283.663085938 124.000976562 286.99609375 c 0
 113.333984375 350.329101562 106.666992188 416.329101562 104 484.99609375 c 0
 99.3330078125 561.663085938 106.333007812 618.830078125 125 656.497070312 c 0
 143.666992188 694.1640625 171.666992188 712.997070312 209 712.997070312 c 0
 237 713.6640625 259.666992188 705.1640625 277 687.497070312 c 0
 294.333007812 669.830078125 302 647.997070312 300 621.997070312 c 0
 300 608.6640625 296.5 597.831054688 289.5 589.498046875 c 0
 282.5 581.165039062 274.666992188 578.33203125 266 580.999023438 c 0
 251.333007812 584.33203125 242.333007812 589.665039062 239 596.998046875 c 0
 235.666992188 604.331054688 234.333984375 614.498046875 235.000976562 627.498046875 c 0
 235.66796875 640.498046875 233.66796875 650.165039062 229.000976562 656.498046875 c 0
 224.333984375 662.831054688 214.000976562 665.998046875 198.000976562 665.998046875 c 0
 181.333984375 666.665039062 170.166992188 655.665039062 164.5 632.998046875 c 0
 158.833007812 610.331054688 157 591.331054688 159 575.998046875 c 0
 160.333007812 545.998046875 164.333007812 511.498046875 171 472.498046875 c 0
 177.666992188 433.498046875 186.833984375 388.498046875 198.500976562 337.498046875 c 0
 210.16796875 286.498046875 217.66796875 253.331054688 221.000976562 237.998046875 c 1
 229.000976562 234.998046875 l 2
 247.000976562 227.665039062 261.000976562 228.33203125 271.000976562 236.999023438 c 0
 281.000976562 245.666015625 292.66796875 261.999023438 306.000976562 285.999023438 c 0
 308.66796875 289.999023438 312.000976562 291.33203125 316.000976562 289.999023438 c 0
 320.000976562 288.666015625 322.333984375 285.666015625 323.000976562 280.999023438 c 0
 325.000976562 247.666015625 316.66796875 220.999023438 298.000976562 200.999023438 c 0
 281.333984375 180.999023438 259.333984375 172.999023438 232.000976562 176.999023438 c 1
 239.333984375 132.33203125 244.666992188 97.9990234375 248 73.9990234375 c 0
 251.333007812 49.9990234375 253.666015625 31.83203125 254.999023438 19.4990234375 c 0
 256.33203125 7.166015625 258.33203125 -11.6669921875 260.999023438 -37 c 0
 264.999023438 -108.333007812 260.33203125 -164.833007812 246.999023438 -206.5 c 0
 233.666015625 -248.166992188 203.333007812 -270.333984375 156 -273.000976562 c 0
 139.333007812 -273.66796875 123.833007812 -270.16796875 109.5 -262.500976562 c 0
 95.1669921875 -254.833984375 84.333984375 -243.666992188 77.0009765625 -229 c 0
 69.66796875 -214.333007812 66.3349609375 -199 67.001953125 -183 c 0
 70.3349609375 -157.666992188 81.001953125 -144 99.001953125 -142 c 0
 115.668945312 -140 126.668945312 -143 132.001953125 -151 c 0
 137.334960938 -159 139.66796875 -170 139.000976562 -184 c 0
 138.333984375 -198 139.166992188 -208.166992188 141.5 -214.5 c 0
 143.833007812 -220.833007812 151.333007812 -224.333007812 164 -225 c 0
 182 -227 193.666992188 -216.666992188 199 -194 c 0
 204.333007812 -171.333007812 206 -152.666015625 204 -137.999023438 c 0
 200.666992188 -97.33203125 192.666992188 -48.4990234375 180 8.5009765625 c 0
 167.333007812 65.5009765625 152.666015625 133.66796875 135.999023438 213.000976562 c 1
 128.999023438 216.000976562 l 2
 101.666015625 227.333984375 73.3330078125 211.000976562 44 167.000976562 c 0
 42 163.66796875 39 162.66796875 35 164.000976562 c 0
 31 165.333984375 28.3330078125 167.666992188 27 171 c 0
 24.3330078125 194.333007812 37 220.666015625 65 249.999023438 c 0
 78.3330078125 268.666015625 98.3330078125 277.333007812 125 276 c 1
EndSplineSet
EndChar

StartChar: T
Encoding: 84 84 46
Width: 533
GlyphClass: 2
Flags: W
LayerCount: 2
Fore
SplineSet
386 220 m 1
 379.333007812 272.666992188 361.666015625 320.666015625 332.999023438 363.999023438 c 0
 330.33203125 369.33203125 328.999023438 375.499023438 328.999023438 382.499023438 c 0
 328.999023438 389.499023438 330.666015625 393.999023438 333.999023438 395.999023438 c 0
 373.33203125 393.999023438 401.665039062 392.999023438 418.998046875 392.999023438 c 2
 429.998046875 392.999023438 l 2
 432.665039062 392.999023438 435.33203125 393.166015625 437.999023438 393.499023438 c 0
 440.666015625 393.83203125 451.333007812 394.665039062 470 395.998046875 c 0
 474 395.331054688 476 390.498046875 476 381.498046875 c 0
 476 372.498046875 474.333007812 366.331054688 471 362.998046875 c 0
 449.666992188 364.331054688 432.333984375 364.998046875 419.000976562 364.998046875 c 0
 405.66796875 364.998046875 396.000976562 362.165039062 390.000976562 356.498046875 c 0
 384.000976562 350.831054688 384.333984375 341.331054688 391.000976562 327.998046875 c 0
 395.66796875 319.331054688 406.834960938 303.6640625 424.501953125 280.997070312 c 0
 442.168945312 258.330078125 454.001953125 237.997070312 460.001953125 219.997070312 c 1
 506.001953125 219.997070312 l 1
 506.001953125 173.997070312 l 1
 468.001953125 173.997070312 l 1
 472.001953125 117.997070312 456.668945312 72.330078125 422.001953125 36.9970703125 c 0
 387.334960938 1.6640625 334.001953125 -16.0029296875 262.001953125 -16.0029296875 c 0
 188.668945312 -16.0029296875 134.668945312 1.6640625 100.001953125 36.9970703125 c 0
 65.3349609375 72.330078125 49.66796875 117.997070312 53.0009765625 173.997070312 c 1
 18.0009765625 173.997070312 l 1
 18.0009765625 219.997070312 l 1
 61.0009765625 219.997070312 l 1
 68.333984375 238.6640625 80.6669921875 259.331054688 98 281.998046875 c 0
 115.333007812 304.665039062 126.333007812 319.665039062 131 326.998046875 c 0
 140.333007812 346.998046875 137 358.165039062 121 360.498046875 c 0
 105 362.831054688 80.6669921875 363.331054688 48 361.998046875 c 0
 46 365.331054688 45.3330078125 371.6640625 46 380.997070312 c 0
 46.6669921875 390.330078125 48.333984375 395.330078125 51.0009765625 395.997070312 c 0
 69.0009765625 394.6640625 79.5009765625 393.831054688 82.5009765625 393.498046875 c 0
 85.5009765625 393.165039062 88.333984375 392.998046875 91.0009765625 392.998046875 c 2
 102.000976562 392.998046875 l 2
 120.000976562 392.998046875 148.333984375 393.998046875 187.000976562 395.998046875 c 0
 190.333984375 394.665039062 192.166992188 390.83203125 192.5 384.499023438 c 0
 192.833007812 378.166015625 191.333007812 371.333007812 188 364 c 0
 158.666992188 322.666992188 140.666992188 274.666992188 134 220 c 1
 386 220 l 1
392 173.999023438 m 1
 130.000976562 174 l 1
 130.000976562 154 l 2
 130.000976562 116 142.16796875 84.1669921875 166.500976562 58.5 c 0
 190.833984375 32.8330078125 224.000976562 19.666015625 266.000976562 18.9990234375 c 1
 305.333984375 22.9990234375 336.166992188 37.4990234375 358.5 62.4990234375 c 0
 380.833007812 87.4990234375 392 117.999023438 392 153.999023438 c 2
 392 173.999023438 l 1
EndSplineSet
EndChar

StartChar: U
Encoding: 85 85 47
Width: 504
GlyphClass: 2
Flags: W
LayerCount: 2
Fore
SplineSet
222 578 m 2
 302.999023438 541.999023438 l 2
 320.999023438 534.666015625 334.999023438 535.166015625 344.999023438 543.499023438 c 0
 354.999023438 551.83203125 366.666015625 567.999023438 379.999023438 591.999023438 c 0
 381.999023438 595.999023438 385.166015625 597.666015625 389.499023438 596.999023438 c 0
 393.83203125 596.33203125 396.33203125 593.33203125 396.999023438 587.999023438 c 0
 398.999023438 555.33203125 390.666015625 528.33203125 371.999023438 506.999023438 c 0
 360.666015625 494.33203125 346.666015625 486.999023438 329.999023438 484.999023438 c 0
 313.33203125 482.999023438 297.33203125 484.666015625 281.999023438 489.999023438 c 2
 202.999023438 522.999023438 l 2
 175.666015625 534.999023438 147.333007812 518.666015625 118 473.999023438 c 0
 116 469.999023438 112.833007812 468.999023438 108.5 470.999023438 c 0
 104.166992188 472.999023438 101.666992188 475.666015625 101 478.999023438 c 0
 98.3330078125 500.999023438 111 527.33203125 139 557.999023438 c 0
 147 568.666015625 159.166992188 576.333007812 175.5 581 c 0
 191.833007812 585.666992188 207.333007812 584.666992188 222 578 c 2
30.9990234375 361.999023438 m 0
 28.9990234375 365.33203125 28.3291015625 371.666992188 28.99609375 381 c 0
 29.6630859375 390.333007812 31.330078125 395.333007812 33.9970703125 396 c 0
 51.9970703125 394.666992188 62.4970703125 393.833984375 65.4970703125 393.500976562 c 0
 68.4970703125 393.16796875 71.330078125 393.000976562 73.9970703125 393.000976562 c 2
 84.9970703125 393.000976562 l 2
 102.997070312 393.000976562 131.330078125 394.000976562 169.997070312 396.000976562 c 0
 173.330078125 394.66796875 175.163085938 390.834960938 175.49609375 384.501953125 c 0
 175.829101562 378.168945312 174.329101562 371.3359375 170.99609375 364.002929688 c 0
 155.663085938 343.3359375 142.99609375 313.668945312 132.99609375 275.001953125 c 0
 122.99609375 236.334960938 117.99609375 196.001953125 117.99609375 154.001953125 c 0
 117.99609375 115.334960938 129.329101562 83.3349609375 151.99609375 58.001953125 c 0
 174.663085938 32.6689453125 206.99609375 19.6689453125 248.99609375 19.001953125 c 1
 286.99609375 23.001953125 316.49609375 37.501953125 337.49609375 62.501953125 c 0
 358.49609375 87.501953125 368.99609375 118.001953125 368.99609375 154.001953125 c 0
 368.99609375 240.668945312 351.329101562 310.668945312 315.99609375 364.001953125 c 0
 313.329101562 369.334960938 311.99609375 375.501953125 311.99609375 382.501953125 c 0
 311.99609375 389.501953125 313.663085938 394.001953125 316.99609375 396.001953125 c 0
 356.329101562 394.001953125 384.662109375 393.001953125 401.995117188 393.001953125 c 2
 412.995117188 393.001953125 l 2
 415.662109375 393.001953125 418.329101562 393.168945312 420.99609375 393.501953125 c 0
 423.663085938 393.834960938 434.330078125 394.66796875 452.997070312 396.000976562 c 0
 456.997070312 395.333984375 458.997070312 390.500976562 458.997070312 381.500976562 c 0
 458.997070312 372.500976562 457.330078125 366.333984375 453.997070312 363.000976562 c 0
 432.6640625 364.333984375 415.331054688 365.000976562 401.998046875 365.000976562 c 0
 388.665039062 365.000976562 378.998046875 362.16796875 372.998046875 356.500976562 c 0
 366.998046875 350.833984375 367.331054688 341.333984375 373.998046875 328.000976562 c 0
 384.665039062 312.66796875 395.998046875 295.66796875 407.998046875 277.000976562 c 0
 419.998046875 258.333984375 429.998046875 239.666992188 437.998046875 221 c 0
 445.998046875 202.333007812 450.665039062 183 451.998046875 163 c 0
 457.331054688 111 442.331054688 68.3330078125 406.998046875 35 c 0
 371.665039062 1.6669921875 317.665039062 -15 244.998046875 -15 c 0
 171.665039062 -15 117.33203125 1.3330078125 81.9990234375 34 c 0
 46.666015625 66.6669921875 30.9990234375 109.666992188 34.9990234375 163 c 0
 36.33203125 183 41.33203125 202.833007812 49.9990234375 222.5 c 0
 58.666015625 242.166992188 70.9990234375 263.666992188 86.9990234375 287 c 0
 102.999023438 310.333007812 111.999023438 323.666015625 113.999023438 326.999023438 c 0
 123.33203125 346.999023438 119.999023438 358.166015625 103.999023438 360.499023438 c 0
 87.9990234375 362.83203125 63.666015625 363.33203125 30.9990234375 361.999023438 c 0
EndSplineSet
EndChar

StartChar: V
Encoding: 86 86 48
Width: 495
GlyphClass: 2
Flags: W
LayerCount: 2
Fore
SplineSet
254 -97 m 0
 278.666992188 -97 299.330078125 -105.000976562 315.997070312 -121.000976562 c 0
 332.6640625 -137.000976562 340.997070312 -158.000976562 340.997070312 -184.000976562 c 0
 340.997070312 -208.000976562 332.330078125 -228.333984375 314.997070312 -245.000976562 c 0
 297.6640625 -261.66796875 277.331054688 -270.000976562 253.998046875 -270.000976562 c 0
 230.665039062 -270.000976562 210.33203125 -261.333984375 192.999023438 -244.000976562 c 0
 175.666015625 -226.66796875 166.999023438 -206.66796875 166.999023438 -184.000976562 c 0
 166.999023438 -159.333984375 175.33203125 -138.666992188 191.999023438 -122 c 0
 208.666015625 -105.333007812 229.333007812 -97 254 -97 c 0
253.99609375 -125.000976562 m 0
 237.329101562 -125.000976562 223.329101562 -130.66796875 211.99609375 -142.000976562 c 0
 200.663085938 -153.333984375 194.99609375 -167.333984375 194.99609375 -184.000976562 c 0
 194.99609375 -199.333984375 200.99609375 -213.000976562 212.99609375 -225.000976562 c 0
 224.99609375 -237.000976562 238.663085938 -243.000976562 253.99609375 -243.000976562 c 0
 269.329101562 -243.000976562 282.99609375 -237.333984375 294.99609375 -226.000976562 c 0
 306.99609375 -214.66796875 312.99609375 -200.66796875 312.99609375 -184.000976562 c 0
 312.99609375 -166.000976562 307.329101562 -151.66796875 295.99609375 -141.000976562 c 0
 284.663085938 -130.333984375 270.663085938 -125.000976562 253.99609375 -125.000976562 c 0
158.99609375 355.999023438 m 1
 158.997070312 146 l 2
 158.997070312 100 163.1640625 66.8330078125 171.497070312 46.5 c 0
 179.830078125 26.1669921875 202.997070312 17 240.997070312 19 c 0
 282.997070312 22.3330078125 313.997070312 30.666015625 333.997070312 43.9990234375 c 0
 353.997070312 57.33203125 369.6640625 81.6650390625 380.997070312 116.998046875 c 0
 390.330078125 145.665039062 393.830078125 181.998046875 391.497070312 225.998046875 c 0
 389.1640625 269.998046875 379.331054688 300.665039062 361.998046875 317.998046875 c 0
 351.998046875 327.998046875 344.331054688 334.331054688 338.998046875 336.998046875 c 0
 333.665039062 339.665039062 327.998046875 340.998046875 321.998046875 340.998046875 c 0
 315.998046875 340.998046875 309.331054688 342.331054688 301.998046875 344.998046875 c 0
 293.998046875 348.331054688 288.665039062 354.331054688 285.998046875 362.998046875 c 0
 281.998046875 376.331054688 286.165039062 387.1640625 298.498046875 395.497070312 c 0
 310.831054688 403.830078125 328.6640625 407.663085938 351.997070312 406.99609375 c 0
 377.330078125 406.329101562 398.163085938 393.49609375 414.49609375 368.49609375 c 0
 430.829101562 343.49609375 440.99609375 312.99609375 444.99609375 276.99609375 c 0
 451.663085938 224.329101562 450.663085938 179.329101562 441.99609375 141.99609375 c 0
 429.99609375 89.99609375 412.163085938 53.8291015625 388.49609375 33.49609375 c 0
 364.829101562 13.1630859375 339.329101562 -0.669921875 311.99609375 -8.0029296875 c 0
 294.663085938 -12.669921875 268.663085938 -15.0029296875 233.99609375 -15.0029296875 c 0
 189.329101562 -15.0029296875 153.329101562 -4.169921875 125.99609375 17.4970703125 c 0
 98.6630859375 39.1640625 84.99609375 69.9970703125 84.99609375 109.997070312 c 2
 84.99609375 286.997070312 l 2
 84.99609375 312.997070312 82.99609375 329.330078125 78.99609375 335.997070312 c 0
 74.99609375 342.6640625 61.6630859375 348.6640625 38.99609375 353.997070312 c 2
 29.99609375 355.997070312 l 2
 27.99609375 357.997070312 26.99609375 360.830078125 26.99609375 364.497070312 c 0
 26.99609375 368.1640625 28.3291015625 370.6640625 30.99609375 371.997070312 c 0
 84.99609375 380.6640625 125.329101562 400.331054688 151.99609375 430.998046875 c 1
 159.99609375 429.665039062 163.99609375 427.33203125 163.99609375 423.999023438 c 2
 158.99609375 355.999023438 l 1
EndSplineSet
EndChar

StartChar: W
Encoding: 87 87 49
Width: 936
GlyphClass: 2
Flags: W
LayerCount: 2
Fore
SplineSet
449 355 m 0
 431.666992188 351 422.998046875 324.6640625 422.998046875 275.997070312 c 2
 422.998046875 84.9970703125 l 2
 424.331054688 -9.669921875 421.998046875 -76.0029296875 415.998046875 -114.002929688 c 0
 405.998046875 -162.002929688 382.498046875 -199.669921875 345.498046875 -227.002929688 c 0
 308.498046875 -254.3359375 270.331054688 -268.668945312 230.998046875 -270.001953125 c 0
 176.331054688 -270.668945312 129.998046875 -257.668945312 91.998046875 -231.001953125 c 0
 86.6650390625 -228.334960938 81.83203125 -221.001953125 77.4990234375 -209.001953125 c 0
 73.166015625 -197.001953125 73.666015625 -183.668945312 78.9990234375 -169.001953125 c 0
 84.33203125 -156.334960938 96.33203125 -149.66796875 114.999023438 -149.000976562 c 0
 133.666015625 -148.333984375 144.333007812 -153.333984375 147 -164.000976562 c 0
 149 -175.333984375 151.333007812 -187.500976562 154 -200.500976562 c 0
 156.666992188 -213.500976562 164.833984375 -223.66796875 178.500976562 -231.000976562 c 0
 192.16796875 -238.333984375 215.66796875 -240.000976562 249.000976562 -236.000976562 c 0
 272.333984375 -233.333984375 294.333984375 -222.333984375 315.000976562 -203.000976562 c 0
 335.66796875 -183.66796875 347.000976562 -152.000976562 349.000976562 -108.000976562 c 2
 349.000976562 -62.5009765625 l 1
 349.000976562 -13.0009765625 l 2
 349.66796875 2.9990234375 346.66796875 10.9990234375 340.000976562 10.9990234375 c 0
 310.000976562 -6.333984375 276.000976562 -15.0009765625 238.000976562 -15.0009765625 c 0
 171.333984375 -15.0009765625 120.833984375 6.166015625 86.5009765625 48.4990234375 c 0
 52.16796875 90.83203125 35.0009765625 135.33203125 35.0009765625 181.999023438 c 0
 35.0009765625 228.666015625 45.833984375 268.999023438 67.5009765625 302.999023438 c 0
 89.16796875 336.999023438 118.334960938 362.83203125 155.001953125 380.499023438 c 0
 191.668945312 398.166015625 231.668945312 406.999023438 275.001953125 406.999023438 c 0
 307.001953125 406.999023438 334.668945312 403.666015625 358.001953125 396.999023438 c 0
 375.334960938 392.33203125 387.001953125 389.999023438 393.001953125 389.999023438 c 0
 394.334960938 389.999023438 398.66796875 390.666015625 406.000976562 391.999023438 c 0
 413.333984375 393.33203125 417.500976562 394.165039062 418.500976562 394.498046875 c 0
 419.500976562 394.831054688 425.333984375 394.998046875 436.000976562 394.998046875 c 0
 464.000976562 394.998046875 488.500976562 394.665039062 509.500976562 393.998046875 c 0
 530.500976562 393.331054688 551.333984375 392.998046875 572.000976562 392.998046875 c 0
 596.66796875 392.998046875 634.000976562 393.998046875 684.000976562 395.998046875 c 0
 688.000976562 395.331054688 690.000976562 391.998046875 690.000976562 385.998046875 c 0
 690.000976562 379.998046875 688.333984375 375.665039062 685.000976562 372.998046875 c 2
 653.000976562 369.998046875 l 2
 632.333984375 367.998046875 619.666992188 363.331054688 615 355.998046875 c 0
 610.333007812 348.665039062 608 329.33203125 608 297.999023438 c 2
 608 232.999023438 l 2
 608 227.666015625 609.833007812 223.999023438 613.5 221.999023438 c 0
 617.166992188 219.999023438 624.666992188 218.999023438 636 218.999023438 c 0
 654.666992188 218.999023438 667.666992188 223.666015625 675 232.999023438 c 0
 715.666992188 294.33203125 739 328.33203125 745 334.999023438 c 0
 767 360.999023438 787.833007812 378.83203125 807.5 388.499023438 c 0
 827.166992188 398.166015625 851.666992188 402.999023438 881 402.999023438 c 0
 900.333007812 402.999023438 914 401.666015625 922 398.999023438 c 1
 926.666992188 390.999023438 926.666992188 384.666015625 922 379.999023438 c 1
 899.333007812 378.666015625 878.666015625 372.333007812 859.999023438 361 c 0
 840.666015625 349.666992188 825.499023438 336.5 814.499023438 321.5 c 0
 803.499023438 306.5 780.999023438 271.333007812 746.999023438 216 c 0
 742.999023438 210.666992188 742.999023438 206.666992188 746.999023438 204 c 0
 804.999023438 182.666992188 833.999023438 150 833.999023438 106 c 0
 833.999023438 64 816.83203125 35.5 782.499023438 20.5 c 0
 748.166015625 5.5 702.333007812 -2 645 -2 c 0
 584.333007812 -2 528 -0.3330078125 476 3 c 0
 472 5 470 9.3330078125 470 16 c 0
 470 22.6669921875 472 26 476 26 c 2
 512 29 l 2
 522.666992188 29.6669921875 529.166992188 34.6669921875 531.5 44 c 0
 533.833007812 53.3330078125 535 74 535 106 c 2
 535 290 l 2
 535 311.333007812 533.333007812 326.833007812 530 336.5 c 0
 526.666992188 346.166992188 519.166992188 352.166992188 507.5 354.5 c 0
 495.833007812 356.833007812 476.333007812 357 449 355 c 0
606.998046875 50.9970703125 m 2
 606.998046875 40.330078125 609.831054688 33.6650390625 615.498046875 30.998046875 c 0
 621.165039062 28.3310546875 632.998046875 26.998046875 650.998046875 26.998046875 c 0
 684.331054688 26.998046875 709.6640625 34.6650390625 726.997070312 49.998046875 c 0
 744.330078125 65.3310546875 752.997070312 84.998046875 752.997070312 108.998046875 c 0
 752.997070312 139.665039062 745.330078125 160.998046875 729.997070312 172.998046875 c 0
 714.6640625 184.998046875 690.331054688 190.998046875 656.998046875 190.998046875 c 0
 632.998046875 190.998046875 618.665039062 190.165039062 613.998046875 188.498046875 c 0
 609.331054688 186.831054688 606.998046875 180.6640625 606.998046875 169.997070312 c 2
 606.998046875 50.9970703125 l 2
350.998046875 81.9990234375 m 2
 350.997070312 230 l 2
 350.997070312 288 348.6640625 321.333007812 343.997070312 330 c 0
 337.330078125 342.666992188 325.497070312 353.5 308.497070312 362.5 c 0
 291.497070312 371.5 271.997070312 376 249.997070312 376 c 0
 211.330078125 376 179.830078125 360.5 155.497070312 329.5 c 0
 131.1640625 298.5 118.997070312 259.666992188 118.997070312 213 c 0
 118.997070312 158.333007812 133.830078125 113.5 163.497070312 78.5 c 0
 193.1640625 43.5 230.997070312 26 276.997070312 26 c 0
 311.6640625 26 333.331054688 31.3330078125 341.998046875 42 c 0
 347.998046875 49.3330078125 350.998046875 62.666015625 350.998046875 81.9990234375 c 2
EndSplineSet
EndChar

StartChar: X
Encoding: 88 88 50
Width: 440
GlyphClass: 2
Flags: W
LayerCount: 2
Fore
SplineSet
273 184 m 0
 281.666992188 178.666992188 293.166015625 166.166992188 307.499023438 146.5 c 0
 321.83203125 126.833007812 328.999023438 108 328.999023438 90 c 0
 328.999023438 59.3330078125 317.83203125 34.166015625 295.499023438 14.4990234375 c 0
 273.166015625 -5.16796875 247.999023438 -15.0009765625 219.999023438 -15.0009765625 c 0
 187.999023438 -15.0009765625 162.499023438 -5.5009765625 143.499023438 13.4990234375 c 0
 124.499023438 32.4990234375 114.999023438 53.9990234375 114.999023438 77.9990234375 c 0
 114.999023438 115.999023438 137.33203125 152.999023438 181.999023438 188.999023438 c 0
 185.33203125 192.999023438 187.499023438 195.666015625 188.499023438 196.999023438 c 0
 189.499023438 198.33203125 188.33203125 201.665039062 184.999023438 206.998046875 c 2
 89.9990234375 325.998046875 l 2
 73.9990234375 349.331054688 53.9990234375 363.6640625 29.9990234375 368.997070312 c 2
 5.9990234375 370.997070312 l 2
 3.33203125 373.6640625 2.33203125 378.331054688 2.9990234375 384.998046875 c 0
 3.666015625 391.665039062 5.3330078125 395.33203125 8 395.999023438 c 0
 55.3330078125 393.999023438 87 392.999023438 103 392.999023438 c 0
 118.333007812 392.999023438 149.333007812 393.999023438 196 395.999023438 c 0
 199.333007812 394.666015625 201.333007812 391.166015625 202 385.499023438 c 0
 202.666992188 379.83203125 201 374.999023438 197 370.999023438 c 2
 174 368.999023438 l 2
 160.666992188 365.666015625 153.666992188 361.833007812 153 357.5 c 0
 152.333007812 353.166992188 156.333007812 342 165 324 c 2
 213 254 l 2
 215.666992188 251.333007812 218.333984375 248 221.000976562 244 c 2
 229.000976562 232 l 1
 229.66796875 232.666992188 249.000976562 261 287.000976562 317 c 0
 304.333984375 343.666992188 300.666992188 361 276 369 c 1
 256 371 l 2
 252.666992188 374.333007812 251.666992188 379.166015625 253 385.499023438 c 0
 254.333007812 391.83203125 256.666015625 395.33203125 259.999023438 395.999023438 c 0
 291.33203125 393.999023438 318.33203125 392.999023438 340.999023438 392.999023438 c 0
 368.33203125 392.999023438 395.33203125 393.999023438 421.999023438 395.999023438 c 0
 425.999023438 393.999023438 428.33203125 390.33203125 428.999023438 384.999023438 c 0
 429.666015625 379.666015625 427.999023438 374.999023438 423.999023438 370.999023438 c 2
 400.999023438 368.999023438 l 2
 390.999023438 366.33203125 382.33203125 360.83203125 374.999023438 352.499023438 c 0
 367.666015625 344.166015625 362.999023438 339.333007812 360.999023438 338 c 0
 344.999023438 324.666992188 311.999023438 284.333984375 261.999023438 217.000976562 c 0
 258.666015625 213.000976562 256.333007812 209.500976562 255 206.500976562 c 0
 253.666992188 203.500976562 254.666992188 200.66796875 258 198.000976562 c 0
 261.333007812 195.333984375 266.333007812 190.666992188 273 184 c 0
224.999023438 13 m 0
 256.999023438 19 272.999023438 42.3330078125 272.999023438 83 c 0
 272.999023438 112.333007812 257.999023438 140.333007812 227.999023438 167 c 0
 224.666015625 170.333007812 221.666015625 171.166015625 218.999023438 169.499023438 c 0
 216.33203125 167.83203125 210.999023438 162.999023438 202.999023438 154.999023438 c 0
 178.33203125 134.33203125 165.999023438 109.999023438 165.999023438 81.9990234375 c 0
 165.999023438 63.9990234375 172.33203125 47.33203125 184.999023438 31.9990234375 c 0
 197.666015625 16.666015625 210.999023438 10.3330078125 224.999023438 13 c 0
EndSplineSet
EndChar

StartChar: Y
Encoding: 89 89 51
Width: 464
GlyphClass: 2
Flags: W
LayerCount: 2
Fore
SplineSet
262 58 m 1
 262.000976562 -168.002929688 l 2
 262.000976562 -188.002929688 263.000976562 -201.669921875 265.000976562 -209.002929688 c 0
 267.000976562 -216.3359375 271.333984375 -221.668945312 278.000976562 -225.001953125 c 0
 284.66796875 -228.334960938 294.66796875 -230.334960938 308.000976562 -231.001953125 c 2
 340.000976562 -234.001953125 l 2
 343.333984375 -236.001953125 344.666992188 -239.834960938 344 -245.501953125 c 0
 343.333007812 -251.168945312 341.333007812 -255.001953125 338 -257.001953125 c 0
 287.333007812 -255.001953125 249.666015625 -254.001953125 224.999023438 -254.001953125 c 0
 201.666015625 -254.001953125 164.333007812 -255.001953125 113 -257.001953125 c 0
 109.666992188 -255.001953125 107.666992188 -251.168945312 107 -245.501953125 c 0
 106.333007812 -239.834960938 107.666015625 -236.001953125 110.999023438 -234.001953125 c 2
 142.999023438 -231.001953125 l 2
 164.33203125 -229.001953125 177.33203125 -224.668945312 181.999023438 -218.001953125 c 0
 186.666015625 -211.334960938 188.999023438 -194.66796875 188.999023438 -168.000976562 c 2
 188.999023438 49.9990234375 l 2
 186.33203125 56.666015625 183.83203125 62.8330078125 181.499023438 68.5 c 0
 179.166015625 74.1669921875 175.999023438 81.6669921875 171.999023438 91 c 2
 87.9990234375 294 l 2
 78.666015625 318.666992188 70.3330078125 336.666992188 63 348 c 0
 55.6669921875 359.333007812 44 366.333007812 28 369 c 2
 -0 371 l 2
 -2.6669921875 374.333007812 -3.6669921875 379.166015625 -3 385.499023438 c 0
 -2.3330078125 391.83203125 -0.3330078125 395.33203125 3 395.999023438 c 0
 36.3330078125 393.999023438 70.3330078125 392.999023438 105 392.999023438 c 0
 122.333007812 392.999023438 152 393.999023438 194 395.999023438 c 0
 198 393.999023438 200 389.999023438 200 383.999023438 c 0
 200 377.999023438 198.333007812 373.666015625 195 370.999023438 c 2
 175 369.999023438 l 2
 160.333007812 367.33203125 151.833007812 363.665039062 149.5 358.998046875 c 0
 147.166992188 354.331054688 148.333984375 344.6640625 153.000976562 329.997070312 c 0
 173.000976562 269.330078125 198.000976562 205.663085938 228.000976562 138.99609375 c 0
 237.333984375 118.99609375 242.666992188 108.329101562 244 106.99609375 c 0
 248 108.99609375 254.333007812 121.663085938 263 144.99609375 c 0
 270.333007812 162.99609375 280.833007812 189.829101562 294.5 225.49609375 c 0
 308.166992188 261.163085938 316.666992188 282.99609375 320 290.99609375 c 0
 332 321.663085938 338 342.330078125 338 352.997070312 c 0
 338 360.997070312 332 366.330078125 320 368.997070312 c 2
 289 370.997070312 l 2
 286.333007812 374.330078125 285.333007812 378.830078125 286 384.497070312 c 0
 286.666992188 390.1640625 288.333984375 393.997070312 291.000976562 395.997070312 c 0
 330.333984375 393.997070312 358.000976562 392.997070312 374.000976562 392.997070312 c 0
 390.000976562 392.997070312 416.000976562 393.997070312 452.000976562 395.997070312 c 0
 456.000976562 393.997070312 458.000976562 389.997070312 458.000976562 383.997070312 c 0
 458.000976562 377.997070312 456.66796875 373.6640625 454.000976562 370.997070312 c 2
 431.000976562 369.997070312 l 2
 416.333984375 367.330078125 406.000976562 362.330078125 400.000976562 354.997070312 c 0
 394.000976562 347.6640625 380.000976562 323.331054688 358.000976562 281.998046875 c 0
 352.000976562 270.665039062 335.66796875 233.83203125 309.000976562 171.499023438 c 0
 282.333984375 109.166015625 266.666992188 71.3330078125 262 58 c 1
EndSplineSet
EndChar

StartChar: Z
Encoding: 90 90 52
Width: 411
GlyphClass: 2
Flags: W
LayerCount: 2
Fore
SplineSet
328 411 m 1
 335.333007812 413 340.666992188 412.998046875 344 410.998046875 c 0
 348 400.998046875 351.5 382.998046875 354.5 356.998046875 c 0
 357.5 330.998046875 357.666992188 309.998046875 355 293.998046875 c 0
 352.333007812 290.665039062 348.166015625 288.665039062 342.499023438 287.998046875 c 0
 336.83203125 287.331054688 332.999023438 287.998046875 330.999023438 289.998046875 c 0
 325.666015625 319.331054688 316.666015625 338.998046875 303.999023438 348.998046875 c 0
 291.33203125 358.331054688 268.33203125 362.998046875 234.999023438 362.998046875 c 2
 175.999023438 362.998046875 l 2
 165.999023438 362.998046875 160.166015625 361.331054688 158.499023438 357.998046875 c 0
 156.83203125 354.665039062 159.665039062 346.33203125 166.998046875 332.999023438 c 2
 272.998046875 152.999023438 l 2
 316.331054688 79.666015625 348.331054688 30.9990234375 368.998046875 6.9990234375 c 0
 368.998046875 2.33203125 366.998046875 -1.0009765625 362.998046875 -3.0009765625 c 0
 350.998046875 -1.0009765625 315.998046875 -0.0009765625 257.998046875 -0.0009765625 c 2
 167.998046875 -0.0009765625 l 2
 126.665039062 -0.0009765625 89.33203125 -1.0009765625 55.9990234375 -3.0009765625 c 1
 43.33203125 18.9990234375 36.9990234375 56.9990234375 36.9990234375 110.999023438 c 0
 38.33203125 114.999023438 41.4990234375 117.83203125 46.4990234375 119.499023438 c 0
 51.4990234375 121.166015625 55.666015625 120.666015625 58.9990234375 117.999023438 c 0
 65.666015625 88.666015625 73.3330078125 69.3330078125 82 60 c 0
 91.3330078125 46.6669921875 104.833007812 38.1669921875 122.5 34.5 c 0
 140.166992188 30.8330078125 163 29 191 29 c 2
 225 29 l 2
 244.333007812 29 255 31.6669921875 257 37 c 0
 259 42.3330078125 254.666992188 53 244 69 c 2
 123 272 l 2
 94.3330078125 319.333007812 69.666015625 357.333007812 48.9990234375 386 c 0
 48.33203125 390.666992188 49.9990234375 394 53.9990234375 396 c 0
 63.9990234375 394 84.33203125 393 114.999023438 393 c 2
 256.999023438 393 l 2
 287.666015625 393 306.833007812 394 314.5 396 c 0
 322.166992188 398 326.666992188 403 328 411 c 1
213.000976562 -97.001953125 m 0
 237.66796875 -97.001953125 258.331054688 -105.002929688 274.998046875 -121.002929688 c 0
 291.665039062 -137.002929688 299.998046875 -158.002929688 299.998046875 -184.002929688 c 0
 299.998046875 -208.002929688 291.331054688 -228.3359375 273.998046875 -245.002929688 c 0
 256.665039062 -261.669921875 236.33203125 -270.002929688 212.999023438 -270.002929688 c 0
 189.666015625 -270.002929688 169.333007812 -261.3359375 152 -244.002929688 c 0
 134.666992188 -226.669921875 126 -206.669921875 126 -184.002929688 c 0
 126 -159.3359375 134.333007812 -138.668945312 151 -122.001953125 c 0
 167.666992188 -105.334960938 188.333984375 -97.001953125 213.000976562 -97.001953125 c 0
212.997070312 -125.002929688 m 0
 196.330078125 -125.002929688 182.330078125 -130.669921875 170.997070312 -142.002929688 c 0
 159.6640625 -153.3359375 153.997070312 -167.3359375 153.997070312 -184.002929688 c 0
 153.997070312 -199.3359375 159.997070312 -213.002929688 171.997070312 -225.002929688 c 0
 183.997070312 -237.002929688 197.6640625 -243.002929688 212.997070312 -243.002929688 c 0
 228.330078125 -243.002929688 241.997070312 -237.3359375 253.997070312 -226.002929688 c 0
 265.997070312 -214.669921875 271.997070312 -200.669921875 271.997070312 -184.002929688 c 0
 271.997070312 -166.002929688 266.330078125 -151.669921875 254.997070312 -141.002929688 c 0
 243.6640625 -130.3359375 229.6640625 -125.002929688 212.997070312 -125.002929688 c 0
EndSplineSet
EndChar

StartChar: bracketleft
Encoding: 91 91 53
Width: 235
GlyphClass: 2
Flags: W
LayerCount: 2
Fore
SplineSet
50 192 m 0
 50 264.666992188 61 327.83203125 83 381.499023438 c 0
 105 435.166015625 141.666992188 475.666015625 193 502.999023438 c 0
 197.666992188 502.999023438 200 496.666015625 200 483.999023438 c 1
 171.333007812 459.33203125 150.166015625 432.999023438 136.499023438 404.999023438 c 0
 122.83203125 376.999023438 113.999023438 346.83203125 109.999023438 314.499023438 c 0
 105.999023438 282.166015625 103.999023438 241.333007812 103.999023438 192 c 0
 103.999023438 145.333007812 105.999023438 106 109.999023438 74 c 0
 113.999023438 42 122.83203125 12 136.499023438 -16 c 0
 150.166015625 -44 171.333007812 -70.3330078125 200 -95 c 1
 200 -107.666992188 197.666992188 -114 193 -114 c 0
 97.6669921875 -62.6669921875 50 39.3330078125 50 192 c 0
EndSplineSet
EndChar

StartChar: backslash
Encoding: 92 92 54
Width: 425
GlyphClass: 2
Flags: W
LayerCount: 2
Fore
SplineSet
34 51 m 0
 53.3330078125 103.666992188 65.3330078125 142.165039062 70 166.498046875 c 0
 74.6669921875 190.831054688 74.333984375 216.1640625 69.0009765625 242.497070312 c 0
 63.66796875 268.830078125 52.0009765625 306.997070312 34.0009765625 356.997070312 c 0
 32.66796875 361.6640625 35.16796875 365.831054688 41.5009765625 369.498046875 c 0
 47.833984375 373.165039062 52.0009765625 373.33203125 54.0009765625 369.999023438 c 0
 88.0009765625 333.999023438 135.66796875 283.999023438 197.000976562 219.999023438 c 0
 207.66796875 211.33203125 207.66796875 200.999023438 197.000976562 188.999023438 c 0
 175.000976562 167.666015625 149.66796875 141.499023438 121.000976562 110.499023438 c 0
 92.333984375 79.4990234375 70.0009765625 55.666015625 54.0009765625 38.9990234375 c 0
 51.333984375 34.9990234375 47.1669921875 35.33203125 41.5 39.9990234375 c 0
 35.8330078125 44.666015625 33.3330078125 48.3330078125 34 51 c 0
204 50.998046875 m 0
 223.333007812 103.665039062 235.333007812 142.163085938 240 166.49609375 c 0
 244.666992188 190.829101562 244.333984375 216.162109375 239.000976562 242.495117188 c 0
 233.66796875 268.828125 222.000976562 306.995117188 204.000976562 356.995117188 c 0
 202.66796875 361.662109375 205.16796875 365.829101562 211.500976562 369.49609375 c 0
 217.833984375 373.163085938 222.000976562 373.330078125 224.000976562 369.997070312 c 0
 258.000976562 333.997070312 305.66796875 283.997070312 367.000976562 219.997070312 c 0
 377.66796875 211.330078125 377.66796875 200.997070312 367.000976562 188.997070312 c 0
 345.000976562 167.6640625 319.66796875 141.497070312 291.000976562 110.497070312 c 0
 262.333984375 79.4970703125 240.000976562 55.6640625 224.000976562 38.9970703125 c 0
 221.333984375 34.9970703125 217.166992188 35.330078125 211.5 39.9970703125 c 0
 205.833007812 44.6640625 203.333007812 48.3310546875 204 50.998046875 c 0
EndSplineSet
EndChar

StartChar: bracketright
Encoding: 93 93 55
Width: 235
GlyphClass: 2
Flags: W
LayerCount: 2
Fore
SplineSet
187 192 m 0
 187 39.3330078125 139.333007812 -62.6650390625 44 -113.998046875 c 0
 39.3330078125 -113.998046875 37 -107.665039062 37 -94.998046875 c 1
 65.6669921875 -70.3310546875 86.833984375 -43.998046875 100.500976562 -15.998046875 c 0
 114.16796875 12.001953125 123.000976562 42.001953125 127.000976562 74.001953125 c 0
 131.000976562 106.001953125 133.000976562 145.334960938 133.000976562 192.001953125 c 0
 133.000976562 241.334960938 131.000976562 282.16796875 127.000976562 314.500976562 c 0
 123.000976562 346.833984375 114.16796875 377.000976562 100.500976562 405.000976562 c 0
 86.833984375 433.000976562 65.6669921875 459.333984375 37 484.000976562 c 1
 37 496.66796875 39.3330078125 503.000976562 44 503.000976562 c 0
 95.3330078125 475.66796875 132 435.16796875 154 381.500976562 c 0
 176 327.833984375 187 264.666992188 187 192 c 0
EndSplineSet
EndChar

StartChar: asciicircum
Encoding: 94 94 56
Width: 195
GlyphClass: 2
Flags: W
LayerCount: 2
Fore
SplineSet
94 472 m 0
 79.3330078125 472 66.3330078125 477.333007812 55 488 c 0
 43.6669921875 498.666992188 38 512 38 528 c 0
 38 545.333007812 43.1669921875 559.5 53.5 570.5 c 0
 63.8330078125 581.5 77.3330078125 587 94 587 c 0
 110.666992188 587 124.166992188 581.5 134.5 570.5 c 0
 144.833007812 559.5 150 545.333007812 150 528 c 0
 150 511.333007812 144.833007812 497.833007812 134.5 487.5 c 0
 124.166992188 477.166992188 110.666992188 472 94 472 c 0
97 -138 m 0
 82.3330078125 -138 69.3330078125 -133 58 -123 c 0
 46.6669921875 -113 41 -99.6669921875 41 -83 c 0
 41 -66.3330078125 46.3330078125 -52.3330078125 57 -41 c 0
 67.6669921875 -29.6669921875 81 -24 97 -24 c 0
 114.333007812 -24 128 -29.6669921875 138 -41 c 0
 148 -52.3330078125 153 -66.3330078125 153 -83 c 0
 153 -99 147.833007812 -112.166992188 137.5 -122.5 c 0
 127.166992188 -132.833007812 113.666992188 -138 97 -138 c 0
EndSplineSet
EndChar

StartChar: underscore
Encoding: 95 95 57
Width: 478
GlyphClass: 2
Flags: W
LayerCount: 2
Fore
SplineSet
219 -15 m 0
 172.333007812 -15 132 -4.501953125 98 16.498046875 c 0
 64 37.498046875 47 62.6650390625 47 91.998046875 c 0
 47 154.665039062 83.3330078125 191.33203125 156 201.999023438 c 1
 124 205.33203125 97.8330078125 213.83203125 77.5 227.499023438 c 0
 57.1669921875 241.166015625 47 259.333007812 47 282 c 0
 47 327.333007812 71.6669921875 361.666015625 121 384.999023438 c 0
 156.333007812 401.666015625 201.333007812 408.999023438 256 406.999023438 c 0
 314 406.33203125 357.666992188 386.33203125 387 346.999023438 c 0
 416.333007812 307.666015625 431 257.333007812 431 196 c 0
 431 134.666992188 410.166992188 84.1669921875 368.5 44.5 c 0
 326.833007812 4.8330078125 277 -15 219 -15 c 0
219 22.998046875 m 0
 262.333007812 22.998046875 297.002929688 40.1640625 323.002929688 74.4970703125 c 0
 349.002929688 108.830078125 362.002929688 150.330078125 362.002929688 198.997070312 c 0
 362.002929688 246.997070312 349.502929688 288.330078125 324.502929688 322.997070312 c 0
 299.502929688 357.6640625 266.669921875 375.997070312 226.002929688 377.997070312 c 0
 200.002929688 376.6640625 176.3359375 368.997070312 155.002929688 354.997070312 c 0
 133.669921875 340.997070312 121.002929688 320.6640625 117.002929688 293.997070312 c 0
 113.669921875 268.6640625 119.669921875 249.1640625 135.002929688 235.497070312 c 0
 150.3359375 221.830078125 174.002929688 218.330078125 206.002929688 224.997070312 c 0
 221.3359375 228.997070312 233.168945312 228.997070312 241.501953125 224.997070312 c 0
 249.834960938 220.997070312 254.834960938 215.997070312 256.501953125 209.997070312 c 0
 258.168945312 203.997070312 256.668945312 197.830078125 252.001953125 191.497070312 c 0
 247.334960938 185.1640625 241.334960938 181.6640625 234.001953125 180.997070312 c 0
 221.334960938 180.997070312 211.66796875 181.830078125 205.000976562 183.497070312 c 0
 198.333984375 185.1640625 190.666992188 185.331054688 182 183.998046875 c 0
 168.666992188 182.665039062 156.5 172.165039062 145.5 152.498046875 c 0
 134.5 132.831054688 129 113.331054688 129 93.998046875 c 0
 129 72.6650390625 138 55.498046875 156 42.498046875 c 0
 174 29.498046875 195 22.998046875 219 22.998046875 c 0
208.002929688 577.997070312 m 2
 289.001953125 541.99609375 l 2
 307.001953125 534.663085938 321.001953125 535.163085938 331.001953125 543.49609375 c 0
 341.001953125 551.829101562 352.668945312 567.99609375 366.001953125 591.99609375 c 0
 368.001953125 595.99609375 371.168945312 597.663085938 375.501953125 596.99609375 c 0
 379.834960938 596.329101562 382.334960938 593.329101562 383.001953125 587.99609375 c 0
 385.001953125 555.329101562 376.668945312 528.329101562 358.001953125 506.99609375 c 0
 346.668945312 494.329101562 332.668945312 486.99609375 316.001953125 484.99609375 c 0
 299.334960938 482.99609375 283.334960938 484.663085938 268.001953125 489.99609375 c 2
 189.001953125 522.99609375 l 2
 161.668945312 534.99609375 133.3359375 518.663085938 104.002929688 473.99609375 c 0
 102.002929688 469.99609375 98.8359375 468.99609375 94.5029296875 470.99609375 c 0
 90.169921875 472.99609375 87.669921875 475.663085938 87.0029296875 478.99609375 c 0
 84.3359375 500.99609375 97.0029296875 527.329101562 125.002929688 557.99609375 c 0
 133.002929688 568.663085938 145.169921875 576.330078125 161.502929688 580.997070312 c 0
 177.8359375 585.6640625 193.3359375 584.6640625 208.002929688 577.997070312 c 2
EndSplineSet
EndChar

StartChar: grave
Encoding: 96 96 58
Width: 515
GlyphClass: 2
Flags: W
LayerCount: 2
Fore
SplineSet
121 80 m 1
 89.6669921875 142 74.0009765625 219.333007812 74.0009765625 312 c 0
 74.0009765625 398 89.0009765625 473.833007812 119.000976562 539.5 c 0
 149.000976562 605.166992188 192.66796875 638 250.000976562 638 c 0
 292.000976562 638 327.333984375 618.666992188 356.000976562 580 c 1
 381.000976562 632 l 1
 430.000976562 632 l 1
 384.000976562 533 l 1
 397.333984375 505 407.666992188 471.5 415 432.5 c 0
 422.333007812 393.5 426 353.333007812 426 312 c 0
 426 224.666992188 411 148.5 381 83.5 c 0
 351 18.5 307.333007812 -14 250 -14 c 0
 210.666992188 -14 177 2.6669921875 149 36 c 1
 123 -21 l 1
 74 -21 l 1
 121 80 l 1
155.000976562 151 m 1
 331.000976562 527.000976562 l 1
 314.333984375 577.66796875 287.333984375 603.000976562 250.000976562 603.000976562 c 0
 179.333984375 603.000976562 144.000976562 506.000976562 144.000976562 312.000976562 c 0
 144.000976562 247.333984375 147.66796875 193.666992188 155.000976562 151 c 1
347.000976562 456.000976562 m 1
 173.000976562 86.0009765625 l 1
 189.000976562 42.66796875 214.66796875 21.0009765625 250.000976562 21.0009765625 c 0
 293.333984375 21.0009765625 321.833984375 51.0009765625 335.500976562 111.000976562 c 0
 349.16796875 171.000976562 356.000976562 238.000976562 356.000976562 312.000976562 c 0
 356.000976562 369.333984375 353.000976562 417.333984375 347.000976562 456.000976562 c 1
EndSplineSet
EndChar

StartChar: a
Encoding: 97 97 59
Width: 411
GlyphClass: 2
Flags: W
LayerCount: 2
Fore
SplineSet
226 0 m 2
 135.997070312 0 l 2
 77.9970703125 0 42.9970703125 -1 30.9970703125 -3 c 0
 26.9970703125 -1 24.9970703125 2.3330078125 24.9970703125 7 c 0
 45.6640625 31 77.6640625 79.6669921875 120.997070312 153 c 2
 226.997070312 333 l 2
 234.330078125 346.333007812 237.163085938 354.666015625 235.49609375 357.999023438 c 0
 233.829101562 361.33203125 227.99609375 362.999023438 217.99609375 362.999023438 c 2
 148.99609375 362.999023438 l 2
 115.663085938 362.999023438 93.330078125 358.33203125 81.9970703125 348.999023438 c 0
 68.6640625 338.33203125 54.9970703125 312.33203125 40.9970703125 270.999023438 c 0
 38.330078125 268.999023438 34.1630859375 268.33203125 28.49609375 268.999023438 c 0
 22.8291015625 269.666015625 17.99609375 271.666015625 13.99609375 274.999023438 c 1
 25.99609375 312.999023438 37.3291015625 364.999023438 47.99609375 430.999023438 c 1
 54.6630859375 433.666015625 61.330078125 433.666015625 67.9970703125 430.999023438 c 1
 69.9970703125 412.999023438 74.830078125 402.166015625 82.4970703125 398.499023438 c 0
 90.1640625 394.83203125 108.997070312 392.999023438 138.997070312 392.999023438 c 2
 278.997070312 392.999023438 l 2
 309.6640625 392.999023438 329.997070312 393.999023438 339.997070312 395.999023438 c 0
 343.997070312 393.999023438 345.6640625 390.666015625 344.997070312 385.999023438 c 0
 324.330078125 357.33203125 299.663085938 319.33203125 270.99609375 271.999023438 c 2
 149.99609375 68.9990234375 l 2
 139.99609375 51.666015625 135.99609375 40.666015625 137.99609375 35.9990234375 c 0
 139.99609375 31.33203125 150.329101562 28.9990234375 168.99609375 28.9990234375 c 2
 202.99609375 28.9990234375 l 2
 230.99609375 28.9990234375 254.49609375 30.83203125 273.49609375 34.4990234375 c 0
 292.49609375 38.166015625 308.329101562 46.666015625 320.99609375 59.9990234375 c 0
 331.663085938 70.666015625 342.330078125 93.3330078125 352.997070312 128 c 0
 357.6640625 130.666992188 362.331054688 131.166992188 366.998046875 129.5 c 0
 371.665039062 127.833007812 374.33203125 125 374.999023438 121 c 0
 365.666015625 61 353.333007812 19.6669921875 338 -3 c 1
 305.333007812 -1 268 0 226 0 c 2
197.997070312 -223 m 0
 181.330078125 -223 167.99609375 -217.5 157.99609375 -206.5 c 0
 147.99609375 -195.5 142.99609375 -181.666992188 142.99609375 -165 c 0
 142.99609375 -147 148.49609375 -133.166992188 159.49609375 -123.5 c 0
 170.49609375 -113.833007812 184.329101562 -109 200.99609375 -109 c 0
 217.663085938 -109 231.330078125 -114.333007812 241.997070312 -125 c 0
 252.6640625 -135.666992188 257.997070312 -148.333984375 257.997070312 -163.000976562 c 0
 257.997070312 -180.333984375 251.997070312 -194.666992188 239.997070312 -206 c 0
 227.997070312 -217.333007812 213.997070312 -223 197.997070312 -223 c 0
EndSplineSet
EndChar

StartChar: b
Encoding: 98 98 60
Width: 534
GlyphClass: 2
Flags: W
LayerCount: 2
Fore
SplineSet
83 600 m 2
 83 620.666992188 79.0009765625 633.333984375 71.0009765625 638.000976562 c 0
 63.0009765625 642.66796875 47.333984375 645.66796875 24.0009765625 647.000976562 c 2
 6.0009765625 649.000976562 l 2
 4.0009765625 652.333984375 3.0009765625 656.166992188 3.0009765625 660.5 c 0
 3.0009765625 664.833007812 4.333984375 667.666015625 7.0009765625 668.999023438 c 0
 50.333984375 683.666015625 96.0009765625 703.999023438 144.000976562 729.999023438 c 0
 146.000976562 731.33203125 150.000976562 730.665039062 156.000976562 727.998046875 c 0
 162.000976562 725.331054688 165.000976562 722.998046875 165.000976562 720.998046875 c 2
 157.000976562 603.998046875 l 1
 157.000976562 394.998046875 l 2
 157.000976562 380.998046875 160.333984375 373.998046875 167.000976562 373.998046875 c 0
 207.66796875 395.998046875 246.000976562 406.998046875 282.000976562 406.998046875 c 0
 320.000976562 406.998046875 353.333984375 398.331054688 382.000976562 380.998046875 c 0
 410.66796875 363.665039062 433.000976562 340.33203125 449.000976562 310.999023438 c 0
 465.000976562 281.666015625 473.000976562 248.333007812 473.000976562 211 c 0
 473.000976562 154.333007812 456.000976562 105.666015625 422.000976562 64.9990234375 c 0
 388.000976562 24.33203125 343.333984375 -1.0009765625 288.000976562 -11.0009765625 c 1
 268.000976562 -38.0009765625 l 2
 262.66796875 -47.333984375 265.66796875 -55.0009765625 277.000976562 -61.0009765625 c 0
 307.66796875 -82.333984375 323.000976562 -106.000976562 323.000976562 -132.000976562 c 0
 323.000976562 -157.333984375 312.500976562 -178.333984375 291.500976562 -195.000976562 c 0
 270.500976562 -211.66796875 246.333984375 -220.000976562 219.000976562 -220.000976562 c 0
 180.333984375 -220.000976562 161.000976562 -208.66796875 161.000976562 -186.000976562 c 0
 161.000976562 -179.333984375 163.333984375 -173.333984375 168.000976562 -168.000976562 c 0
 172.66796875 -162.66796875 178.66796875 -160.000976562 186.000976562 -160.000976562 c 0
 194.000976562 -160.000976562 203.833984375 -164.833984375 215.500976562 -174.500976562 c 0
 227.16796875 -184.16796875 235.000976562 -189.000976562 239.000976562 -189.000976562 c 0
 257.000976562 -189.000976562 266.000976562 -178.66796875 266.000976562 -158.000976562 c 0
 266.000976562 -144.66796875 259.66796875 -131.66796875 247.000976562 -119.000976562 c 0
 234.333984375 -106.333984375 219.666992188 -96.6669921875 203 -90 c 1
 203 -85 l 1
 250 -15 l 1
 243 -15 l 2
 213 -15 184.666992188 -10.3330078125 158 -1 c 0
 128 7.6669921875 114 12 116 12 c 1
 109.333007812 12 102.333007812 7 95 -3 c 0
 94.3330078125 -3.6669921875 93 -4 91 -4 c 0
 86.3330078125 -4 83 -2 81 2 c 0
 82.3330078125 20.6669921875 83 49 83 87 c 2
 83 600 l 2
155.000976562 291 m 2
 155.000976562 134.999023438 l 2
 155.000976562 98.9990234375 164.000976562 70.33203125 182.000976562 48.9990234375 c 0
 200.000976562 26.9990234375 225.333984375 15.9990234375 258.000976562 15.9990234375 c 0
 302.000976562 15.9990234375 334.833984375 31.83203125 356.500976562 63.4990234375 c 0
 378.16796875 95.166015625 389.000976562 134.666015625 389.000976562 181.999023438 c 0
 389.000976562 235.999023438 375.66796875 279.83203125 349.000976562 313.499023438 c 0
 322.333984375 347.166015625 285.000976562 363.999023438 237.000976562 363.999023438 c 0
 209.000976562 363.999023438 186.333984375 358.999023438 169.000976562 348.999023438 c 0
 159.66796875 341.666015625 155.000976562 322.333007812 155.000976562 291 c 2
EndSplineSet
EndChar

StartChar: c
Encoding: 99 99 61
Width: 792
GlyphClass: 2
Flags: W
LayerCount: 2
Fore
SplineSet
350 600 m 2
 350 620.666992188 345.666015625 633.334960938 336.999023438 638.001953125 c 0
 328.33203125 642.668945312 311.999023438 645.668945312 287.999023438 647.001953125 c 2
 269.999023438 649.001953125 l 2
 267.999023438 652.334960938 266.999023438 656.16796875 266.999023438 660.500976562 c 0
 266.999023438 664.833984375 268.33203125 667.666992188 270.999023438 669 c 0
 316.33203125 684.333007812 362.999023438 704.666015625 410.999023438 729.999023438 c 1
 424.999023438 727.33203125 431.999023438 724.33203125 431.999023438 720.999023438 c 2
 423.999023438 645.999023438 l 1
 423.999023438 395.999023438 l 1
 451.33203125 393.999023438 471.665039062 392.999023438 484.998046875 392.999023438 c 2
 647.998046875 392.999023438 l 2
 688.665039062 392.999023438 716.998046875 393.999023438 732.998046875 395.999023438 c 0
 736.331054688 394.666015625 737.998046875 389.999023438 737.998046875 381.999023438 c 0
 737.998046875 371.33203125 736.331054688 365.33203125 732.998046875 363.999023438 c 0
 721.665039062 359.999023438 712.83203125 354.499023438 706.499023438 347.499023438 c 0
 700.166015625 340.499023438 686.999023438 323.666015625 666.999023438 296.999023438 c 2
 613.999023438 217.999023438 l 1
 625.999023438 212.999023438 l 2
 643.999023438 205.666015625 657.999023438 206.166015625 667.999023438 214.499023438 c 0
 677.999023438 222.83203125 689.666015625 238.999023438 702.999023438 262.999023438 c 0
 704.999023438 266.33203125 708.166015625 267.665039062 712.499023438 266.998046875 c 0
 716.83203125 266.331054688 719.33203125 263.6640625 719.999023438 258.997070312 c 0
 721.999023438 226.330078125 713.666015625 199.330078125 694.999023438 177.997070312 c 0
 671.666015625 151.330078125 641.666015625 145.663085938 604.999023438 160.99609375 c 2
 581.999023438 169.99609375 l 1
 561.999023438 140.99609375 l 2
 554.666015625 128.329101562 551.333007812 121.829101562 552 121.49609375 c 0
 552.666992188 121.163085938 559 120.99609375 571 120.99609375 c 0
 633.666992188 120.329101562 679.666992188 101.329101562 709 63.99609375 c 0
 738.333007812 26.6630859375 753 -17.00390625 753 -67.00390625 c 0
 753 -97.6708984375 745.833007812 -126.00390625 731.5 -152.00390625 c 0
 717.166992188 -178.00390625 695.333984375 -203.670898438 666.000976562 -229.00390625 c 1
 632.66796875 -248.336914062 606.334960938 -259.836914062 587.001953125 -263.50390625 c 0
 567.668945312 -267.170898438 539.3359375 -269.00390625 502.002929688 -269.00390625 c 0
 479.3359375 -269.00390625 458.8359375 -263.00390625 440.502929688 -251.00390625 c 0
 422.169921875 -239.00390625 413.002929688 -223.336914062 413.002929688 -204.00390625 c 0
 413.002929688 -194.00390625 416.002929688 -185.670898438 422.002929688 -179.00390625 c 0
 428.002929688 -172.336914062 436.669921875 -169.00390625 448.002929688 -169.00390625 c 0
 461.3359375 -169.00390625 475.668945312 -179.670898438 491.001953125 -201.00390625 c 0
 499.001953125 -211.670898438 506.501953125 -219.50390625 513.501953125 -224.50390625 c 0
 520.501953125 -229.50390625 529.001953125 -232.00390625 539.001953125 -232.00390625 c 0
 590.334960938 -231.336914062 625.334960938 -217.336914062 644.001953125 -190.00390625 c 0
 662.668945312 -162.670898438 672.001953125 -121.670898438 672.001953125 -67.00390625 c 0
 672.001953125 -30.3369140625 664.668945312 2.330078125 650.001953125 30.9970703125 c 0
 635.334960938 59.6640625 614.66796875 75.9970703125 588.000976562 79.9970703125 c 0
 560.66796875 83.9970703125 536.000976562 83.330078125 514.000976562 77.9970703125 c 1
 494.66796875 80.6640625 488.000976562 90.9970703125 494.000976562 108.997070312 c 1
 506.000976562 127.997070312 l 1
 543.000976562 186.997070312 l 1
 526.000976562 193.997070312 l 2
 498.000976562 205.997070312 469.66796875 189.330078125 441.000976562 143.997070312 c 0
 439.000976562 141.330078125 436.16796875 140.497070312 432.500976562 141.497070312 c 0
 428.833984375 142.497070312 426.333984375 144.997070312 425.000976562 148.997070312 c 0
 422.333984375 171.6640625 434.666992188 197.997070312 462 227.997070312 c 0
 470 238.6640625 482.166992188 246.331054688 498.5 250.998046875 c 0
 514.833007812 255.665039062 530.333007812 254.665039062 545 247.998046875 c 2
 574 234.998046875 l 1
 624 314.998046875 l 2
 626.666992188 320.331054688 627.833984375 322.998046875 627.500976562 322.998046875 c 2
 607.000976562 322.998046875 l 1
 463.000976562 322.998046875 l 2
 445.66796875 322.998046875 434.834960938 321.998046875 430.501953125 319.998046875 c 0
 426.168945312 317.998046875 424.001953125 312.331054688 424.001953125 302.998046875 c 2
 424.001953125 145.998046875 l 2
 424.001953125 95.3310546875 424.668945312 63.998046875 426.001953125 51.998046875 c 0
 427.334960938 39.998046875 433.334960938 32.3310546875 444.001953125 28.998046875 c 0
 446.001953125 28.998046875 449.168945312 26.498046875 453.501953125 21.498046875 c 0
 457.834960938 16.498046875 458.001953125 9.6650390625 454.001953125 0.998046875 c 1
 443.334960938 -1.6689453125 428.66796875 -5.1689453125 410.000976562 -9.501953125 c 0
 391.333984375 -13.8349609375 375.666992188 -18.66796875 363 -24.0009765625 c 0
 355.666992188 -24.0009765625 352 -21.333984375 352 -16.0009765625 c 2
 352 0.9990234375 l 2
 352 18.9990234375 351.333007812 28.9990234375 350 30.9990234375 c 2
 346 30.9990234375 l 1
 318.666992188 13.666015625 296.666992188 1.666015625 280 -5.0009765625 c 0
 263.333007812 -11.66796875 243.333007812 -15.0009765625 220 -15.0009765625 c 0
 165.333007812 -15.0009765625 120.833007812 3.83203125 86.5 41.4990234375 c 0
 52.1669921875 79.166015625 35 124.333007812 35 177 c 0
 35 245.666992188 58 301.166992188 104 343.5 c 0
 150 385.833007812 207.666992188 407 277 407 c 0
 305 407 327.333007812 404 344 398 c 0
 348 398 350 402.666992188 350 412 c 2
 350 600 l 2
351.999023438 99.0009765625 m 2
 351.997070312 295.000976562 l 2
 351.997070312 308.333984375 347.6640625 321.333984375 338.997070312 334.000976562 c 0
 318.997070312 362.000976562 290.997070312 376.000976562 254.997070312 376.000976562 c 0
 211.6640625 376.000976562 177.831054688 359.833984375 153.498046875 327.500976562 c 0
 129.165039062 295.16796875 116.998046875 256.000976562 116.998046875 210.000976562 c 0
 116.998046875 162.000976562 130.331054688 120.66796875 156.998046875 86.0009765625 c 0
 183.665039062 51.333984375 219.998046875 34.0009765625 265.998046875 34.0009765625 c 0
 298.665039062 34.0009765625 324.33203125 43.333984375 342.999023438 62.0009765625 c 0
 348.999023438 68.0009765625 351.999023438 80.333984375 351.999023438 99.0009765625 c 2
EndSplineSet
EndChar

StartChar: d
Encoding: 100 100 62
Width: 540
GlyphClass: 2
Flags: W
LayerCount: 2
Fore
SplineSet
350 600 m 2
 350 621.333007812 346 634.16796875 338 638.500976562 c 0
 330 642.833984375 313.333007812 645.666992188 288 647 c 2
 270 649 l 2
 268 652.333007812 267 656.166015625 267 660.499023438 c 0
 267 664.83203125 268.333007812 667.665039062 271 668.998046875 c 0
 316.333007812 684.331054688 363 704.6640625 411 729.997070312 c 1
 425 727.330078125 432 724.330078125 432 720.997070312 c 2
 424 645.997070312 l 1
 424 528.997070312 l 1
 440 526.330078125 452.833007812 528.330078125 462.5 534.997070312 c 0
 472.166992188 541.6640625 483.666992188 554.6640625 497 573.997070312 c 0
 499 578.6640625 502.166992188 580.331054688 506.5 578.998046875 c 0
 510.833007812 577.665039062 513 574.33203125 513 568.999023438 c 0
 512.333007812 548.999023438 509.666015625 535.33203125 504.999023438 527.999023438 c 0
 500.33203125 520.666015625 492.33203125 511.999023438 480.999023438 501.999023438 c 0
 467.666015625 489.33203125 448.666015625 484.33203125 423.999023438 486.999023438 c 1
 423.999023438 145.999023438 l 2
 423.999023438 99.9990234375 425.666015625 68.9990234375 428.999023438 52.9990234375 c 0
 432.33203125 36.9990234375 440.33203125 28.9990234375 452.999023438 28.9990234375 c 0
 459.666015625 28.9990234375 473.999023438 32.666015625 495.999023438 39.9990234375 c 0
 499.999023438 39.33203125 501.999023438 34.4990234375 501.999023438 25.4990234375 c 0
 501.999023438 16.4990234375 499.666015625 10.666015625 494.999023438 7.9990234375 c 0
 442.33203125 0.666015625 398.33203125 -10.0009765625 362.999023438 -24.0009765625 c 0
 355.666015625 -24.0009765625 351.999023438 -21.333984375 351.999023438 -16.0009765625 c 2
 351.999023438 0.9990234375 l 2
 351.999023438 18.9990234375 351.33203125 28.9990234375 349.999023438 30.9990234375 c 2
 345.999023438 30.9990234375 l 1
 318.666015625 13.666015625 296.666015625 1.666015625 279.999023438 -5.0009765625 c 0
 263.33203125 -11.66796875 243.33203125 -15.0009765625 219.999023438 -15.0009765625 c 0
 165.33203125 -15.0009765625 120.83203125 3.83203125 86.4990234375 41.4990234375 c 0
 52.166015625 79.166015625 34.9990234375 124.333007812 34.9990234375 177 c 0
 34.9990234375 245.666992188 57.9990234375 301.166992188 103.999023438 343.5 c 0
 149.999023438 385.833007812 207.666015625 407 276.999023438 407 c 0
 304.999023438 407 327.33203125 404 343.999023438 398 c 0
 347.999023438 398 349.999023438 402.666992188 349.999023438 412 c 2
 349.999023438 508 l 1
 313.999023438 522 l 2
 283.33203125 534 252.999023438 521.333007812 222.999023438 484 c 0
 220.999023438 481.333007812 217.83203125 481 213.499023438 483 c 0
 209.166015625 485 206.999023438 487.333007812 206.999023438 490 c 0
 206.999023438 502 211.83203125 514.833007812 221.499023438 528.5 c 0
 231.166015625 542.166992188 241.333007812 552 252 558 c 0
 276.666992188 572 307.666992188 572.666992188 345 560 c 2
 350 558 l 1
 350 600 l 2
352 99.001953125 m 2
 351.998046875 295.001953125 l 2
 351.998046875 308.334960938 347.665039062 321.334960938 338.998046875 334.001953125 c 0
 318.998046875 362.001953125 290.998046875 376.001953125 254.998046875 376.001953125 c 0
 211.665039062 376.001953125 177.83203125 359.834960938 153.499023438 327.501953125 c 0
 129.166015625 295.168945312 116.999023438 256.001953125 116.999023438 210.001953125 c 0
 116.999023438 162.001953125 130.33203125 120.668945312 156.999023438 86.001953125 c 0
 183.666015625 51.3349609375 219.999023438 34.001953125 265.999023438 34.001953125 c 0
 298.666015625 34.001953125 324.333007812 43.3349609375 343 62.001953125 c 0
 349 68.001953125 352 80.3349609375 352 99.001953125 c 2
EndSplineSet
EndChar

StartChar: e
Encoding: 101 101 63
Width: 414
GlyphClass: 2
Flags: W
LayerCount: 2
Fore
SplineSet
326 237 m 2
 127.998046875 237.002929688 l 2
 114.665039062 237.002929688 106.83203125 235.669921875 104.499023438 233.002929688 c 0
 102.166015625 230.3359375 100.999023438 222.668945312 100.999023438 210.001953125 c 0
 100.999023438 159.334960938 115.499023438 118.66796875 144.499023438 88.0009765625 c 0
 173.499023438 57.333984375 214.33203125 42.0009765625 266.999023438 42.0009765625 c 0
 302.999023438 42.0009765625 333.666015625 58.0009765625 358.999023438 90.0009765625 c 1
 369.666015625 93.333984375 375.666015625 89.6669921875 376.999023438 79 c 1
 362.999023438 49 340.499023438 25.8330078125 309.499023438 9.5 c 0
 278.499023438 -6.8330078125 248.666015625 -15 219.999023438 -15 c 0
 157.999023438 -15 109.666015625 7 74.9990234375 51 c 0
 46.9990234375 87.6669921875 32.9990234375 131.333984375 32.9990234375 182.000976562 c 0
 32.9990234375 245.333984375 51.83203125 298.666992188 89.4990234375 342 c 0
 127.166015625 385.333007812 175.333007812 407 234 407 c 0
 279.333007812 407 314 394.666992188 338 370 c 0
 362 345.333007812 376 312.333007812 380 271 c 0
 380.666992188 257.666992188 380.666992188 249 380 245 c 0
 378.666992188 239.666992188 360.666992188 237 326 237 c 2
118.998046875 268.002929688 m 2
 189.998046875 268.001953125 l 2
 255.331054688 268.001953125 291.998046875 271.001953125 299.998046875 277.001953125 c 0
 303.998046875 279.668945312 305.998046875 292.001953125 305.998046875 314.001953125 c 0
 305.998046875 330.668945312 298.831054688 345.3359375 284.498046875 358.002929688 c 0
 270.165039062 370.669921875 249.665039062 377.002929688 222.998046875 377.002929688 c 0
 195.665039062 377.002929688 170.665039062 364.502929688 147.998046875 339.502929688 c 0
 125.331054688 314.502929688 113.331054688 292.002929688 111.998046875 272.002929688 c 0
 111.998046875 269.3359375 114.331054688 268.002929688 118.998046875 268.002929688 c 2
193.998046875 578.001953125 m 2
 274.997070312 542.000976562 l 2
 292.997070312 534.66796875 306.997070312 535.16796875 316.997070312 543.500976562 c 0
 326.997070312 551.833984375 338.6640625 568.000976562 351.997070312 592.000976562 c 0
 353.997070312 596.000976562 357.1640625 597.66796875 361.497070312 597.000976562 c 0
 365.830078125 596.333984375 368.330078125 593.333984375 368.997070312 588.000976562 c 0
 370.997070312 555.333984375 362.6640625 528.333984375 343.997070312 507.000976562 c 0
 332.6640625 494.333984375 318.6640625 487.000976562 301.997070312 485.000976562 c 0
 285.330078125 483.000976562 269.330078125 484.66796875 253.997070312 490.000976562 c 2
 174.997070312 523.000976562 l 2
 147.6640625 535.000976562 119.331054688 518.66796875 89.998046875 474.000976562 c 0
 87.998046875 470.000976562 84.8310546875 469.000976562 80.498046875 471.000976562 c 0
 76.1650390625 473.000976562 73.6650390625 475.66796875 72.998046875 479.000976562 c 0
 70.3310546875 501.000976562 82.998046875 527.333984375 110.998046875 558.000976562 c 0
 118.998046875 568.66796875 131.165039062 576.334960938 147.498046875 581.001953125 c 0
 163.831054688 585.668945312 179.331054688 584.668945312 193.998046875 578.001953125 c 2
EndSplineSet
EndChar

StartChar: f
Encoding: 102 102 64
Width: 309
GlyphClass: 2
Flags: W
LayerCount: 2
Fore
SplineSet
97 411 m 0
 97 440.333007812 97.1708984375 470.994140625 97.50390625 502.994140625 c 0
 97.8369140625 534.994140625 99.669921875 563.494140625 103.002929688 588.494140625 c 0
 106.3359375 613.494140625 113.002929688 635.327148438 123.002929688 653.994140625 c 0
 143.669921875 689.994140625 172.002929688 709.661132812 208.002929688 712.994140625 c 0
 252.002929688 716.994140625 279.002929688 707.327148438 289.002929688 683.994140625 c 0
 295.002929688 668.661132812 294.002929688 656.328125 286.002929688 646.995117188 c 0
 278.002929688 637.662109375 268.3359375 633.329101562 257.002929688 633.99609375 c 0
 245.669921875 634.663085938 241.002929688 638.99609375 243.002929688 646.99609375 c 0
 246.3359375 666.329101562 241.668945312 679.829101562 229.001953125 687.49609375 c 0
 216.334960938 695.163085938 202.001953125 689.99609375 186.001953125 671.99609375 c 0
 181.334960938 667.329101562 177.501953125 657.829101562 174.501953125 643.49609375 c 0
 171.501953125 629.163085938 169.834960938 612.663085938 169.501953125 593.99609375 c 0
 169.168945312 575.329101562 169.001953125 553.49609375 169.001953125 528.49609375 c 2
 169.001953125 448.99609375 l 1
 169.001953125 420.99609375 l 2
 169.001953125 407.663085938 169.668945312 399.663085938 171.001953125 396.99609375 c 0
 172.334960938 394.329101562 177.334960938 392.99609375 186.001953125 392.99609375 c 2
 262.001953125 392.99609375 l 1
 268.001953125 388.99609375 270.001953125 381.49609375 268.001953125 370.49609375 c 0
 266.001953125 359.49609375 262.334960938 352.99609375 257.001953125 350.99609375 c 2
 179.001953125 350.99609375 l 1
 186.001953125 350.99609375 l 1
 177.334960938 350.99609375 172.334960938 349.663085938 171.001953125 346.99609375 c 0
 169.668945312 344.329101562 169.001953125 335.99609375 169.001953125 321.99609375 c 2
 169.001953125 110.99609375 l 2
 169.001953125 83.6630859375 169.668945312 64.830078125 171.001953125 54.4970703125 c 0
 172.334960938 44.1640625 175.66796875 36.9970703125 181.000976562 32.9970703125 c 0
 186.333984375 28.9970703125 195.000976562 26.330078125 207.000976562 24.9970703125 c 2
 243.000976562 21.9970703125 l 2
 247.000976562 19.9970703125 248.66796875 15.830078125 248.000976562 9.4970703125 c 0
 247.333984375 3.1640625 245.000976562 -1.0029296875 241.000976562 -3.0029296875 c 0
 213.000976562 -1.669921875 194.000976562 -1.0029296875 184.000976562 -1.0029296875 c 1
 159.000976562 -38.0029296875 l 2
 153.66796875 -47.3359375 156.66796875 -55.0029296875 168.000976562 -61.0029296875 c 0
 198.66796875 -82.3359375 214.000976562 -106.002929688 214.000976562 -132.002929688 c 0
 214.000976562 -157.3359375 203.500976562 -178.3359375 182.500976562 -195.002929688 c 0
 161.500976562 -211.669921875 137.333984375 -220.002929688 110.000976562 -220.002929688 c 0
 71.333984375 -220.002929688 52.0009765625 -208.669921875 52.0009765625 -186.002929688 c 0
 52.0009765625 -179.3359375 54.333984375 -173.3359375 59.0009765625 -168.002929688 c 0
 63.66796875 -162.669921875 69.66796875 -160.002929688 77.0009765625 -160.002929688 c 0
 85.0009765625 -160.002929688 94.833984375 -164.8359375 106.500976562 -174.502929688 c 0
 118.16796875 -184.169921875 126.000976562 -189.002929688 130.000976562 -189.002929688 c 0
 148.000976562 -189.002929688 157.000976562 -178.669921875 157.000976562 -158.002929688 c 0
 157.000976562 -144.669921875 150.66796875 -131.669921875 138.000976562 -119.002929688 c 0
 125.333984375 -106.3359375 110.666992188 -96.6689453125 94 -90.001953125 c 1
 94 -85.001953125 l 1
 148 -0.001953125 l 1
 132 -0.001953125 l 2
 98 -0.001953125 66 -1.001953125 36 -3.001953125 c 0
 32 -0.3349609375 29.6669921875 3.83203125 29 9.4990234375 c 0
 28.3330078125 15.166015625 30 19.3330078125 34 22 c 2
 57 25 l 2
 75 27 85.8330078125 32.5 89.5 41.5 c 0
 93.1669921875 50.5 95 73.6669921875 95 111 c 2
 95 322 l 2
 95 336 94.1669921875 344.333007812 92.5 347 c 0
 90.8330078125 349.666992188 85 351 75 351 c 2
 25 351 l 1
 17.6669921875 355.666992188 16.6669921875 362 22 370 c 1
 80 391 l 2
 91.3330078125 397 97 403.666992188 97 411 c 0
EndSplineSet
EndChar

StartChar: g
Encoding: 103 103 65
Width: 753
GlyphClass: 2
Flags: W
LayerCount: 2
Fore
SplineSet
579 255 m 2
 579 276.333007812 577.668945312 292.163085938 575.001953125 302.49609375 c 0
 572.334960938 312.829101562 567.834960938 319.829101562 561.501953125 323.49609375 c 0
 555.168945312 327.163085938 545.668945312 329.49609375 533.001953125 330.49609375 c 0
 520.334960938 331.49609375 500.66796875 331.99609375 474.000976562 331.99609375 c 0
 450.000976562 333.329101562 435.500976562 333.162109375 430.500976562 331.495117188 c 0
 425.500976562 329.828125 423.000976562 323.328125 423.000976562 311.995117188 c 2
 423.000976562 84.9951171875 l 2
 424.333984375 -10.337890625 418.000976562 -76.6708984375 404.000976562 -114.00390625 c 1
 394.000976562 -162.00390625 370.500976562 -199.670898438 333.500976562 -227.00390625 c 0
 296.500976562 -254.336914062 258.333984375 -268.669921875 219.000976562 -270.002929688 c 0
 167.000976562 -270.669921875 127.66796875 -257.669921875 101.000976562 -231.002929688 c 0
 95.66796875 -228.3359375 90.8349609375 -221.002929688 86.501953125 -209.002929688 c 0
 82.1689453125 -197.002929688 82.6689453125 -183.669921875 88.001953125 -169.002929688 c 0
 93.3349609375 -156.3359375 104.001953125 -149.668945312 120.001953125 -149.001953125 c 0
 136.001953125 -148.334960938 145.334960938 -153.334960938 148.001953125 -164.001953125 c 0
 149.334960938 -168.001953125 151.66796875 -175.834960938 155.000976562 -187.501953125 c 0
 158.333984375 -199.168945312 162.666992188 -209.001953125 168 -217.001953125 c 0
 173.333007812 -225.001953125 181.5 -230.834960938 192.5 -234.501953125 c 0
 203.5 -238.168945312 218.666992188 -238.668945312 238 -236.001953125 c 0
 261.333007812 -230.668945312 284.666015625 -218.501953125 307.999023438 -199.501953125 c 0
 331.33203125 -180.501953125 343.999023438 -146.668945312 345.999023438 -98.001953125 c 0
 347.999023438 -54.001953125 348.999023438 -25.6689453125 348.999023438 -13.001953125 c 0
 349.666015625 2.998046875 346.666015625 10.998046875 339.999023438 10.998046875 c 0
 309.999023438 -6.3349609375 275.999023438 -15.001953125 237.999023438 -15.001953125 c 0
 171.33203125 -15.001953125 120.83203125 6.1650390625 86.4990234375 48.498046875 c 0
 52.166015625 90.8310546875 34.9990234375 135.331054688 34.9990234375 181.998046875 c 0
 34.9990234375 228.665039062 45.83203125 268.998046875 67.4990234375 302.998046875 c 0
 89.166015625 336.998046875 118.333007812 362.831054688 155 380.498046875 c 0
 191.666992188 398.165039062 231.666992188 406.998046875 275 406.998046875 c 0
 307 406.998046875 334.666992188 403.665039062 358 396.998046875 c 0
 375.333007812 392.331054688 387 389.331054688 393 387.998046875 c 0
 468.333007812 369.331054688 526.666015625 367.331054688 567.999023438 381.998046875 c 0
 570.666015625 382.665039062 582.499023438 387.998046875 603.499023438 397.998046875 c 0
 624.499023438 407.998046875 638.999023438 415.665039062 646.999023438 420.998046875 c 0
 652.999023438 420.998046875 656.33203125 418.998046875 656.999023438 414.998046875 c 0
 654.33203125 368.331054688 652.999023438 326.998046875 652.999023438 290.998046875 c 2
 652.999023438 -114.001953125 l 1
 677.666015625 -132.001953125 698.833007812 -155.168945312 716.5 -183.501953125 c 0
 734.166992188 -211.834960938 743.333984375 -237.66796875 744.000976562 -261.000976562 c 0
 745.333984375 -270.333984375 741.000976562 -276.000976562 731.000976562 -278.000976562 c 0
 721.000976562 -280.000976562 713.66796875 -277.000976562 709.000976562 -269.000976562 c 0
 707.66796875 -266.333984375 704.500976562 -259.000976562 699.500976562 -247.000976562 c 0
 694.500976562 -235.000976562 687.66796875 -222.333984375 679.000976562 -209.000976562 c 0
 670.333984375 -195.66796875 659.666992188 -183.334960938 647 -172.001953125 c 1
 643 -193.334960938 637.333007812 -210.66796875 630 -224.000976562 c 0
 610.666992188 -255.333984375 581 -270.666992188 541 -270 c 0
 510.333007812 -269.333007812 486.333007812 -259 469 -239 c 0
 451.666992188 -219 443 -196 443 -170 c 0
 443 -141.333007812 452.166992188 -117 470.5 -97 c 0
 488.833007812 -77 513 -67 543 -67 c 0
 554.333007812 -67 566.333007812 -70.3330078125 579 -77 c 1
 579 255 l 2
539.001953125 -225.002929688 m 0
 552.334960938 -225.002929688 563.671875 -220.3359375 573.004882812 -211.002929688 c 0
 582.337890625 -201.669921875 586.670898438 -188.669921875 586.00390625 -172.002929688 c 0
 585.336914062 -146.669921875 581.336914062 -130.669921875 574.00390625 -124.002929688 c 0
 566.670898438 -117.3359375 556.337890625 -114.002929688 543.004882812 -114.002929688 c 0
 530.337890625 -114.002929688 521.670898438 -116.002929688 517.00390625 -120.002929688 c 0
 512.336914062 -124.002929688 506.669921875 -131.002929688 500.002929688 -141.002929688 c 0
 496.002929688 -147.669921875 494.002929688 -156.669921875 494.002929688 -168.002929688 c 0
 494.002929688 -184.002929688 498.169921875 -197.502929688 506.502929688 -208.502929688 c 0
 514.8359375 -219.502929688 525.668945312 -225.002929688 539.001953125 -225.002929688 c 0
566.005859375 665.997070312 m 0
 590.672851562 665.997070312 611.3359375 657.666015625 628.002929688 640.999023438 c 0
 644.669921875 624.33203125 653.002929688 603.665039062 653.002929688 578.998046875 c 0
 653.002929688 553.665039062 644.3359375 532.665039062 627.002929688 515.998046875 c 0
 609.669921875 499.331054688 589.336914062 490.998046875 566.00390625 490.998046875 c 0
 542.670898438 490.998046875 522.337890625 499.665039062 505.004882812 516.998046875 c 0
 487.671875 534.331054688 479.004882812 554.998046875 479.004882812 578.998046875 c 0
 479.004882812 602.331054688 487.337890625 622.6640625 504.004882812 639.997070312 c 0
 520.671875 657.330078125 541.338867188 665.997070312 566.005859375 665.997070312 c 0
566.001953125 636.999023438 m 0
 549.334960938 636.999023438 535.334960938 631.33203125 524.001953125 619.999023438 c 0
 512.668945312 608.666015625 507.001953125 594.999023438 507.001953125 578.999023438 c 0
 507.001953125 563.666015625 513.001953125 549.999023438 525.001953125 537.999023438 c 0
 537.001953125 525.999023438 550.668945312 519.999023438 566.001953125 519.999023438 c 0
 581.334960938 519.999023438 595.001953125 525.666015625 607.001953125 536.999023438 c 0
 619.001953125 548.33203125 625.001953125 562.33203125 625.001953125 578.999023438 c 0
 625.001953125 596.33203125 619.334960938 610.33203125 608.001953125 620.999023438 c 0
 596.668945312 631.666015625 582.668945312 636.999023438 566.001953125 636.999023438 c 0
351.001953125 81.9990234375 m 2
 351.000976562 230 l 2
 351.000976562 288 348.66796875 321.333007812 344.000976562 330 c 0
 337.333984375 342.666992188 325.500976562 353.5 308.500976562 362.5 c 0
 291.500976562 371.5 272.000976562 376 250.000976562 376 c 0
 211.333984375 376 179.833984375 360.5 155.500976562 329.5 c 0
 131.16796875 298.5 119.000976562 259.666992188 119.000976562 213 c 0
 119.000976562 158.333007812 133.833984375 113.5 163.500976562 78.5 c 0
 193.16796875 43.5 231.000976562 26 277.000976562 26 c 0
 311.66796875 26 333.334960938 31.3330078125 342.001953125 42 c 0
 348.001953125 49.3330078125 351.001953125 62.666015625 351.001953125 81.9990234375 c 2
EndSplineSet
EndChar

StartChar: h
Encoding: 104 104 66
Width: 525
GlyphClass: 2
Flags: W
LayerCount: 2
Fore
SplineSet
88 600 m 2
 88 620.666992188 83.669921875 633.328125 75.0029296875 637.995117188 c 0
 66.3359375 642.662109375 50.6689453125 645.662109375 28.001953125 646.995117188 c 2
 10.001953125 648.995117188 l 2
 8.001953125 652.328125 7.001953125 656.161132812 7.001953125 660.494140625 c 0
 7.001953125 664.827148438 8.3349609375 667.66015625 11.001953125 668.993164062 c 0
 58.3349609375 685.66015625 104.334960938 705.993164062 149.001953125 729.993164062 c 1
 163.001953125 727.326171875 170.001953125 724.326171875 170.001953125 720.993164062 c 2
 162.001953125 645.993164062 l 1
 162.001953125 548.993164062 l 1
 318.001953125 548.993164062 l 1
 318.001953125 503.993164062 l 1
 162.001953125 503.993164062 l 1
 162.001953125 373.993164062 l 2
 162.001953125 363.326171875 163.334960938 356.993164062 166.001953125 354.993164062 c 0
 210.668945312 389.66015625 255.668945312 406.993164062 301.001953125 406.993164062 c 0
 346.334960938 406.993164062 379.16796875 395.326171875 399.500976562 371.993164062 c 0
 419.833984375 348.66015625 430.000976562 317.327148438 430.000976562 277.994140625 c 2
 430.000976562 110.994140625 l 2
 430.000976562 74.994140625 432.000976562 52.1611328125 436.000976562 42.494140625 c 0
 440.000976562 32.8271484375 450.66796875 26.994140625 468.000976562 24.994140625 c 2
 495.000976562 21.994140625 l 2
 499.000976562 19.994140625 500.66796875 15.8271484375 500.000976562 9.494140625 c 0
 499.333984375 3.1611328125 497.000976562 -1.005859375 493.000976562 -3.005859375 c 0
 457.000976562 -1.005859375 423.66796875 -0.005859375 393.000976562 -0.005859375 c 0
 358.333984375 -0.005859375 327.333984375 -1.005859375 300.000976562 -3.005859375 c 0
 296.000976562 -0.3388671875 293.66796875 3.828125 293.000976562 9.4951171875 c 0
 292.333984375 15.162109375 294.000976562 19.3291015625 298.000976562 21.99609375 c 2
 318.000976562 24.99609375 l 2
 336.000976562 27.6630859375 346.833984375 33.330078125 350.500976562 41.9970703125 c 0
 354.16796875 50.6640625 356.000976562 73.6640625 356.000976562 110.997070312 c 2
 356.000976562 253.997070312 l 2
 356.000976562 287.330078125 348.000976562 313.497070312 332.000976562 332.497070312 c 0
 316.000976562 351.497070312 292.333984375 360.997070312 261.000976562 360.997070312 c 0
 230.333984375 360.997070312 204.333984375 351.997070312 183.000976562 333.997070312 c 0
 174.333984375 327.330078125 168.666992188 320.830078125 166 314.497070312 c 0
 163.333007812 308.1640625 162 296.331054688 162 278.998046875 c 2
 162 110.998046875 l 2
 162 74.998046875 164 52.1650390625 168 42.498046875 c 0
 172 32.8310546875 182.666992188 26.998046875 200 24.998046875 c 2
 221 21.998046875 l 2
 225 19.998046875 226.666992188 15.8310546875 226 9.498046875 c 0
 225.333007812 3.1650390625 223 -1.001953125 219 -3.001953125 c 0
 189 -1.001953125 157.666992188 -0.001953125 125 -0.001953125 c 0
 91.6669921875 -0.001953125 59 -1.001953125 27 -3.001953125 c 0
 23 -0.3349609375 20.6669921875 3.83203125 20 9.4990234375 c 0
 19.3330078125 15.166015625 21 19.3330078125 25 22 c 2
 50 25 l 2
 68 27 78.8330078125 32.5 82.5 41.5 c 0
 86.1669921875 50.5 88 73.6669921875 88 111 c 2
 88 504 l 1
 6 504 l 1
 6 549 l 1
 88 549 l 1
 88 600 l 2
EndSplineSet
EndChar

StartChar: i
Encoding: 105 105 67
Width: 295
GlyphClass: 2
Flags: W
LayerCount: 2
Fore
SplineSet
109 111 m 2
 109.000976562 286.999023438 l 2
 109.000976562 306.999023438 107.66796875 320.33203125 105.000976562 326.999023438 c 0
 102.333984375 333.666015625 94.6669921875 340.999023438 82 348.999023438 c 2
 73 353.999023438 l 2
 71 355.999023438 70 359.166015625 70 363.499023438 c 0
 70 367.83203125 71.3330078125 370.665039062 74 371.998046875 c 0
 114 385.998046875 148.333007812 402.331054688 177 420.998046875 c 0
 183 420.998046875 186.333007812 418.998046875 187 414.998046875 c 0
 184.333007812 368.331054688 183 326.998046875 183 290.998046875 c 2
 183 110.998046875 l 2
 183 74.998046875 185 52.1650390625 189 42.498046875 c 0
 193 32.8310546875 203.666992188 26.998046875 221 24.998046875 c 2
 242 21.998046875 l 2
 246 19.998046875 247.666992188 15.8310546875 247 9.498046875 c 0
 246.333007812 3.1650390625 244 -1.001953125 240 -3.001953125 c 0
 210 -1.001953125 178.666992188 -0.001953125 146 -0.001953125 c 0
 111.333007812 -0.001953125 80 -1.001953125 52 -3.001953125 c 0
 48 -0.3349609375 45.6669921875 3.83203125 45 9.4990234375 c 0
 44.3330078125 15.166015625 46 19.3330078125 50 22 c 2
 71 25 l 2
 89 27 99.8330078125 32.5 103.5 41.5 c 0
 107.166992188 50.5 109 73.6669921875 109 111 c 2
117.000976562 577.999023438 m 2
 198 541.998046875 l 2
 216 534.665039062 230 535.165039062 240 543.498046875 c 0
 250 551.831054688 261.666992188 567.998046875 275 591.998046875 c 0
 277 595.998046875 280.166992188 597.665039062 284.5 596.998046875 c 0
 288.833007812 596.331054688 291.333007812 593.331054688 292 587.998046875 c 0
 294 555.331054688 285.666992188 528.331054688 267 506.998046875 c 0
 255.666992188 494.331054688 241.666992188 486.998046875 225 484.998046875 c 0
 208.333007812 482.998046875 192.333007812 484.665039062 177 489.998046875 c 2
 98 522.998046875 l 2
 70.6669921875 534.998046875 42.333984375 518.665039062 13.0009765625 473.998046875 c 0
 11.0009765625 469.998046875 7.833984375 468.998046875 3.5009765625 470.998046875 c 0
 -0.83203125 472.998046875 -3.33203125 475.665039062 -3.9990234375 478.998046875 c 0
 -6.666015625 500.998046875 6.0009765625 527.331054688 34.0009765625 557.998046875 c 0
 42.0009765625 568.665039062 54.16796875 576.33203125 70.5009765625 580.999023438 c 0
 86.833984375 585.666015625 102.333984375 584.666015625 117.000976562 577.999023438 c 2
EndSplineSet
EndChar

